{"glyphs":{"0":{"ha":725,"x_min":0,"x_max":0,"o":"m 318 -14 b 611 288 497 -14 575 86 l 681 668 b 443 990 715 865 625 990 b 151 682 283 990 190 897 l 86 318 b 318 -14 51 121 115 -14 z m 322 21 b 122 318 136 21 92 140 l 186 674 b 439 958 224 879 301 958 b 644 668 613 958 676 844 l 575 289 b 322 21 543 113 479 21 z "},"1":{"ha":446,"x_min":0,"x_max":0,"o":"m 339 0 l 344 35 l 181 35 l 347 982 l 317 982 b 157 836 285 883 246 836 l 150 803 b 297 894 235 804 272 840 l 146 35 l -12 35 l -18 0 z "},"2":{"ha":646,"x_min":0,"x_max":0,"o":"m 511 0 l 517 35 l 53 35 b 347 394 82 201 215 300 b 626 726 475 486 600 575 l 633 761 b 425 990 657 893 579 990 b 158 750 271 990 186 907 l 135 619 l 169 619 l 192 743 b 422 958 215 886 288 958 b 599 767 557 958 619 882 l 592 731 b 324 418 568 592 449 508 b 18 35 190 321 50 218 l 13 0 z "},"3":{"ha":668,"x_min":0,"x_max":0,"o":"m 276 -14 b 561 263 456 -14 528 72 b 446 510 586 400 549 486 b 632 729 551 535 610 618 b 418 990 664 903 576 990 b 135 692 257 990 174 915 l 133 685 l 169 685 b 417 958 207 899 276 958 b 597 733 546 958 628 893 b 378 526 574 617 506 526 l 286 526 l 281 492 l 374 492 b 525 267 501 492 550 407 b 281 21 494 97 438 21 b 104 318 94 21 74 140 l 107 335 l 71 335 l 68 318 b 276 -14 33 121 74 -14 z "},"4":{"ha":633,"x_min":0,"x_max":0,"o":"m 497 896 l 528 951 l 511 892 l 406 296 l 65 296 z m 575 264 l 581 296 l 439 296 l 560 981 l 524 981 l 25 294 l 19 264 l 400 264 l 354 0 l 388 0 l 433 264 z "},"5":{"ha":676,"x_min":0,"x_max":0,"o":"m 278 -14 b 561 225 431 -14 533 65 l 597 431 b 404 676 625 590 549 676 b 171 542 288 676 221 614 b 282 947 197 643 263 878 l 600 947 b 658 981 646 947 653 953 l 260 981 l 122 481 l 143 471 l 163 499 b 400 644 213 575 288 644 b 563 435 524 644 586 575 l 526 232 b 283 19 501 88 417 19 b 106 231 131 19 86 110 l 122 324 l 86 324 l 69 231 b 278 -14 46 97 100 -14 z "},"6":{"ha":699,"x_min":0,"x_max":0,"o":"m 596 269 l 603 310 b 375 588 631 481 533 588 b 144 451 260 588 183 538 l 185 674 b 431 958 222 879 293 958 b 632 668 604 958 664 844 l 629 654 l 665 654 l 668 668 b 435 990 703 865 617 990 b 151 682 275 990 190 897 l 86 321 b 310 -14 51 124 107 -14 b 596 269 483 -14 560 81 z m 314 21 b 121 321 128 21 90 143 l 131 376 b 368 556 160 486 243 556 b 567 311 515 556 590 458 l 560 271 b 314 21 529 107 469 21 z "},"7":{"ha":571,"x_min":0,"x_max":0,"o":"m 146 0 b 628 950 260 363 476 722 l 633 981 l 146 981 l 140 947 l 590 947 b 110 0 439 721 225 368 z "},"8":{"ha":668,"x_min":0,"x_max":0,"o":"m 274 -14 b 574 232 449 -14 542 60 l 581 274 b 456 510 600 394 551 483 b 640 701 549 528 624 600 l 649 750 b 431 990 676 897 590 990 b 154 768 288 990 182 925 l 146 718 b 258 514 129 622 169 540 b 53 297 150 496 74 413 l 46 256 b 274 -14 14 88 81 -14 z m 339 526 b 183 719 207 526 167 621 l 189 761 b 428 958 218 908 300 958 b 613 751 583 958 636 869 l 604 703 b 379 526 588 604 508 526 z m 278 21 b 82 256 101 21 54 107 l 89 296 b 332 497 107 410 196 497 l 363 497 b 546 275 514 497 567 400 l 538 231 b 278 21 510 83 431 21 z "},"9":{"ha":690,"x_min":0,"x_max":0,"o":"m 361 421 b 163 665 214 421 139 518 l 169 706 b 415 956 200 869 260 956 b 608 656 601 956 639 833 l 599 599 b 361 421 569 490 485 421 z m 294 -14 b 578 299 454 -14 539 83 l 643 656 b 419 990 678 853 622 990 b 133 707 246 990 169 896 l 126 667 b 354 389 99 496 196 389 b 585 524 469 389 546 439 l 544 307 b 299 18 507 101 436 18 b 97 308 125 18 65 132 l 100 322 l 64 322 l 61 308 b 294 -14 26 111 113 -14 z "}," ":{"ha":324,"x_min":0,"x_max":0,"o":""}," ":{"ha":324,"x_min":0,"x_max":0,"o":""},"A":{"ha":642,"x_min":0,"x_max":0,"o":"m 408 914 l 414 931 l 414 914 l 467 304 l 149 304 z m 493 0 l 529 0 l 439 981 l 406 981 l -19 0 l 18 0 l 133 271 l 469 271 z "},"B":{"ha":681,"x_min":0,"x_max":0,"o":"m 310 0 b 581 211 493 0 554 67 l 592 281 b 475 507 614 403 581 482 b 651 694 583 524 632 582 l 661 746 b 451 981 685 885 626 981 l 222 981 l 50 0 z m 390 525 l 176 525 l 251 947 l 446 947 b 626 753 603 947 646 867 l 617 701 b 390 525 594 576 528 524 z m 386 493 b 557 288 536 493 579 410 l 546 218 b 315 33 524 99 475 33 l 90 33 l 171 493 z "},"C":{"ha":708,"x_min":0,"x_max":0,"o":"m 318 -14 b 611 288 497 -14 575 86 l 618 329 l 582 329 l 575 289 b 322 21 543 113 479 21 b 122 318 136 21 92 140 l 186 674 b 443 958 224 879 303 958 b 646 675 611 958 678 851 l 633 604 l 669 604 l 682 675 b 449 990 717 872 624 990 b 151 682 286 990 190 897 l 86 318 b 318 -14 51 121 115 -14 z "},"D":{"ha":714,"x_min":0,"x_max":0,"o":"m 50 0 l 267 0 b 603 301 457 0 568 100 l 664 649 b 419 981 701 861 606 981 l 222 981 z m 413 947 b 628 651 583 947 663 846 l 569 315 b 257 33 538 121 439 33 l 90 33 l 251 947 z "},"E":{"ha":608,"x_min":0,"x_max":0,"o":"m 496 33 l 90 33 l 172 496 l 513 496 l 519 529 l 178 529 l 251 947 l 646 947 l 651 981 l 222 981 l 50 0 l 490 0 z "},"F":{"ha":576,"x_min":0,"x_max":0,"o":"m 515 453 l 521 486 l 171 486 l 251 947 l 629 947 l 635 981 l 222 981 l 50 0 l 85 0 l 164 453 z "},"G":{"ha":719,"x_min":0,"x_max":0,"o":"m 517 0 l 543 0 l 629 492 l 369 492 l 364 458 l 592 458 l 563 296 b 297 21 526 124 458 21 b 114 318 128 21 83 140 l 178 674 b 444 958 215 871 303 958 b 642 700 601 958 674 876 l 638 678 l 674 678 l 678 700 b 449 990 713 897 611 990 b 143 682 279 990 182 889 l 78 318 b 293 -14 43 121 107 -14 b 539 154 424 -14 496 49 z "},"H":{"ha":717,"x_min":0,"x_max":0,"o":"m 499 0 l 533 0 l 706 981 l 671 981 l 588 503 l 174 503 l 257 981 l 222 981 l 50 0 l 85 0 l 167 469 l 581 469 z "},"I":{"ha":426,"x_min":0,"x_max":0,"o":"m 315 0 l 321 33 l 168 33 l 331 947 l 482 947 l 488 981 l 150 981 l 144 947 l 296 947 l 133 33 l -17 33 l -22 0 z "},"J":{"ha":575,"x_min":0,"x_max":0,"o":"m 211 -14 b 442 225 354 -14 414 67 l 574 981 l 539 981 l 407 225 b 208 21 382 85 332 21 b 68 194 94 21 50 96 l 90 317 l 56 317 l 33 194 b 211 -14 11 71 78 -14 z "},"K":{"ha":663,"x_min":0,"x_max":0,"o":"m 383 554 l 524 0 l 563 0 l 400 625 l 710 981 l 669 981 l 167 406 l 146 372 l 161 435 l 257 981 l 222 981 l 50 0 l 85 0 l 144 338 l 376 601 z "},"L":{"ha":549,"x_min":0,"x_max":0,"o":"m 440 0 l 446 33 l 90 33 l 256 981 l 222 981 l 50 0 z "},"M":{"ha":829,"x_min":0,"x_max":0,"o":"m 218 758 l 244 932 l 249 904 l 403 376 l 422 376 l 763 903 l 781 935 l 744 758 l 611 0 l 646 0 l 818 981 l 779 981 l 419 426 l 257 981 l 222 981 l 50 0 l 85 0 z "},"N":{"ha":746,"x_min":0,"x_max":0,"o":"m 228 817 l 244 939 l 285 788 l 532 0 l 563 0 l 735 981 l 700 981 l 560 182 l 542 49 l 500 211 l 256 981 l 222 981 l 50 0 l 85 0 z "},"O":{"ha":725,"x_min":0,"x_max":0,"o":"m 317 -14 b 611 288 496 -14 575 86 l 681 675 b 449 990 715 872 629 990 b 151 682 283 990 190 897 l 86 318 b 317 -14 51 121 114 -14 z m 322 21 b 122 318 136 21 92 140 l 186 674 b 443 958 224 879 304 958 b 646 675 613 958 678 851 l 575 289 b 322 21 543 113 479 21 z "},"P":{"ha":664,"x_min":0,"x_max":0,"o":"m 432 947 b 610 719 589 947 632 847 l 585 578 b 347 357 561 442 496 356 l 147 357 l 251 947 z m 346 324 b 618 564 519 322 593 419 l 644 714 b 439 981 672 865 611 981 l 222 981 l 50 0 l 85 0 l 142 324 z "},"Q":{"ha":725,"x_min":0,"x_max":0,"o":"m 501 -132 l 433 4 b 611 288 533 42 583 136 l 681 675 b 449 990 715 872 629 990 b 151 682 283 990 190 897 l 86 318 b 317 -14 51 121 114 -14 b 399 -6 346 -14 374 -11 l 458 -132 z m 322 21 b 122 318 136 21 92 140 l 186 674 b 443 958 224 879 304 958 b 646 675 613 958 678 851 l 575 289 b 322 21 543 113 479 21 z "},"R":{"ha":678,"x_min":0,"x_max":0,"o":"m 453 947 b 624 742 604 947 647 865 l 608 664 b 371 478 585 538 504 478 l 169 478 l 251 947 z m 364 447 b 526 258 507 447 550 389 l 492 63 b 494 0 488 38 488 13 l 536 0 b 526 63 525 13 522 38 l 561 258 b 454 463 583 374 556 440 b 643 656 561 481 622 540 l 658 733 b 458 981 686 882 625 981 l 222 981 l 50 0 l 85 0 l 164 447 z "},"S":{"ha":647,"x_min":0,"x_max":0,"o":"m 292 -14 b 560 211 456 -14 535 75 l 563 231 b 369 518 586 393 476 457 b 188 768 267 576 165 632 l 190 785 b 403 958 210 900 294 958 b 607 743 567 958 629 864 l 597 689 l 632 689 l 642 744 b 404 989 664 882 588 989 b 156 788 279 989 178 919 l 153 771 b 338 497 126 619 232 557 b 528 236 442 438 547 379 l 525 218 b 288 21 506 100 439 21 b 83 264 131 21 54 104 l 94 324 l 58 324 l 47 264 b 292 -14 13 86 107 -14 z "},"T":{"ha":546,"x_min":0,"x_max":0,"o":"m 604 947 l 610 981 l 147 981 l 142 947 l 353 947 l 185 0 l 219 0 l 388 947 z "},"U":{"ha":697,"x_min":0,"x_max":0,"o":"m 294 -14 b 568 264 463 -14 536 82 l 694 981 l 660 981 l 536 278 b 300 19 507 115 449 19 b 128 293 140 19 99 125 l 249 981 l 214 981 l 93 296 b 294 -14 60 107 111 -14 z "},"V":{"ha":635,"x_min":0,"x_max":0,"o":"m 265 0 l 699 981 l 661 981 l 258 61 l 190 981 l 153 981 l 232 0 z "},"W":{"ha":951,"x_min":0,"x_max":0,"o":"m 557 899 l 567 933 l 564 899 l 617 0 l 650 0 l 997 981 l 964 981 l 654 100 l 639 46 l 642 106 l 588 981 l 561 981 l 186 106 l 167 50 l 174 103 l 197 981 l 165 981 l 140 0 l 174 0 z "},"X":{"ha":601,"x_min":0,"x_max":0,"o":"m 310 475 l 325 503 l 332 474 l 472 0 l 508 0 l 349 528 l 350 531 l 650 981 l 608 981 l 346 578 l 333 557 l 329 579 l 213 981 l 176 981 l 311 533 l 310 531 l -43 0 l -1 0 z "},"Y":{"ha":613,"x_min":0,"x_max":0,"o":"m 250 0 l 313 350 l 671 981 l 632 981 l 336 453 l 299 374 l 290 450 l 189 981 l 153 981 l 278 351 l 215 0 z "},"Z":{"ha":578,"x_min":0,"x_max":0,"o":"m 457 0 l 463 35 l 31 35 l 613 950 l 618 981 l 186 981 l 181 947 l 572 947 l -11 32 l -17 0 z "},"Á":{"ha":642,"x_min":0,"x_max":0,"o":"m 408 914 l 414 931 l 414 914 l 467 304 l 149 304 z m 493 0 l 529 0 l 439 981 l 406 981 l -19 0 l 18 0 l 133 271 l 469 271 z m 424 1081 l 458 1081 l 640 1297 l 597 1297 z "},"Ă":{"ha":642,"x_min":0,"x_max":0,"o":"m 408 914 l 414 931 l 414 914 l 467 304 l 149 304 z m 493 0 l 529 0 l 439 981 l 406 981 l -19 0 l 18 0 l 133 271 l 469 271 z m 439 1075 b 628 1240 546 1075 607 1149 l 596 1240 b 442 1106 576 1164 525 1107 b 338 1240 350 1107 329 1164 l 304 1240 b 439 1075 294 1149 326 1075 z "},"Â":{"ha":642,"x_min":0,"x_max":0,"o":"m 408 914 l 414 931 l 414 914 l 467 304 l 149 304 z m 493 0 l 529 0 l 439 981 l 406 981 l -19 0 l 18 0 l 133 271 l 469 271 z m 540 1075 l 578 1075 l 486 1246 l 453 1246 l 300 1075 l 343 1075 l 467 1215 z "},"Ä":{"ha":642,"x_min":0,"x_max":0,"o":"m 408 914 l 414 931 l 414 914 l 467 304 l 149 304 z m 493 0 l 529 0 l 439 981 l 406 981 l -19 0 l 18 0 l 133 271 l 469 271 z m 354 1079 b 401 1122 378 1079 396 1092 b 372 1168 407 1151 397 1168 b 325 1124 347 1168 331 1151 b 354 1079 319 1092 332 1079 z m 514 1079 b 558 1122 536 1079 553 1092 b 531 1168 564 1151 556 1168 b 483 1124 506 1168 489 1151 b 514 1079 478 1092 489 1079 z "},"À":{"ha":642,"x_min":0,"x_max":0,"o":"m 408 914 l 414 931 l 414 914 l 467 304 l 149 304 z m 493 0 l 529 0 l 439 981 l 406 981 l -19 0 l 18 0 l 133 271 l 469 271 z m 425 1081 l 461 1081 l 372 1254 l 328 1254 z "},"Ā":{"ha":642,"x_min":0,"x_max":0,"o":"m 408 914 l 414 931 l 414 914 l 467 304 l 149 304 z m 493 0 l 529 0 l 439 981 l 406 981 l -19 0 l 18 0 l 133 271 l 469 271 z m 306 1107 l 579 1107 l 585 1140 l 311 1140 z "},"Ʌ":{"ha":642,"x_min":0,"x_max":0,"o":"m 408 914 l 414 931 l 414 914 l 493 0 l 529 0 l 439 981 l 406 981 l -19 0 l 18 0 z "},"Ą":{"ha":642,"x_min":0,"x_max":0,"o":"m 408 914 l 414 931 l 414 914 l 467 304 l 149 304 z m 624 -143 l 585 -143 b 468 -211 560 -190 522 -211 b 385 -131 408 -211 378 -174 b 528 0 392 -86 438 -49 l 529 0 l 439 981 l 406 981 l -19 0 l 18 0 l 133 271 l 469 271 l 492 13 b 351 -128 411 -33 361 -75 b 465 -243 340 -187 381 -243 b 624 -143 540 -243 592 -208 z "},"Å":{"ha":642,"x_min":0,"x_max":0,"o":"m 408 914 l 414 931 l 414 914 l 467 304 l 149 304 z m 493 0 l 529 0 l 439 981 l 406 981 l -19 0 l 18 0 l 133 271 l 469 271 z m 442 1088 b 560 1188 507 1088 549 1126 b 464 1304 571 1250 532 1304 b 343 1206 403 1304 354 1267 b 442 1088 332 1143 374 1088 z m 444 1119 b 376 1201 394 1119 369 1157 b 461 1272 385 1247 417 1272 b 528 1192 511 1272 536 1233 b 444 1119 518 1144 492 1119 z "},"Ǻ":{"ha":642,"x_min":0,"x_max":0,"o":"m 460 1240 l 494 1240 l 676 1457 l 633 1457 z m 429 981 b 361 1063 379 981 354 1018 b 446 1133 369 1108 401 1133 b 513 1053 496 1133 521 1094 b 429 981 503 1006 476 981 z m 408 914 l 414 931 l 414 914 l 467 304 l 149 304 z m 133 271 l 469 271 l 493 0 l 529 0 l 442 950 b 544 1049 499 956 535 993 b 449 1165 556 1111 517 1165 b 328 1067 388 1165 339 1128 b 394 953 318 1015 346 968 l -19 0 l 18 0 z "},"Ã":{"ha":642,"x_min":0,"x_max":0,"o":"m 408 914 l 414 931 l 414 914 l 467 304 l 149 304 z m 493 0 l 529 0 l 439 981 l 406 981 l -19 0 l 18 0 l 133 271 l 469 271 z m 258 1083 l 289 1083 b 356 1157 297 1132 319 1157 b 531 1082 421 1157 457 1082 b 629 1188 585 1082 618 1119 l 599 1188 b 531 1114 590 1135 567 1114 b 360 1188 472 1114 436 1188 b 258 1083 306 1188 271 1151 z "},"Æ":{"ha":904,"x_min":0,"x_max":0,"o":"m 453 865 l 485 942 l 476 868 l 447 304 l 163 304 z m 431 0 l 786 0 l 792 33 l 465 33 l 488 472 l 804 472 l 811 506 l 489 506 l 511 947 l 942 947 l 947 981 l 479 981 l -35 0 l 4 0 l 144 271 l 444 271 z "},"Ǽ":{"ha":904,"x_min":0,"x_max":0,"o":"m 453 865 l 485 942 l 476 868 l 447 304 l 163 304 z m 431 0 l 786 0 l 792 33 l 465 33 l 488 472 l 804 472 l 811 506 l 489 506 l 511 947 l 942 947 l 947 981 l 479 981 l -35 0 l 4 0 l 144 271 l 444 271 z m 493 1081 l 528 1081 l 710 1297 l 667 1297 z "},"Ć":{"ha":700,"x_min":0,"x_max":0,"o":"m 310 -14 b 603 288 489 -14 567 86 l 610 329 l 574 329 l 567 289 b 314 21 535 113 471 21 b 114 318 128 21 83 140 l 178 674 b 435 958 215 879 294 958 b 638 675 603 958 669 851 l 625 604 l 661 604 l 674 675 b 440 990 708 872 615 990 b 143 682 278 990 182 897 l 78 318 b 310 -14 43 121 107 -14 z m 468 1090 l 503 1090 l 685 1307 l 642 1307 z "},"Č":{"ha":700,"x_min":0,"x_max":0,"o":"m 310 -14 b 603 288 489 -14 567 86 l 610 329 l 574 329 l 567 289 b 314 21 535 113 471 21 b 114 318 128 21 83 140 l 178 674 b 435 958 215 879 294 958 b 638 675 603 958 669 851 l 625 604 l 661 604 l 674 675 b 440 990 708 872 615 990 b 143 682 278 990 182 897 l 78 318 b 310 -14 43 121 107 -14 z m 500 1088 l 657 1254 l 613 1254 l 490 1119 l 421 1254 l 381 1254 l 472 1088 z "},"Ç":{"ha":700,"x_min":0,"x_max":0,"o":"m 257 -272 b 397 -185 336 -272 388 -237 b 294 -85 408 -121 371 -87 l 307 -14 l 310 -14 b 603 288 489 -14 567 86 l 610 329 l 574 329 l 567 289 b 314 21 535 113 471 21 b 114 318 128 21 83 140 l 178 674 b 435 958 215 879 294 958 b 638 675 603 958 669 851 l 625 604 l 661 604 l 674 675 b 440 990 708 872 615 990 b 143 682 278 990 182 897 l 78 318 b 272 -12 46 133 99 4 l 256 -114 l 274 -114 b 361 -181 344 -114 371 -132 b 258 -240 354 -221 317 -240 b 169 -168 203 -240 167 -219 l 133 -168 b 257 -272 131 -236 176 -272 z "},"Ĉ":{"ha":700,"x_min":0,"x_max":0,"o":"m 310 -14 b 603 288 489 -14 567 86 l 610 329 l 574 329 l 567 289 b 314 21 535 113 471 21 b 114 318 128 21 83 140 l 178 674 b 435 958 215 879 294 958 b 638 675 603 958 669 851 l 625 604 l 661 604 l 674 675 b 440 990 708 872 615 990 b 143 682 278 990 182 897 l 78 318 b 310 -14 43 121 107 -14 z m 585 1088 l 622 1088 l 531 1258 l 497 1258 l 344 1088 l 388 1088 l 511 1228 z "},"Ċ":{"ha":700,"x_min":0,"x_max":0,"o":"m 310 -14 b 603 288 489 -14 567 86 l 610 329 l 574 329 l 567 289 b 314 21 535 113 471 21 b 114 318 128 21 83 140 l 178 674 b 435 958 215 879 294 958 b 638 675 603 958 669 851 l 625 604 l 661 604 l 674 675 b 440 990 708 872 615 990 b 143 682 278 990 182 897 l 78 318 b 310 -14 43 121 107 -14 z m 486 1089 b 536 1136 511 1089 529 1103 b 504 1188 542 1168 531 1188 b 453 1138 476 1188 458 1169 b 486 1089 446 1103 460 1089 z "},"Ď":{"ha":714,"x_min":0,"x_max":0,"o":"m 50 0 l 267 0 b 603 301 457 0 568 100 l 664 649 b 419 981 701 861 606 981 l 222 981 z m 413 947 b 628 651 583 947 663 846 l 569 315 b 257 33 538 121 439 33 l 90 33 l 251 947 z m 475 1076 l 632 1243 l 588 1243 l 465 1108 l 396 1243 l 356 1243 l 447 1076 z "},"Đ":{"ha":722,"x_min":0,"x_max":0,"o":"m 275 0 b 611 301 465 0 576 100 l 672 649 b 428 981 710 861 600 981 l 231 981 l 147 503 l 39 503 l 33 472 l 142 472 l 58 0 z m 317 472 l 322 503 l 182 503 l 260 947 l 421 947 b 636 651 582 947 671 846 l 578 315 b 265 33 546 121 447 33 l 99 33 l 176 472 z "},"Ð":{"ha":722,"x_min":0,"x_max":0,"o":"m 275 0 b 611 301 465 0 576 100 l 672 649 b 428 981 710 861 600 981 l 231 981 l 147 503 l 39 503 l 33 472 l 142 472 l 58 0 z m 317 472 l 322 503 l 182 503 l 260 947 l 421 947 b 636 651 582 947 671 846 l 578 315 b 265 33 546 121 447 33 l 99 33 l 176 472 z "},"É":{"ha":608,"x_min":0,"x_max":0,"o":"m 496 33 l 90 33 l 172 496 l 513 496 l 519 529 l 178 529 l 251 947 l 646 947 l 651 981 l 222 981 l 50 0 l 490 0 z m 442 1081 l 476 1081 l 658 1297 l 615 1297 z "},"Ĕ":{"ha":608,"x_min":0,"x_max":0,"o":"m 496 33 l 90 33 l 172 496 l 513 496 l 519 529 l 178 529 l 251 947 l 646 947 l 651 981 l 222 981 l 50 0 l 490 0 z m 463 1075 b 651 1240 569 1075 631 1149 l 619 1240 b 465 1106 600 1164 549 1107 b 361 1240 374 1107 353 1164 l 328 1240 b 463 1075 318 1149 350 1075 z "},"Ě":{"ha":608,"x_min":0,"x_max":0,"o":"m 496 33 l 90 33 l 172 496 l 513 496 l 519 529 l 178 529 l 251 947 l 646 947 l 651 981 l 222 981 l 50 0 l 490 0 z m 471 1078 l 628 1244 l 583 1244 l 461 1110 l 392 1244 l 351 1244 l 443 1078 z "},"Ê":{"ha":608,"x_min":0,"x_max":0,"o":"m 496 33 l 90 33 l 172 496 l 513 496 l 519 529 l 178 529 l 251 947 l 646 947 l 651 981 l 222 981 l 50 0 l 490 0 z m 563 1079 l 600 1079 l 508 1250 l 475 1250 l 322 1079 l 365 1079 l 489 1219 z "},"Ë":{"ha":608,"x_min":0,"x_max":0,"o":"m 496 33 l 90 33 l 172 496 l 513 496 l 519 529 l 178 529 l 251 947 l 646 947 l 651 981 l 222 981 l 50 0 l 490 0 z m 379 1085 b 426 1128 403 1085 421 1097 b 397 1174 432 1157 422 1174 b 350 1129 372 1174 356 1157 b 379 1085 344 1097 357 1085 z m 539 1085 b 583 1128 561 1085 578 1097 b 556 1174 589 1157 581 1174 b 508 1129 531 1174 514 1157 b 539 1085 503 1097 514 1085 z "},"Ė":{"ha":608,"x_min":0,"x_max":0,"o":"m 496 33 l 90 33 l 172 496 l 513 496 l 519 529 l 178 529 l 251 947 l 646 947 l 651 981 l 222 981 l 50 0 l 490 0 z m 460 1079 b 510 1126 485 1079 503 1093 b 478 1178 515 1158 504 1178 b 426 1128 450 1178 432 1160 b 460 1079 419 1093 433 1079 z "},"È":{"ha":608,"x_min":0,"x_max":0,"o":"m 496 33 l 90 33 l 172 496 l 513 496 l 519 529 l 178 529 l 251 947 l 646 947 l 651 981 l 222 981 l 50 0 l 490 0 z m 450 1081 l 486 1081 l 397 1254 l 353 1254 z "},"Ē":{"ha":608,"x_min":0,"x_max":0,"o":"m 496 33 l 90 33 l 172 496 l 513 496 l 519 529 l 178 529 l 251 947 l 646 947 l 651 981 l 222 981 l 50 0 l 490 0 z m 331 1107 l 604 1107 l 610 1140 l 336 1140 z "},"Ę":{"ha":608,"x_min":0,"x_max":0,"o":"m 586 -143 l 547 -143 b 431 -211 522 -190 485 -211 b 347 -131 371 -211 340 -174 b 490 0 354 -86 400 -49 l 496 33 l 90 33 l 172 496 l 513 496 l 519 529 l 178 529 l 251 947 l 646 947 l 651 981 l 222 981 l 50 0 l 433 0 b 314 -128 365 -40 322 -81 b 428 -243 303 -187 343 -243 b 586 -143 503 -243 554 -208 z "},"Ğ":{"ha":719,"x_min":0,"x_max":0,"o":"m 517 0 l 543 0 l 629 492 l 369 492 l 364 458 l 592 458 l 563 296 b 297 21 526 124 458 21 b 114 318 128 21 83 140 l 178 674 b 444 958 215 871 303 958 b 642 700 601 958 674 876 l 638 678 l 674 678 l 678 700 b 449 990 713 897 611 990 b 143 682 279 990 182 889 l 78 318 b 293 -14 43 121 107 -14 b 539 154 424 -14 496 49 z m 493 1085 b 682 1250 600 1085 661 1158 l 650 1250 b 496 1115 631 1174 579 1117 b 392 1250 404 1117 383 1174 l 358 1250 b 493 1085 349 1158 381 1085 z "},"Ĝ":{"ha":719,"x_min":0,"x_max":0,"o":"m 517 0 l 543 0 l 629 492 l 369 492 l 364 458 l 592 458 l 563 296 b 297 21 526 124 458 21 b 114 318 128 21 83 140 l 178 674 b 444 958 215 871 303 958 b 642 700 601 958 674 876 l 638 678 l 674 678 l 678 700 b 449 990 713 897 611 990 b 143 682 279 990 182 889 l 78 318 b 293 -14 43 121 107 -14 b 539 154 424 -14 496 49 z m 596 1089 l 633 1089 l 542 1260 l 508 1260 l 356 1089 l 399 1089 l 522 1229 z "},"Ģ":{"ha":719,"x_min":0,"x_max":0,"o":"m 517 0 l 543 0 l 629 492 l 369 492 l 364 458 l 592 458 l 563 296 b 297 21 526 124 458 21 b 114 318 128 21 83 140 l 178 674 b 444 958 215 871 303 958 b 642 700 601 958 674 876 l 638 678 l 674 678 l 678 700 b 449 990 713 897 611 990 b 143 682 279 990 182 889 l 78 318 b 293 -14 43 121 107 -14 b 539 154 424 -14 496 49 z m 208 -303 b 310 -161 258 -271 299 -221 b 279 -94 318 -114 306 -94 b 232 -140 256 -94 238 -111 b 257 -182 226 -172 240 -182 b 276 -172 264 -182 271 -178 b 194 -283 264 -222 232 -260 z "},"Ġ":{"ha":719,"x_min":0,"x_max":0,"o":"m 517 0 l 543 0 l 629 492 l 369 492 l 364 458 l 592 458 l 563 296 b 297 21 526 124 458 21 b 114 318 128 21 83 140 l 178 674 b 444 958 215 871 303 958 b 642 700 601 958 674 876 l 638 678 l 674 678 l 678 700 b 449 990 713 897 611 990 b 143 682 279 990 182 889 l 78 318 b 293 -14 43 121 107 -14 b 539 154 424 -14 496 49 z m 490 1089 b 540 1136 515 1089 533 1103 b 508 1188 546 1168 535 1188 b 457 1138 481 1188 463 1169 b 490 1089 450 1103 464 1089 z "},"Ħ":{"ha":728,"x_min":0,"x_max":0,"o":"m 593 503 l 179 503 l 218 729 l 632 729 z m 504 0 l 539 0 l 667 729 l 771 729 l 776 761 l 672 761 l 711 981 l 676 981 l 638 761 l 224 761 l 263 981 l 228 981 l 189 761 l 85 761 l 79 729 l 183 729 l 56 0 l 90 0 l 172 469 l 586 469 z "},"Ĥ":{"ha":717,"x_min":0,"x_max":0,"o":"m 499 0 l 533 0 l 706 981 l 671 981 l 588 503 l 174 503 l 257 981 l 222 981 l 50 0 l 85 0 l 167 469 l 581 469 z m 581 1068 l 618 1068 l 526 1239 l 493 1239 l 340 1068 l 383 1068 l 507 1208 z "},"Í":{"ha":426,"x_min":0,"x_max":0,"o":"m 315 0 l 321 33 l 168 33 l 331 947 l 482 947 l 488 981 l 150 981 l 144 947 l 296 947 l 133 33 l -17 33 l -22 0 z m 315 1081 l 350 1081 l 532 1297 l 489 1297 z "},"Ĭ":{"ha":426,"x_min":0,"x_max":0,"o":"m 315 0 l 321 33 l 168 33 l 331 947 l 482 947 l 488 981 l 150 981 l 144 947 l 296 947 l 133 33 l -17 33 l -22 0 z m 338 1075 b 526 1240 444 1075 506 1149 l 494 1240 b 340 1106 475 1164 424 1107 b 236 1240 249 1107 228 1164 l 203 1240 b 338 1075 193 1149 225 1075 z "},"Î":{"ha":426,"x_min":0,"x_max":0,"o":"m 315 0 l 321 33 l 168 33 l 331 947 l 482 947 l 488 981 l 150 981 l 144 947 l 296 947 l 133 33 l -17 33 l -22 0 z m 440 1079 l 478 1079 l 386 1250 l 353 1250 l 200 1079 l 243 1079 l 367 1219 z "},"Ï":{"ha":426,"x_min":0,"x_max":0,"o":"m 315 0 l 321 33 l 168 33 l 331 947 l 482 947 l 488 981 l 150 981 l 144 947 l 296 947 l 133 33 l -17 33 l -22 0 z m 254 1085 b 301 1128 278 1085 296 1097 b 272 1174 307 1157 297 1174 b 225 1129 247 1174 231 1157 b 254 1085 219 1097 232 1085 z m 414 1085 b 458 1128 436 1085 453 1097 b 431 1174 464 1157 456 1174 b 383 1129 406 1174 389 1157 b 414 1085 378 1097 389 1085 z "},"İ":{"ha":426,"x_min":0,"x_max":0,"o":"m 315 0 l 321 33 l 168 33 l 331 947 l 482 947 l 488 981 l 150 981 l 144 947 l 296 947 l 133 33 l -17 33 l -22 0 z m 335 1079 b 385 1126 360 1079 378 1093 b 353 1178 390 1158 379 1178 b 301 1128 325 1178 307 1160 b 335 1079 294 1093 308 1079 z "},"Ì":{"ha":426,"x_min":0,"x_max":0,"o":"m 315 0 l 321 33 l 168 33 l 331 947 l 482 947 l 488 981 l 150 981 l 144 947 l 296 947 l 133 33 l -17 33 l -22 0 z m 325 1081 l 361 1081 l 272 1254 l 228 1254 z "},"Ī":{"ha":426,"x_min":0,"x_max":0,"o":"m 315 0 l 321 33 l 168 33 l 331 947 l 482 947 l 488 981 l 150 981 l 144 947 l 296 947 l 133 33 l -17 33 l -22 0 z m 206 1107 l 479 1107 l 485 1140 l 211 1140 z "},"Į":{"ha":426,"x_min":0,"x_max":0,"o":"m 411 -143 l 372 -143 b 256 -211 347 -190 310 -211 b 172 -131 196 -211 165 -174 b 315 0 179 -86 225 -49 l 321 33 l 168 33 l 331 947 l 482 947 l 488 981 l 150 981 l 144 947 l 296 947 l 133 33 l -17 33 l -22 0 l 258 0 b 139 -128 190 -40 147 -81 b 253 -243 128 -187 168 -243 b 411 -143 328 -243 379 -208 z "},"Ĩ":{"ha":426,"x_min":0,"x_max":0,"o":"m 315 0 l 321 33 l 168 33 l 331 947 l 482 947 l 488 981 l 150 981 l 144 947 l 296 947 l 133 33 l -17 33 l -22 0 z m 158 1083 l 189 1083 b 256 1157 197 1132 219 1157 b 431 1082 321 1157 357 1082 b 529 1188 485 1082 518 1119 l 499 1188 b 431 1114 490 1135 467 1114 b 260 1188 372 1114 336 1188 b 158 1083 206 1188 171 1151 z "},"Ĵ":{"ha":575,"x_min":0,"x_max":0,"o":"m 211 -14 b 442 225 354 -14 414 67 l 574 981 l 539 981 l 407 225 b 208 21 382 85 332 21 b 68 194 94 21 50 96 l 90 317 l 56 317 l 33 194 b 211 -14 11 71 78 -14 z m 678 1079 l 715 1079 l 624 1250 l 590 1250 l 438 1079 l 481 1079 l 604 1219 z "},"Ķ":{"ha":663,"x_min":0,"x_max":0,"o":"m 383 554 l 524 0 l 563 0 l 400 625 l 710 981 l 669 981 l 167 406 l 146 372 l 161 435 l 257 981 l 222 981 l 50 0 l 85 0 l 144 338 l 376 601 z m 211 -282 b 313 -140 261 -250 301 -200 b 282 -74 321 -93 308 -74 b 235 -119 258 -74 240 -90 b 260 -161 229 -151 243 -161 b 279 -151 267 -161 274 -157 b 197 -262 267 -201 235 -239 z "},"Ĺ":{"ha":549,"x_min":0,"x_max":0,"o":"m 440 0 l 446 33 l 90 33 l 256 981 l 222 981 l 50 0 z m 236 1081 l 271 1081 l 453 1297 l 410 1297 z "},"Ľ":{"ha":549,"x_min":0,"x_max":0,"o":"m 440 0 l 446 33 l 90 33 l 256 981 l 222 981 l 50 0 z m 386 883 l 417 883 l 521 1075 l 479 1075 z "},"Ļ":{"ha":549,"x_min":0,"x_max":0,"o":"m 440 0 l 446 33 l 90 33 l 256 981 l 222 981 l 50 0 z m 161 -290 b 263 -149 211 -258 251 -208 b 232 -82 271 -101 258 -82 b 185 -128 208 -82 190 -99 b 210 -169 179 -160 193 -169 b 229 -160 217 -169 224 -165 b 147 -271 217 -210 185 -247 z "},"Ŀ":{"ha":549,"x_min":0,"x_max":0,"o":"m 440 0 l 446 33 l 90 33 l 257 981 l 222 981 l 50 0 z m 451 338 b 501 385 476 338 494 351 b 469 436 507 417 496 436 b 418 386 442 436 424 418 b 451 338 411 351 425 338 z "},"Ł":{"ha":556,"x_min":0,"x_max":0,"o":"m 447 0 l 453 33 l 97 33 l 178 500 l 332 543 l 329 572 l 183 532 l 263 981 l 229 981 l 149 522 l 38 492 l 42 463 l 143 490 l 57 0 z "},"Ń":{"ha":746,"x_min":0,"x_max":0,"o":"m 228 817 l 244 939 l 285 788 l 532 0 l 563 0 l 735 981 l 700 981 l 560 182 l 542 49 l 500 211 l 256 981 l 222 981 l 50 0 l 85 0 z m 471 1056 l 506 1056 l 688 1272 l 644 1272 z "},"Ň":{"ha":746,"x_min":0,"x_max":0,"o":"m 228 817 l 244 939 l 285 788 l 532 0 l 563 0 l 735 981 l 700 981 l 560 182 l 542 49 l 500 211 l 256 981 l 222 981 l 50 0 l 85 0 z m 504 1057 l 661 1224 l 617 1224 l 494 1089 l 425 1224 l 385 1224 l 476 1057 z "},"Ņ":{"ha":746,"x_min":0,"x_max":0,"o":"m 228 817 l 244 939 l 285 788 l 532 0 l 563 0 l 735 981 l 700 981 l 560 182 l 542 49 l 500 211 l 256 981 l 222 981 l 50 0 l 85 0 z m 214 -281 b 315 -139 264 -249 304 -199 b 285 -72 324 -92 311 -72 b 238 -118 261 -72 243 -89 b 263 -160 232 -150 246 -160 b 282 -150 269 -160 276 -156 b 200 -261 269 -200 238 -237 z "},"Ñ":{"ha":746,"x_min":0,"x_max":0,"o":"m 228 817 l 244 939 l 285 788 l 532 0 l 563 0 l 735 981 l 700 981 l 560 182 l 542 49 l 500 211 l 256 981 l 222 981 l 50 0 l 85 0 z m 321 1065 l 351 1065 b 418 1139 360 1114 382 1139 b 593 1064 483 1139 519 1064 b 692 1169 647 1064 681 1101 l 661 1169 b 593 1096 653 1117 629 1096 b 422 1169 535 1096 499 1169 b 321 1065 368 1169 333 1133 z "},"Ŋ":{"ha":746,"x_min":0,"x_max":0,"o":"m 367 -212 b 557 -31 490 -212 531 -174 l 735 981 l 700 981 l 560 182 l 542 49 l 507 189 l 256 981 l 222 981 l 50 0 l 85 0 l 228 817 l 244 938 l 275 817 l 529 11 l 522 -31 b 369 -182 500 -151 469 -182 l 340 -182 l 336 -212 z "},"Ó":{"ha":725,"x_min":0,"x_max":0,"o":"m 317 -14 b 611 288 496 -14 575 86 l 681 675 b 449 990 715 872 629 990 b 151 682 283 990 190 897 l 86 318 b 317 -14 51 121 114 -14 z m 322 21 b 122 318 136 21 92 140 l 186 674 b 443 958 224 879 304 958 b 646 675 613 958 678 851 l 575 289 b 322 21 543 113 479 21 z m 465 1096 l 500 1096 l 682 1313 l 639 1313 z "},"Ŏ":{"ha":725,"x_min":0,"x_max":0,"o":"m 317 -14 b 611 288 496 -14 575 86 l 681 675 b 449 990 715 872 629 990 b 151 682 283 990 190 897 l 86 318 b 317 -14 51 121 114 -14 z m 322 21 b 122 318 136 21 92 140 l 186 674 b 443 958 224 879 304 958 b 646 675 613 958 678 851 l 575 289 b 322 21 543 113 479 21 z m 488 1083 b 676 1249 594 1083 656 1157 l 644 1249 b 490 1114 625 1172 574 1115 b 386 1249 399 1115 378 1172 l 353 1249 b 488 1083 343 1157 375 1083 z "},"Ô":{"ha":725,"x_min":0,"x_max":0,"o":"m 317 -14 b 611 288 496 -14 575 86 l 681 675 b 449 990 715 872 629 990 b 151 682 283 990 190 897 l 86 318 b 317 -14 51 121 114 -14 z m 322 21 b 122 318 136 21 92 140 l 186 674 b 443 958 224 879 304 958 b 646 675 613 958 678 851 l 575 289 b 322 21 543 113 479 21 z m 590 1088 l 628 1088 l 536 1258 l 503 1258 l 350 1088 l 393 1088 l 517 1228 z "},"Ö":{"ha":725,"x_min":0,"x_max":0,"o":"m 317 -14 b 611 288 496 -14 575 86 l 681 675 b 449 990 715 872 629 990 b 151 682 283 990 190 897 l 86 318 b 317 -14 51 121 114 -14 z m 322 21 b 122 318 136 21 92 140 l 186 674 b 443 958 224 879 304 958 b 646 675 613 958 678 851 l 575 289 b 322 21 543 113 479 21 z m 404 1093 b 451 1136 428 1093 446 1106 b 422 1182 457 1165 447 1182 b 375 1138 397 1182 381 1165 b 404 1093 369 1106 382 1093 z m 564 1093 b 608 1136 586 1093 603 1106 b 581 1182 614 1165 606 1182 b 533 1138 556 1182 539 1165 b 564 1093 528 1106 539 1093 z "},"Ò":{"ha":725,"x_min":0,"x_max":0,"o":"m 317 -14 b 611 288 496 -14 575 86 l 681 675 b 449 990 715 872 629 990 b 151 682 283 990 190 897 l 86 318 b 317 -14 51 121 114 -14 z m 322 21 b 122 318 136 21 92 140 l 186 674 b 443 958 224 879 304 958 b 646 675 613 958 678 851 l 575 289 b 322 21 543 113 479 21 z m 476 1089 l 513 1089 l 424 1263 l 379 1263 z "},"Ő":{"ha":725,"x_min":0,"x_max":0,"o":"m 317 -14 b 611 288 496 -14 575 86 l 681 675 b 449 990 715 872 629 990 b 151 682 283 990 190 897 l 86 318 b 317 -14 51 121 114 -14 z m 322 21 b 122 318 136 21 92 140 l 186 674 b 443 958 224 879 304 958 b 646 675 613 958 678 851 l 575 289 b 322 21 543 113 479 21 z m 593 1263 l 547 1263 l 406 1089 l 440 1089 z m 731 1263 l 683 1263 l 525 1089 l 561 1089 z "},"Ō":{"ha":725,"x_min":0,"x_max":0,"o":"m 317 -14 b 611 288 496 -14 575 86 l 681 675 b 449 990 715 872 629 990 b 151 682 283 990 190 897 l 86 318 b 317 -14 51 121 114 -14 z m 322 21 b 122 318 136 21 92 140 l 186 674 b 443 958 224 879 304 958 b 646 675 613 958 678 851 l 575 289 b 322 21 543 113 479 21 z m 356 1115 l 629 1115 l 635 1149 l 361 1149 z "},"Ø":{"ha":725,"x_min":0,"x_max":0,"o":"m 122 318 l 186 674 b 443 958 224 879 304 958 b 571 928 496 958 539 949 l 164 72 b 122 318 113 124 104 210 z m 322 21 b 188 54 264 21 219 32 l 596 910 b 646 675 649 863 665 782 l 575 289 b 322 21 543 113 479 21 z m 317 -14 b 611 288 496 -14 575 86 l 681 675 b 611 942 703 797 676 890 l 690 1103 l 658 1103 l 586 958 b 449 990 550 979 503 990 b 151 682 283 990 190 897 l 86 318 b 147 38 64 193 81 93 l 69 -125 l 101 -125 l 171 21 b 317 -14 208 -1 256 -14 z "},"Ǿ":{"ha":725,"x_min":0,"x_max":0,"o":"m 122 318 l 186 674 b 443 958 224 879 304 958 b 571 928 496 958 539 949 l 164 72 b 122 318 113 124 104 210 z m 322 21 b 188 54 264 21 219 32 l 596 910 b 646 675 649 863 665 782 l 575 289 b 322 21 543 113 479 21 z m 317 -14 b 611 288 496 -14 575 86 l 681 675 b 611 942 703 797 676 890 l 690 1103 l 658 1103 l 586 958 b 449 990 550 979 503 990 b 151 682 283 990 190 897 l 86 318 b 147 38 64 193 81 93 l 69 -125 l 101 -125 l 171 21 b 317 -14 208 -1 256 -14 z m 471 1101 l 506 1101 l 688 1318 l 644 1318 z "},"Õ":{"ha":725,"x_min":0,"x_max":0,"o":"m 317 -14 b 611 288 496 -14 575 86 l 681 675 b 449 990 715 872 629 990 b 151 682 283 990 190 897 l 86 318 b 317 -14 51 121 114 -14 z m 322 21 b 122 318 136 21 92 140 l 186 674 b 443 958 224 879 304 958 b 646 675 613 958 678 851 l 575 289 b 322 21 543 113 479 21 z m 310 1092 l 340 1092 b 407 1165 349 1140 371 1165 b 582 1090 472 1165 508 1090 b 681 1196 636 1090 669 1128 l 650 1196 b 582 1122 642 1143 618 1122 b 411 1196 524 1122 488 1196 b 310 1092 357 1196 322 1160 z "},"Œ":{"ha":1083,"x_min":0,"x_max":0,"o":"m 322 21 b 122 318 136 21 92 140 l 186 674 b 439 958 224 879 301 958 b 644 668 613 958 676 844 l 575 289 b 322 21 543 113 479 21 z m 525 0 l 965 0 l 971 33 l 564 33 l 646 496 l 988 496 l 994 529 l 651 529 l 725 947 l 1121 947 l 1126 981 l 697 981 l 667 807 b 443 990 653 924 581 990 b 151 682 283 990 190 897 l 86 318 b 318 -14 51 121 115 -14 b 549 139 443 -14 508 39 z "},"Ŕ":{"ha":678,"x_min":0,"x_max":0,"o":"m 453 947 b 624 742 604 947 647 865 l 608 664 b 371 478 585 538 504 478 l 169 478 l 251 947 z m 364 447 b 526 258 507 447 550 389 l 492 63 b 494 0 488 38 488 13 l 536 0 b 526 63 525 13 522 38 l 561 258 b 454 463 583 374 556 440 b 643 656 561 481 622 540 l 658 733 b 458 981 686 882 625 981 l 222 981 l 50 0 l 85 0 l 164 447 z m 458 1079 l 493 1079 l 675 1296 l 632 1296 z "},"Ř":{"ha":678,"x_min":0,"x_max":0,"o":"m 453 947 b 624 742 604 947 647 865 l 608 664 b 371 478 585 538 504 478 l 169 478 l 251 947 z m 364 447 b 526 258 507 447 550 389 l 492 63 b 494 0 488 38 488 13 l 536 0 b 526 63 525 13 522 38 l 561 258 b 454 463 583 374 556 440 b 643 656 561 481 622 540 l 658 733 b 458 981 686 882 625 981 l 222 981 l 50 0 l 85 0 l 164 447 z m 490 1076 l 647 1243 l 603 1243 l 481 1108 l 411 1243 l 371 1243 l 463 1076 z "},"Ŗ":{"ha":678,"x_min":0,"x_max":0,"o":"m 453 947 b 624 742 604 947 647 865 l 608 664 b 371 478 585 538 504 478 l 169 478 l 251 947 z m 364 447 b 526 258 507 447 550 389 l 492 63 b 494 0 488 38 488 13 l 536 0 b 526 63 525 13 522 38 l 561 258 b 454 463 583 374 556 440 b 643 656 561 481 622 540 l 658 733 b 458 981 686 882 625 981 l 222 981 l 50 0 l 85 0 l 164 447 z m 204 -281 b 306 -139 254 -249 294 -199 b 275 -72 314 -92 301 -72 b 228 -118 251 -72 233 -89 b 253 -160 222 -150 236 -160 b 272 -150 260 -160 267 -156 b 190 -261 260 -200 228 -237 z "},"Ś":{"ha":647,"x_min":0,"x_max":0,"o":"m 292 -14 b 560 211 456 -14 535 75 l 563 231 b 369 518 586 393 476 457 b 188 768 267 576 165 632 l 190 785 b 403 958 210 900 294 958 b 607 743 567 958 629 864 l 597 689 l 632 689 l 642 744 b 404 989 664 882 588 989 b 156 788 279 989 178 919 l 153 771 b 338 497 126 619 232 557 b 528 236 442 438 547 379 l 525 218 b 288 21 506 100 439 21 b 83 264 131 21 54 104 l 94 324 l 58 324 l 47 264 b 292 -14 13 86 107 -14 z m 431 1090 l 465 1090 l 647 1307 l 604 1307 z "},"Š":{"ha":647,"x_min":0,"x_max":0,"o":"m 292 -14 b 560 211 456 -14 535 75 l 563 231 b 369 518 586 393 476 457 b 188 768 267 576 165 632 l 190 785 b 403 958 210 900 294 958 b 607 743 567 958 629 864 l 597 689 l 632 689 l 642 744 b 404 989 664 882 588 989 b 156 788 279 989 178 919 l 153 771 b 338 497 126 619 232 557 b 528 236 442 438 547 379 l 525 218 b 288 21 506 100 439 21 b 83 264 131 21 54 104 l 94 324 l 58 324 l 47 264 b 292 -14 13 86 107 -14 z m 463 1088 l 619 1254 l 575 1254 l 453 1119 l 383 1254 l 343 1254 l 435 1088 z "},"Ş":{"ha":647,"x_min":0,"x_max":0,"o":"m 225 -272 b 365 -185 304 -272 356 -237 b 263 -85 376 -121 339 -87 l 275 -14 l 292 -14 b 560 211 456 -14 535 75 l 563 231 b 369 518 586 393 476 457 b 188 768 267 576 165 632 l 190 785 b 403 958 210 900 294 958 b 607 743 567 958 629 864 l 597 689 l 632 689 l 642 744 b 404 989 664 882 588 989 b 156 788 279 989 178 919 l 153 771 b 338 497 126 619 232 557 b 528 236 442 438 547 379 l 525 218 b 288 21 506 100 439 21 b 83 264 131 21 54 104 l 94 324 l 58 324 l 47 264 b 240 -11 15 103 90 6 l 224 -114 l 242 -114 b 329 -181 313 -114 339 -132 b 226 -240 322 -221 285 -240 b 138 -168 171 -240 135 -219 l 101 -168 b 225 -272 99 -236 144 -272 z "},"Ŝ":{"ha":647,"x_min":0,"x_max":0,"o":"m 292 -14 b 560 211 456 -14 535 75 l 563 231 b 369 518 586 393 476 457 b 188 768 267 576 165 632 l 190 785 b 403 958 210 900 294 958 b 607 743 567 958 629 864 l 597 689 l 632 689 l 642 744 b 404 989 664 882 588 989 b 156 788 279 989 178 919 l 153 771 b 338 497 126 619 232 557 b 528 236 442 438 547 379 l 525 218 b 288 21 506 100 439 21 b 83 264 131 21 54 104 l 94 324 l 58 324 l 47 264 b 292 -14 13 86 107 -14 z m 553 1083 l 590 1083 l 499 1254 l 465 1254 l 313 1083 l 356 1083 l 479 1224 z "},"Ș":{"ha":647,"x_min":0,"x_max":0,"o":"m 292 -14 b 560 211 456 -14 535 75 l 563 231 b 369 518 586 393 476 457 b 188 768 267 576 165 632 l 190 785 b 403 958 210 900 294 958 b 607 743 567 958 629 864 l 597 689 l 632 689 l 642 744 b 404 989 664 882 588 989 b 156 788 279 989 178 919 l 153 771 b 338 497 126 619 232 557 b 528 236 442 438 547 379 l 525 218 b 288 21 506 100 439 21 b 83 264 131 21 54 104 l 94 324 l 58 324 l 47 264 b 292 -14 13 86 107 -14 z m 176 -304 b 278 -162 226 -272 267 -222 b 247 -96 286 -115 274 -96 b 200 -142 224 -96 206 -112 b 225 -183 194 -174 208 -183 b 244 -174 232 -183 239 -179 b 163 -285 232 -224 200 -261 z "},"Ŧ":{"ha":546,"x_min":0,"x_max":0,"o":"m 426 469 l 432 501 l 308 501 l 388 947 l 604 947 l 610 981 l 147 981 l 142 947 l 353 947 l 274 501 l 149 501 l 143 469 l 268 469 l 185 0 l 219 0 l 303 469 z "},"Ť":{"ha":546,"x_min":0,"x_max":0,"o":"m 604 947 l 610 981 l 147 981 l 142 947 l 353 947 l 185 0 l 219 0 l 388 947 z m 404 1078 l 561 1244 l 517 1244 l 394 1110 l 325 1244 l 285 1244 l 376 1078 z "},"Ţ":{"ha":546,"x_min":0,"x_max":0,"o":"m 604 947 l 610 981 l 147 981 l 142 947 l 353 947 l 185 0 l 219 0 l 388 947 z m 119 -290 b 221 -149 169 -258 210 -208 b 190 -82 229 -101 217 -82 b 143 -128 167 -82 149 -99 b 168 -169 138 -160 151 -169 b 188 -160 175 -169 182 -165 b 106 -271 175 -210 143 -247 z "},"Ú":{"ha":697,"x_min":0,"x_max":0,"o":"m 294 -14 b 568 264 463 -14 536 82 l 694 981 l 660 981 l 536 278 b 300 19 507 115 449 19 b 128 293 140 19 99 125 l 249 981 l 214 981 l 93 296 b 294 -14 60 107 111 -14 z m 447 1067 l 482 1067 l 664 1283 l 621 1283 z "},"Ŭ":{"ha":697,"x_min":0,"x_max":0,"o":"m 294 -14 b 568 264 463 -14 536 82 l 694 981 l 660 981 l 536 278 b 300 19 507 115 449 19 b 128 293 140 19 99 125 l 249 981 l 214 981 l 93 296 b 294 -14 60 107 111 -14 z m 468 1061 b 657 1226 575 1061 636 1135 l 625 1226 b 471 1092 606 1150 554 1093 b 367 1226 379 1093 358 1150 l 333 1226 b 468 1061 324 1135 356 1061 z "},"Û":{"ha":697,"x_min":0,"x_max":0,"o":"m 294 -14 b 568 264 463 -14 536 82 l 694 981 l 660 981 l 536 278 b 300 19 507 115 449 19 b 128 293 140 19 99 125 l 249 981 l 214 981 l 93 296 b 294 -14 60 107 111 -14 z m 571 1065 l 608 1065 l 517 1236 l 483 1236 l 331 1065 l 374 1065 l 497 1206 z "},"Ü":{"ha":697,"x_min":0,"x_max":0,"o":"m 294 -14 b 568 264 463 -14 536 82 l 694 981 l 660 981 l 536 278 b 300 19 507 115 449 19 b 128 293 140 19 99 125 l 249 981 l 214 981 l 93 296 b 294 -14 60 107 111 -14 z m 385 1071 b 432 1114 408 1071 426 1083 b 403 1160 438 1143 428 1160 b 356 1115 378 1160 361 1143 b 385 1071 350 1083 363 1071 z m 544 1071 b 589 1114 567 1071 583 1083 b 561 1160 594 1143 586 1160 b 514 1115 536 1160 519 1143 b 544 1071 508 1083 519 1071 z "},"Ù":{"ha":697,"x_min":0,"x_max":0,"o":"m 294 -14 b 568 264 463 -14 536 82 l 694 981 l 660 981 l 536 278 b 300 19 507 115 449 19 b 128 293 140 19 99 125 l 249 981 l 214 981 l 93 296 b 294 -14 60 107 111 -14 z m 456 1067 l 492 1067 l 403 1240 l 358 1240 z "},"Ű":{"ha":697,"x_min":0,"x_max":0,"o":"m 294 -14 b 568 264 463 -14 536 82 l 694 981 l 660 981 l 536 278 b 300 19 507 115 449 19 b 128 293 140 19 99 125 l 249 981 l 214 981 l 93 296 b 294 -14 60 107 111 -14 z m 574 1240 l 528 1240 l 386 1067 l 421 1067 z m 711 1240 l 664 1240 l 506 1067 l 542 1067 z "},"Ū":{"ha":697,"x_min":0,"x_max":0,"o":"m 294 -14 b 568 264 463 -14 536 82 l 694 981 l 660 981 l 536 278 b 300 19 507 115 449 19 b 128 293 140 19 99 125 l 249 981 l 214 981 l 93 296 b 294 -14 60 107 111 -14 z m 336 1093 l 610 1093 l 615 1126 l 342 1126 z "},"Ų":{"ha":697,"x_min":0,"x_max":0,"o":"m 326 -236 b 485 -136 401 -236 453 -201 l 446 -136 b 329 -204 421 -183 383 -204 b 246 -124 269 -204 239 -167 b 363 -8 251 -83 290 -50 b 568 264 483 17 540 108 l 694 981 l 660 981 l 536 278 b 368 28 513 143 468 54 b 300 19 340 21 325 19 b 128 293 140 19 99 125 l 249 981 l 214 981 l 93 296 b 294 -14 60 107 111 -14 l 299 -14 b 213 -121 250 -47 219 -82 b 326 -236 201 -181 242 -236 z "},"Ů":{"ha":697,"x_min":0,"x_max":0,"o":"m 294 -14 b 568 264 463 -14 536 82 l 694 981 l 660 981 l 536 278 b 300 19 507 115 449 19 b 128 293 140 19 99 125 l 249 981 l 214 981 l 93 296 b 294 -14 60 107 111 -14 z m 472 1058 b 590 1158 538 1058 579 1097 b 494 1275 601 1221 563 1275 b 374 1176 433 1275 385 1238 b 472 1058 363 1114 404 1058 z m 475 1090 b 407 1172 425 1090 400 1128 b 492 1243 415 1218 447 1243 b 558 1163 542 1243 567 1204 b 475 1090 549 1115 522 1090 z "},"Ũ":{"ha":697,"x_min":0,"x_max":0,"o":"m 294 -14 b 568 264 463 -14 536 82 l 694 981 l 660 981 l 536 278 b 300 19 507 115 449 19 b 128 293 140 19 99 125 l 249 981 l 214 981 l 93 296 b 294 -14 60 107 111 -14 z m 289 1069 l 319 1069 b 386 1143 328 1118 350 1143 b 561 1068 451 1143 488 1068 b 660 1174 615 1068 649 1106 l 629 1174 b 561 1100 621 1121 597 1100 b 390 1174 503 1100 467 1174 b 289 1069 336 1174 301 1138 z "},"Ẃ":{"ha":951,"x_min":0,"x_max":0,"o":"m 557 899 l 567 933 l 564 899 l 617 0 l 650 0 l 997 981 l 964 981 l 654 100 l 639 46 l 642 106 l 588 981 l 561 981 l 186 106 l 167 50 l 174 103 l 197 981 l 165 981 l 140 0 l 174 0 z m 572 1081 l 607 1081 l 789 1297 l 746 1297 z "},"Ŵ":{"ha":951,"x_min":0,"x_max":0,"o":"m 557 899 l 567 933 l 564 899 l 617 0 l 650 0 l 997 981 l 964 981 l 654 100 l 639 46 l 642 106 l 588 981 l 561 981 l 186 106 l 167 50 l 174 103 l 197 981 l 165 981 l 140 0 l 174 0 z m 696 1079 l 733 1079 l 642 1250 l 608 1250 l 456 1079 l 499 1079 l 622 1219 z "},"Ẅ":{"ha":951,"x_min":0,"x_max":0,"o":"m 557 899 l 567 933 l 564 899 l 617 0 l 650 0 l 997 981 l 964 981 l 654 100 l 639 46 l 642 106 l 588 981 l 561 981 l 186 106 l 167 50 l 174 103 l 197 981 l 165 981 l 140 0 l 174 0 z m 510 1085 b 557 1128 533 1085 551 1097 b 528 1174 563 1157 553 1174 b 481 1129 503 1174 486 1157 b 510 1085 475 1097 488 1085 z m 669 1085 b 714 1128 692 1085 708 1097 b 686 1174 719 1157 711 1174 b 639 1129 661 1174 644 1157 b 669 1085 633 1097 644 1085 z "},"Ẁ":{"ha":951,"x_min":0,"x_max":0,"o":"m 557 899 l 567 933 l 564 899 l 617 0 l 650 0 l 997 981 l 964 981 l 654 100 l 639 46 l 642 106 l 588 981 l 561 981 l 186 106 l 167 50 l 174 103 l 197 981 l 165 981 l 140 0 l 174 0 z m 581 1081 l 617 1081 l 528 1254 l 483 1254 z "},"Ý":{"ha":613,"x_min":0,"x_max":0,"o":"m 250 0 l 313 350 l 671 981 l 632 981 l 336 453 l 299 374 l 290 450 l 189 981 l 153 981 l 278 351 l 215 0 z m 403 1074 l 438 1074 l 619 1290 l 576 1290 z "},"Ŷ":{"ha":613,"x_min":0,"x_max":0,"o":"m 250 0 l 313 350 l 671 981 l 632 981 l 336 453 l 299 374 l 290 450 l 189 981 l 153 981 l 278 351 l 215 0 z m 526 1072 l 564 1072 l 472 1243 l 439 1243 l 286 1072 l 329 1072 l 453 1213 z "},"Ÿ":{"ha":613,"x_min":0,"x_max":0,"o":"m 250 0 l 313 350 l 671 981 l 632 981 l 336 453 l 299 374 l 290 450 l 189 981 l 153 981 l 278 351 l 215 0 z m 340 1078 b 388 1121 364 1078 382 1090 b 358 1167 393 1150 383 1167 b 311 1122 333 1167 317 1150 b 340 1078 306 1090 318 1078 z m 500 1078 b 544 1121 522 1078 539 1090 b 517 1167 550 1150 542 1167 b 469 1122 492 1167 475 1150 b 500 1078 464 1090 475 1078 z "},"Ỳ":{"ha":613,"x_min":0,"x_max":0,"o":"m 250 0 l 313 350 l 671 981 l 632 981 l 336 453 l 299 374 l 290 450 l 189 981 l 153 981 l 278 351 l 215 0 z m 413 1074 l 449 1074 l 360 1247 l 315 1247 z "},"Ĳ":{"ha":863,"x_min":0,"x_max":0,"o":"m 428 0 l 500 0 b 731 238 643 0 703 79 l 863 981 l 828 981 l 696 238 b 497 33 671 97 621 33 l 433 33 z m 315 0 l 321 33 l 168 33 l 331 947 l 482 947 l 488 981 l 150 981 l 144 947 l 296 947 l 133 33 l -17 33 l -22 0 z "},"Ź":{"ha":578,"x_min":0,"x_max":0,"o":"m 457 0 l 463 35 l 31 35 l 613 950 l 618 981 l 186 981 l 181 947 l 572 947 l -11 32 l -17 0 z m 397 1081 l 432 1081 l 614 1297 l 571 1297 z "},"Ž":{"ha":578,"x_min":0,"x_max":0,"o":"m 457 0 l 463 35 l 31 35 l 613 950 l 618 981 l 186 981 l 181 947 l 572 947 l -11 32 l -17 0 z m 429 1078 l 586 1244 l 542 1244 l 419 1110 l 350 1244 l 310 1244 l 401 1078 z "},"Ż":{"ha":578,"x_min":0,"x_max":0,"o":"m 457 0 l 463 35 l 31 35 l 613 950 l 618 981 l 186 981 l 181 947 l 572 947 l -11 32 l -17 0 z m 415 1079 b 465 1126 440 1079 458 1093 b 433 1178 471 1158 460 1178 b 382 1128 406 1178 388 1160 b 415 1079 375 1093 389 1079 z "},"Þ":{"ha":639,"x_min":0,"x_max":0,"o":"m 382 776 b 560 549 539 776 582 676 l 546 467 b 308 246 522 331 457 244 l 128 246 l 221 776 z m 307 213 b 579 456 481 211 554 311 l 594 543 b 389 810 622 694 561 810 l 226 810 l 257 981 l 222 981 l 50 0 l 85 0 l 122 213 z "},"a":{"ha":661,"x_min":0,"x_max":0,"o":"m 225 21 b 71 194 101 21 53 92 l 72 200 b 174 347 85 272 125 317 b 363 424 222 378 264 392 b 557 535 461 456 529 468 l 507 300 b 225 21 472 128 360 21 z m 486 183 b 574 0 456 51 476 0 l 592 0 l 597 31 l 579 31 b 518 197 508 31 489 57 l 599 585 b 392 797 624 707 556 797 b 124 582 240 797 150 719 l 114 531 l 149 531 l 157 578 b 390 765 181 707 261 765 b 565 586 544 765 586 688 b 353 451 547 496 446 482 b 157 374 250 418 206 404 b 36 201 99 338 51 288 l 33 189 b 221 -14 13 68 75 -14 b 488 192 329 -14 433 49 z "},"b":{"ha":692,"x_min":0,"x_max":0,"o":"m 317 -12 b 579 247 475 -12 551 86 l 624 499 b 406 797 656 669 581 797 b 188 649 303 797 231 744 l 257 1047 l 225 1047 l 42 0 l 67 0 l 103 165 b 317 -12 113 61 179 -12 z m 319 21 b 126 301 140 21 97 138 l 167 532 b 406 765 193 685 283 765 b 590 504 551 765 618 661 l 544 249 b 319 21 519 110 453 21 z "},"c":{"ha":643,"x_min":0,"x_max":0,"o":"m 288 -12 b 539 218 440 -12 511 65 l 550 275 l 514 275 l 503 219 b 290 21 479 89 418 21 b 100 288 118 21 74 135 l 149 558 b 375 765 174 692 251 765 b 557 529 526 765 585 679 l 550 492 l 586 492 l 592 522 b 378 797 622 699 544 797 b 113 556 231 797 140 710 l 67 293 b 288 -12 36 115 89 -12 z "},"d":{"ha":685,"x_min":0,"x_max":0,"o":"m 278 19 b 99 279 136 19 69 118 l 143 524 b 372 763 168 663 239 763 b 563 482 543 763 592 646 l 522 254 b 278 19 496 101 401 19 z m 485 0 l 510 0 l 693 1047 l 661 1047 l 586 618 b 375 796 576 722 513 796 b 108 525 217 796 138 686 l 65 285 b 278 -14 33 110 99 -14 b 503 140 382 -14 457 42 z "},"e":{"ha":649,"x_min":0,"x_max":0,"o":"m 147 558 b 374 765 172 692 256 765 b 558 514 524 765 586 671 l 540 417 l 122 417 z m 543 232 l 549 264 l 513 264 l 508 236 b 286 21 485 92 421 21 b 99 288 115 21 72 135 l 117 386 l 569 386 l 592 508 b 374 797 624 679 549 797 b 113 556 235 797 140 710 l 67 293 b 283 -12 36 115 90 -12 b 543 232 440 -12 514 74 z "},"f":{"ha":367,"x_min":0,"x_max":0,"o":"m 407 753 l 413 783 l 242 783 l 251 842 b 418 1024 279 999 308 1024 l 454 1024 l 461 1056 l 421 1056 b 218 843 289 1056 247 1015 l 207 783 l 90 783 l 85 753 l 203 753 l 69 0 l 104 0 l 236 753 z "},"g":{"ha":685,"x_min":0,"x_max":0,"o":"m 278 19 b 99 279 136 19 69 118 l 143 524 b 372 763 168 663 239 763 b 563 482 543 763 592 646 l 522 254 b 278 19 496 101 401 19 z m 242 -283 b 500 -51 390 -283 472 -201 l 647 783 l 625 783 l 586 611 b 375 796 579 718 515 796 b 108 525 217 796 136 686 l 65 285 b 278 -14 33 110 99 -14 b 501 139 382 -14 457 40 l 469 -46 b 243 -250 444 -176 376 -250 b 49 -94 110 -250 54 -193 l 10 -94 b 242 -283 18 -212 82 -283 z "},"h":{"ha":681,"x_min":0,"x_max":0,"o":"m 163 499 b 408 765 192 668 271 765 b 571 539 542 765 596 682 l 476 0 l 511 0 l 604 532 b 413 797 633 697 565 797 b 185 635 297 797 225 733 l 257 1047 l 225 1047 l 42 0 l 75 0 z "},"i":{"ha":251,"x_min":0,"x_max":0,"o":"m 217 894 b 254 938 238 894 247 906 b 231 978 260 964 253 978 b 192 936 208 978 199 967 b 217 894 186 908 196 894 z m 76 0 l 214 783 l 179 783 l 42 0 z "},"j":{"ha":256,"x_min":0,"x_max":0,"o":"m 221 894 b 258 938 242 894 251 906 b 235 978 264 964 257 978 b 196 936 213 978 203 967 b 221 894 190 908 200 894 z m -111 -210 b 74 -28 11 -210 49 -171 l 217 783 l 182 783 l 39 -28 b -111 -179 18 -149 -12 -179 l -140 -179 l -146 -210 z "},"k":{"ha":610,"x_min":0,"x_max":0,"o":"m 468 0 l 507 0 l 361 503 l 619 783 l 578 783 l 126 296 l 132 325 l 258 1047 l 225 1047 l 42 0 l 75 0 l 118 246 l 333 478 z "},"l":{"ha":254,"x_min":0,"x_max":0,"o":"m 43 0 l 78 0 l 261 1047 l 226 1047 z "},"m":{"ha":1017,"x_min":0,"x_max":0,"o":"m 165 506 b 389 765 192 658 264 765 b 524 554 513 765 546 681 l 426 0 l 461 0 l 558 554 b 767 765 578 664 643 765 b 907 546 888 765 932 686 l 811 0 l 846 0 l 942 547 b 772 797 969 707 910 797 b 557 632 665 797 594 733 b 393 797 556 733 508 797 b 183 636 293 797 224 735 l 204 783 l 179 783 l 42 0 l 76 0 z "},"n":{"ha":681,"x_min":0,"x_max":0,"o":"m 164 499 b 408 765 193 668 271 765 b 571 539 542 765 596 682 l 476 0 l 511 0 l 604 532 b 413 797 633 697 565 797 b 182 628 294 797 221 731 l 204 783 l 179 783 l 42 0 l 76 0 z "},"o":{"ha":668,"x_min":0,"x_max":0,"o":"m 286 -12 b 553 233 443 -12 525 76 l 601 508 b 376 797 633 679 551 797 b 113 556 233 797 140 710 l 67 293 b 286 -12 36 115 92 -12 z m 289 21 b 100 288 121 21 74 135 l 149 558 b 376 765 174 692 254 765 b 568 514 522 765 596 671 l 518 235 b 289 21 494 100 421 21 z "},"p":{"ha":692,"x_min":0,"x_max":0,"o":"m 319 21 b 126 301 140 21 97 138 l 167 532 b 406 765 193 685 283 765 b 590 504 551 765 618 661 l 544 249 b 319 21 519 110 453 21 z m 317 -12 b 579 247 475 -12 551 86 l 624 499 b 406 797 656 669 581 797 b 183 642 300 797 228 742 l 204 783 l 179 783 l -8 -278 l 24 -278 l 103 167 b 317 -12 111 61 176 -12 z "},"q":{"ha":685,"x_min":0,"x_max":0,"o":"m 460 -278 l 647 783 l 625 783 l 586 611 b 375 796 579 718 515 796 b 108 525 217 796 136 686 l 65 285 b 278 -14 33 110 99 -14 b 501 138 382 -14 457 40 l 428 -278 z m 278 19 b 99 279 136 19 69 118 l 143 524 b 372 763 168 663 239 763 b 563 482 543 763 592 646 l 522 254 b 278 19 496 101 401 19 z "},"r":{"ha":422,"x_min":0,"x_max":0,"o":"m 75 0 l 158 478 b 418 750 190 667 261 750 l 451 750 l 457 783 l 425 783 b 185 636 303 783 229 735 l 204 783 l 179 783 l 42 0 z "},"s":{"ha":618,"x_min":0,"x_max":0,"o":"m 267 -14 b 510 175 404 -14 486 49 b 332 417 535 317 432 368 b 165 621 238 463 144 506 b 358 765 181 711 249 765 b 536 593 489 765 553 696 l 528 543 l 561 543 l 568 583 b 363 797 592 718 503 797 b 132 624 233 797 151 735 b 306 390 107 488 207 440 b 475 175 401 342 497 297 b 271 21 458 85 397 21 b 75 210 132 21 54 93 l 86 271 l 51 271 l 40 211 b 267 -14 15 75 114 -14 z "},"t":{"ha":393,"x_min":0,"x_max":0,"o":"m 290 33 l 258 33 b 140 218 143 33 114 64 l 235 753 l 417 753 l 422 783 l 240 783 l 269 947 l 240 947 l 219 840 b 150 782 208 786 200 782 l 96 782 l 90 753 l 201 753 l 107 218 b 251 0 76 40 113 0 l 285 0 z "},"u":{"ha":660,"x_min":0,"x_max":0,"o":"m 460 0 l 485 0 l 622 783 l 588 783 l 500 285 b 265 18 471 115 399 18 b 114 244 140 18 89 101 l 208 783 l 174 783 l 81 251 b 261 -14 51 86 117 -14 b 482 153 375 -14 443 51 z "},"v":{"ha":635,"x_min":0,"x_max":0,"o":"m 265 0 l 657 783 l 619 783 l 264 67 l 256 49 l 254 68 l 154 783 l 119 783 l 233 0 z "},"w":{"ha":883,"x_min":0,"x_max":0,"o":"m 479 672 l 501 732 l 503 674 l 560 0 l 592 0 l 900 783 l 865 783 l 603 106 l 581 42 l 581 107 l 522 783 l 499 783 l 192 106 l 167 42 l 171 106 l 158 783 l 125 783 l 142 0 l 174 0 z "},"x":{"ha":565,"x_min":0,"x_max":0,"o":"m 275 369 l 289 392 l 294 369 l 426 0 l 465 0 l 313 418 l 585 783 l 543 783 l 310 464 l 297 446 l 290 464 l 174 783 l 135 783 l 275 422 l -33 0 l 8 0 z "},"y":{"ha":633,"x_min":0,"x_max":0,"o":"m 1 -210 b 244 -42 131 -210 175 -181 l 657 783 l 619 783 l 286 111 l 253 31 l 247 117 l 154 783 l 119 783 l 232 4 l 214 -37 b 6 -178 149 -157 114 -178 l -17 -178 l -22 -210 z "},"z":{"ha":556,"x_min":0,"x_max":0,"o":"m 439 0 l 444 33 l 26 33 l 574 753 l 579 783 l 143 783 l 138 751 l 533 751 l -17 28 l -21 0 z "},"á":{"ha":660,"x_min":0,"x_max":0,"o":"m 225 21 b 71 194 101 21 53 92 l 72 200 b 174 347 85 272 125 317 b 363 424 222 378 264 392 b 557 535 461 456 529 468 l 507 300 b 225 21 472 128 360 21 z m 486 183 b 574 0 456 51 476 0 l 592 0 l 597 31 l 579 31 b 518 197 508 31 489 57 l 599 585 b 392 797 624 707 556 797 b 124 582 240 797 150 719 l 114 531 l 149 531 l 157 578 b 390 765 181 707 261 765 b 565 586 544 765 586 688 b 353 451 547 496 446 482 b 157 374 250 418 206 404 b 36 201 99 338 51 288 l 33 189 b 221 -14 13 68 75 -14 b 488 192 329 -14 433 49 z m 400 897 l 435 897 l 617 1114 l 574 1114 z "},"ă":{"ha":660,"x_min":0,"x_max":0,"o":"m 225 21 b 71 194 101 21 53 92 l 72 200 b 174 347 85 272 125 317 b 363 424 222 378 264 392 b 557 535 461 456 529 468 l 507 300 b 225 21 472 128 360 21 z m 486 183 b 574 0 456 51 476 0 l 592 0 l 597 31 l 579 31 b 518 197 508 31 489 57 l 599 585 b 392 797 624 707 556 797 b 124 582 240 797 150 719 l 114 531 l 149 531 l 157 578 b 390 765 181 707 261 765 b 565 586 544 765 586 688 b 353 451 547 496 446 482 b 157 374 250 418 206 404 b 36 201 99 338 51 288 l 33 189 b 221 -14 13 68 75 -14 b 488 192 329 -14 433 49 z m 421 892 b 610 1057 528 892 589 965 l 578 1057 b 424 922 558 981 507 924 b 319 1057 332 924 311 981 l 286 1057 b 421 892 276 965 308 892 z "},"â":{"ha":660,"x_min":0,"x_max":0,"o":"m 225 21 b 71 194 101 21 53 92 l 72 200 b 174 347 85 272 125 317 b 363 424 222 378 264 392 b 557 535 461 456 529 468 l 507 300 b 225 21 472 128 360 21 z m 486 183 b 574 0 456 51 476 0 l 592 0 l 597 31 l 579 31 b 518 197 508 31 489 57 l 599 585 b 392 797 624 707 556 797 b 124 582 240 797 150 719 l 114 531 l 149 531 l 157 578 b 390 765 181 707 261 765 b 565 586 544 765 586 688 b 353 451 547 496 446 482 b 157 374 250 418 206 404 b 36 201 99 338 51 288 l 33 189 b 221 -14 13 68 75 -14 b 488 192 329 -14 433 49 z m 524 896 l 561 896 l 469 1067 l 436 1067 l 283 896 l 326 896 l 450 1036 z "},"ä":{"ha":660,"x_min":0,"x_max":0,"o":"m 225 21 b 71 194 101 21 53 92 l 72 200 b 174 347 85 272 125 317 b 363 424 222 378 264 392 b 557 535 461 456 529 468 l 507 300 b 225 21 472 128 360 21 z m 486 183 b 574 0 456 51 476 0 l 592 0 l 597 31 l 579 31 b 518 197 508 31 489 57 l 599 585 b 392 797 624 707 556 797 b 124 582 240 797 150 719 l 114 531 l 149 531 l 157 578 b 390 765 181 707 261 765 b 565 586 544 765 586 688 b 353 451 547 496 446 482 b 157 374 250 418 206 404 b 36 201 99 338 51 288 l 33 189 b 221 -14 13 68 75 -14 b 488 192 329 -14 433 49 z m 338 901 b 385 944 361 901 379 914 b 356 990 390 974 381 990 b 308 946 331 990 314 974 b 338 901 303 914 315 901 z m 497 901 b 542 944 519 901 536 914 b 514 990 547 974 539 990 b 467 946 489 990 472 974 b 497 901 461 914 472 901 z "},"à":{"ha":660,"x_min":0,"x_max":0,"o":"m 225 21 b 71 194 101 21 53 92 l 72 200 b 174 347 85 272 125 317 b 363 424 222 378 264 392 b 557 535 461 456 529 468 l 507 300 b 225 21 472 128 360 21 z m 486 183 b 574 0 456 51 476 0 l 592 0 l 597 31 l 579 31 b 518 197 508 31 489 57 l 599 585 b 392 797 624 707 556 797 b 124 582 240 797 150 719 l 114 531 l 149 531 l 157 578 b 390 765 181 707 261 765 b 565 586 544 765 586 688 b 353 451 547 496 446 482 b 157 374 250 418 206 404 b 36 201 99 338 51 288 l 33 189 b 221 -14 13 68 75 -14 b 488 192 329 -14 433 49 z m 408 897 l 444 897 l 356 1071 l 311 1071 z "},"ā":{"ha":660,"x_min":0,"x_max":0,"o":"m 225 21 b 71 194 101 21 53 92 l 72 200 b 174 347 85 272 125 317 b 363 424 222 378 264 392 b 557 535 461 456 529 468 l 507 300 b 225 21 472 128 360 21 z m 486 183 b 574 0 456 51 476 0 l 592 0 l 597 31 l 579 31 b 518 197 508 31 489 57 l 599 585 b 392 797 624 707 556 797 b 124 582 240 797 150 719 l 114 531 l 149 531 l 157 578 b 390 765 181 707 261 765 b 565 586 544 765 586 688 b 353 451 547 496 446 482 b 157 374 250 418 206 404 b 36 201 99 338 51 288 l 33 189 b 221 -14 13 68 75 -14 b 488 192 329 -14 433 49 z m 289 924 l 563 924 l 568 957 l 294 957 z "},"ą":{"ha":660,"x_min":0,"x_max":0,"o":"m 225 21 b 71 194 101 21 53 92 l 72 200 b 174 347 85 272 125 317 b 363 424 222 378 264 392 b 557 535 461 456 529 468 l 507 300 b 225 21 472 128 360 21 z m 688 -143 l 649 -143 b 532 -211 624 -190 586 -211 b 449 -131 472 -211 442 -174 b 592 0 456 -86 501 -49 l 597 31 l 579 31 b 518 197 508 31 489 57 l 599 585 b 392 797 624 707 556 797 b 124 582 240 797 150 719 l 114 531 l 149 531 l 157 578 b 390 765 181 707 261 765 b 565 586 544 765 586 688 b 353 451 547 496 446 482 b 157 374 250 418 206 404 b 36 201 99 338 51 288 l 33 189 b 221 -14 13 68 75 -14 b 488 192 329 -14 433 49 l 486 183 b 539 3 460 69 472 15 b 415 -128 468 -39 424 -79 b 529 -243 404 -187 444 -243 b 688 -143 604 -243 656 -208 z "},"å":{"ha":660,"x_min":0,"x_max":0,"o":"m 225 21 b 71 194 101 21 53 92 l 72 200 b 174 347 85 272 125 317 b 363 424 222 378 264 392 b 557 535 461 456 529 468 l 507 300 b 225 21 472 128 360 21 z m 486 183 b 574 0 456 51 476 0 l 592 0 l 597 31 l 579 31 b 518 197 508 31 489 57 l 599 585 b 392 797 624 707 556 797 b 124 582 240 797 150 719 l 114 531 l 149 531 l 157 578 b 390 765 181 707 261 765 b 565 586 544 765 586 688 b 353 451 547 496 446 482 b 157 374 250 418 206 404 b 36 201 99 338 51 288 l 33 189 b 221 -14 13 68 75 -14 b 488 192 329 -14 433 49 z m 426 894 b 544 994 492 894 533 933 b 449 1111 556 1057 517 1111 b 328 1013 388 1111 339 1074 b 426 894 317 950 358 894 z m 429 926 b 361 1008 379 926 354 964 b 446 1079 369 1054 401 1079 b 513 999 496 1079 521 1040 b 429 926 503 951 476 926 z "},"ǻ":{"ha":660,"x_min":0,"x_max":0,"o":"m 225 21 b 71 194 101 21 53 92 l 72 200 b 174 347 85 272 125 317 b 363 424 222 378 264 392 b 557 535 461 456 529 468 l 507 300 b 225 21 472 128 360 21 z m 486 183 b 574 0 456 51 476 0 l 592 0 l 597 31 l 579 31 b 518 197 508 31 489 57 l 599 585 b 392 797 624 707 556 797 b 124 582 240 797 150 719 l 114 531 l 149 531 l 157 578 b 390 765 181 707 261 765 b 565 586 544 765 586 688 b 353 451 547 496 446 482 b 157 374 250 418 206 404 b 36 201 99 338 51 288 l 33 189 b 221 -14 13 68 75 -14 b 488 192 329 -14 433 49 z m 425 874 b 543 974 490 874 532 913 b 447 1090 554 1036 515 1090 b 326 992 386 1090 338 1053 b 425 874 315 929 357 874 z m 428 906 b 360 988 378 906 353 943 b 444 1058 368 1033 400 1058 b 511 978 494 1058 519 1019 b 428 906 501 931 475 906 z m 460 1175 l 494 1175 l 676 1392 l 633 1392 z "},"ã":{"ha":660,"x_min":0,"x_max":0,"o":"m 225 21 b 71 194 101 21 53 92 l 72 200 b 174 347 85 272 125 317 b 363 424 222 378 264 392 b 557 535 461 456 529 468 l 507 300 b 225 21 472 128 360 21 z m 486 183 b 574 0 456 51 476 0 l 592 0 l 597 31 l 579 31 b 518 197 508 31 489 57 l 599 585 b 392 797 624 707 556 797 b 124 582 240 797 150 719 l 114 531 l 149 531 l 157 578 b 390 765 181 707 261 765 b 565 586 544 765 586 688 b 353 451 547 496 446 482 b 157 374 250 418 206 404 b 36 201 99 338 51 288 l 33 189 b 221 -14 13 68 75 -14 b 488 192 329 -14 433 49 z m 242 900 l 272 900 b 339 974 281 949 303 974 b 514 899 404 974 440 899 b 613 1004 568 899 601 936 l 582 1004 b 514 931 574 951 550 931 b 343 1004 456 931 419 1004 b 242 900 289 1004 254 968 z "},"æ":{"ha":1090,"x_min":0,"x_max":0,"o":"m 589 558 b 821 765 614 692 703 765 b 1000 514 971 765 1028 671 l 982 417 l 564 417 z m 228 21 b 71 194 104 21 53 92 l 72 200 b 174 347 85 272 125 317 b 364 424 222 378 265 392 b 553 524 457 453 522 467 l 507 300 b 228 21 472 128 363 21 z m 725 -12 b 985 232 882 -12 956 74 l 990 264 l 954 264 l 950 236 b 728 21 926 92 863 21 b 540 288 557 21 514 135 l 558 386 l 1011 386 l 1033 508 b 822 797 1065 679 994 797 b 597 663 721 797 642 749 b 392 797 583 740 515 797 b 124 582 244 797 150 719 l 115 539 l 150 539 l 157 578 b 390 765 181 707 265 765 b 565 586 542 765 586 688 b 353 451 547 496 446 482 b 157 374 250 418 206 404 b 36 201 99 338 51 288 l 33 189 b 224 -14 13 68 78 -14 b 504 206 335 -14 440 39 b 725 -12 496 78 565 -12 z "},"ǽ":{"ha":1090,"x_min":0,"x_max":0,"o":"m 589 558 b 821 765 614 692 703 765 b 1000 514 971 765 1028 671 l 982 417 l 564 417 z m 228 21 b 71 194 104 21 53 92 l 72 200 b 174 347 85 272 125 317 b 364 424 222 378 265 392 b 553 524 457 453 522 467 l 507 300 b 228 21 472 128 363 21 z m 725 -12 b 985 232 882 -12 956 74 l 990 264 l 954 264 l 950 236 b 728 21 926 92 863 21 b 540 288 557 21 514 135 l 558 386 l 1011 386 l 1033 508 b 822 797 1065 679 994 797 b 597 663 721 797 642 749 b 392 797 583 740 515 797 b 124 582 244 797 150 719 l 115 539 l 150 539 l 157 578 b 390 765 181 707 265 765 b 565 586 542 765 586 688 b 353 451 547 496 446 482 b 157 374 250 418 206 404 b 36 201 99 338 51 288 l 33 189 b 224 -14 13 68 78 -14 b 504 206 335 -14 440 39 b 725 -12 496 78 565 -12 z m 599 846 l 633 846 l 815 1063 l 772 1063 z "},"ć":{"ha":643,"x_min":0,"x_max":0,"o":"m 288 -12 b 539 218 440 -12 511 65 l 550 275 l 514 275 l 503 219 b 290 21 479 89 418 21 b 100 288 118 21 74 135 l 149 558 b 375 765 174 692 251 765 b 557 529 526 765 585 679 l 550 492 l 586 492 l 592 522 b 378 797 622 699 544 797 b 113 556 231 797 140 710 l 67 293 b 288 -12 36 115 89 -12 z m 401 897 l 436 897 l 618 1114 l 575 1114 z "},"č":{"ha":643,"x_min":0,"x_max":0,"o":"m 288 -12 b 539 218 440 -12 511 65 l 550 275 l 514 275 l 503 219 b 290 21 479 89 418 21 b 100 288 118 21 74 135 l 149 558 b 375 765 174 692 251 765 b 557 529 526 765 585 679 l 550 492 l 586 492 l 592 522 b 378 797 622 699 544 797 b 113 556 231 797 140 710 l 67 293 b 288 -12 36 115 89 -12 z m 433 894 l 590 1061 l 546 1061 l 424 926 l 354 1061 l 314 1061 l 406 894 z "},"ç":{"ha":643,"x_min":0,"x_max":0,"o":"m 208 -271 b 349 -183 288 -271 339 -236 b 246 -83 360 -119 322 -86 l 258 -11 b 288 -12 268 -12 278 -12 b 539 218 440 -12 511 65 l 550 275 l 514 275 l 503 219 b 290 21 479 89 418 21 b 100 288 118 21 74 135 l 149 558 b 375 765 174 692 251 765 b 557 529 526 765 585 679 l 550 492 l 586 492 l 592 522 b 378 797 622 699 544 797 b 113 556 231 797 140 710 l 67 293 b 225 -7 40 136 78 18 l 207 -112 l 225 -112 b 313 -179 296 -112 322 -131 b 210 -239 306 -219 268 -239 b 121 -167 154 -239 118 -218 l 85 -167 b 208 -271 82 -235 128 -271 z "},"ĉ":{"ha":643,"x_min":0,"x_max":0,"o":"m 288 -12 b 539 218 440 -12 511 65 l 550 275 l 514 275 l 503 219 b 290 21 479 89 418 21 b 100 288 118 21 74 135 l 149 558 b 375 765 174 692 251 765 b 557 529 526 765 585 679 l 550 492 l 586 492 l 592 522 b 378 797 622 699 544 797 b 113 556 231 797 140 710 l 67 293 b 288 -12 36 115 89 -12 z m 525 896 l 563 896 l 471 1067 l 438 1067 l 285 896 l 328 896 l 451 1036 z "},"ċ":{"ha":643,"x_min":0,"x_max":0,"o":"m 288 -12 b 539 218 440 -12 511 65 l 550 275 l 514 275 l 503 219 b 290 21 479 89 418 21 b 100 288 118 21 74 135 l 149 558 b 375 765 174 692 251 765 b 557 529 526 765 585 679 l 550 492 l 586 492 l 592 522 b 378 797 622 699 544 797 b 113 556 231 797 140 710 l 67 293 b 288 -12 36 115 89 -12 z m 419 896 b 469 943 444 896 463 910 b 438 994 475 975 464 994 b 386 944 410 994 392 976 b 419 896 379 910 393 896 z "},"ď":{"ha":685,"x_min":0,"x_max":0,"o":"m 278 19 b 99 279 136 19 69 118 l 143 524 b 372 763 168 663 239 763 b 563 482 543 763 592 646 l 522 254 b 278 19 496 101 401 19 z m 485 0 l 510 0 l 693 1047 l 661 1047 l 586 618 b 375 796 576 722 513 796 b 108 525 217 796 138 686 l 65 285 b 278 -14 33 110 99 -14 b 503 140 382 -14 457 42 z m 763 926 l 793 926 l 897 1118 l 856 1118 z "},"đ":{"ha":685,"x_min":0,"x_max":0,"o":"m 278 19 b 99 279 136 19 69 118 l 143 524 b 372 763 168 663 239 763 b 563 482 543 763 592 646 l 522 254 b 278 19 496 101 401 19 z m 485 0 l 510 0 l 668 904 l 758 904 l 764 933 l 674 933 l 693 1047 l 661 1047 l 642 933 l 493 933 l 488 904 l 636 904 l 586 618 b 375 796 576 722 513 796 b 108 525 217 796 138 686 l 65 285 b 278 -14 33 110 99 -14 b 503 140 382 -14 457 42 z "},"ð":{"ha":668,"x_min":0,"x_max":0,"o":"m 286 -12 b 553 233 443 -12 525 76 l 606 531 b 510 974 636 703 610 850 l 658 1076 l 607 1076 l 490 997 b 406 1076 467 1025 438 1051 l 353 1076 b 461 976 394 1044 431 1011 l 301 867 l 354 867 l 481 954 b 589 636 557 860 592 756 b 376 797 572 735 503 797 b 113 556 233 797 140 710 l 67 293 b 286 -12 36 115 92 -12 z m 289 21 b 100 288 121 21 74 135 l 149 558 b 376 765 174 692 254 765 b 568 514 522 765 596 671 l 518 235 b 289 21 494 100 421 21 z "},"é":{"ha":650,"x_min":0,"x_max":0,"o":"m 147 558 b 374 765 172 692 256 765 b 558 514 524 765 586 671 l 540 417 l 122 417 z m 543 232 l 549 264 l 513 264 l 508 236 b 286 21 485 92 421 21 b 99 288 115 21 72 135 l 117 386 l 569 386 l 592 508 b 374 797 624 679 549 797 b 113 556 235 797 140 710 l 67 293 b 283 -12 36 115 90 -12 b 543 232 440 -12 514 74 z m 404 900 l 439 900 l 621 1117 l 578 1117 z "},"ĕ":{"ha":650,"x_min":0,"x_max":0,"o":"m 147 558 b 374 765 172 692 256 765 b 558 514 524 765 586 671 l 540 417 l 122 417 z m 543 232 l 549 264 l 513 264 l 508 236 b 286 21 485 92 421 21 b 99 288 115 21 72 135 l 117 386 l 569 386 l 592 508 b 374 797 624 679 549 797 b 113 556 235 797 140 710 l 67 293 b 283 -12 36 115 90 -12 b 543 232 440 -12 514 74 z m 425 894 b 614 1060 532 894 593 968 l 582 1060 b 428 925 563 983 511 926 b 324 1060 336 926 315 983 l 290 1060 b 425 894 281 968 313 894 z "},"ě":{"ha":650,"x_min":0,"x_max":0,"o":"m 147 558 b 374 765 172 692 256 765 b 558 514 524 765 586 671 l 540 417 l 122 417 z m 543 232 l 549 264 l 513 264 l 508 236 b 286 21 485 92 421 21 b 99 288 115 21 72 135 l 117 386 l 569 386 l 592 508 b 374 797 624 679 549 797 b 113 556 235 797 140 710 l 67 293 b 283 -12 36 115 90 -12 b 543 232 440 -12 514 74 z m 436 897 l 593 1064 l 549 1064 l 426 929 l 357 1064 l 317 1064 l 408 897 z "},"ê":{"ha":650,"x_min":0,"x_max":0,"o":"m 147 558 b 374 765 172 692 256 765 b 558 514 524 765 586 671 l 540 417 l 122 417 z m 543 232 l 549 264 l 513 264 l 508 236 b 286 21 485 92 421 21 b 99 288 115 21 72 135 l 117 386 l 569 386 l 592 508 b 374 797 624 679 549 797 b 113 556 235 797 140 710 l 67 293 b 283 -12 36 115 90 -12 b 543 232 440 -12 514 74 z m 528 899 l 565 899 l 474 1069 l 440 1069 l 288 899 l 331 899 l 454 1039 z "},"ë":{"ha":650,"x_min":0,"x_max":0,"o":"m 147 558 b 374 765 172 692 256 765 b 558 514 524 765 586 671 l 540 417 l 122 417 z m 543 232 l 549 264 l 513 264 l 508 236 b 286 21 485 92 421 21 b 99 288 115 21 72 135 l 117 386 l 569 386 l 592 508 b 374 797 624 679 549 797 b 113 556 235 797 140 710 l 67 293 b 283 -12 36 115 90 -12 b 543 232 440 -12 514 74 z m 342 904 b 389 947 365 904 383 917 b 360 993 394 976 385 993 b 313 949 335 993 318 976 b 342 904 307 917 319 904 z m 501 904 b 546 947 524 904 540 917 b 518 993 551 976 543 993 b 471 949 493 993 476 976 b 501 904 465 917 476 904 z "},"ė":{"ha":650,"x_min":0,"x_max":0,"o":"m 147 558 b 374 765 172 692 256 765 b 558 514 524 765 586 671 l 540 417 l 122 417 z m 543 232 l 549 264 l 513 264 l 508 236 b 286 21 485 92 421 21 b 99 288 115 21 72 135 l 117 386 l 569 386 l 592 508 b 374 797 624 679 549 797 b 113 556 235 797 140 710 l 67 293 b 283 -12 36 115 90 -12 b 543 232 440 -12 514 74 z m 422 899 b 472 946 447 899 465 913 b 440 997 478 978 467 997 b 389 947 413 997 394 979 b 422 899 382 913 396 899 z "},"è":{"ha":650,"x_min":0,"x_max":0,"o":"m 147 558 b 374 765 172 692 256 765 b 558 514 524 765 586 671 l 540 417 l 122 417 z m 543 232 l 549 264 l 513 264 l 508 236 b 286 21 485 92 421 21 b 99 288 115 21 72 135 l 117 386 l 569 386 l 592 508 b 374 797 624 679 549 797 b 113 556 235 797 140 710 l 67 293 b 283 -12 36 115 90 -12 b 543 232 440 -12 514 74 z m 414 900 l 450 900 l 361 1074 l 317 1074 z "},"ē":{"ha":650,"x_min":0,"x_max":0,"o":"m 147 558 b 374 765 172 692 256 765 b 558 514 524 765 586 671 l 540 417 l 122 417 z m 543 232 l 549 264 l 513 264 l 508 236 b 286 21 485 92 421 21 b 99 288 115 21 72 135 l 117 386 l 569 386 l 592 508 b 374 797 624 679 549 797 b 113 556 235 797 140 710 l 67 293 b 283 -12 36 115 90 -12 b 543 232 440 -12 514 74 z m 293 926 l 567 926 l 572 960 l 299 960 z "},"ę":{"ha":650,"x_min":0,"x_max":0,"o":"m 361 -222 b 519 -122 436 -222 488 -187 l 481 -122 b 364 -190 456 -169 418 -190 b 281 -110 304 -190 274 -153 b 424 21 288 -65 333 -28 b 543 232 488 60 525 131 l 549 264 l 513 264 l 508 236 b 286 21 485 92 421 21 b 99 288 115 21 72 135 l 117 386 l 569 386 l 592 508 b 374 797 624 679 549 797 b 113 556 235 797 140 710 l 67 293 b 283 -12 36 115 90 -12 b 318 -11 296 -12 307 -12 b 247 -107 278 -42 253 -72 b 361 -222 236 -167 276 -222 z m 147 558 b 374 765 172 692 256 765 b 558 514 524 765 586 671 l 540 417 l 122 417 z "},"ğ":{"ha":685,"x_min":0,"x_max":0,"o":"m 278 19 b 99 279 136 19 69 118 l 143 524 b 372 763 168 663 239 763 b 563 482 543 763 592 646 l 522 254 b 278 19 496 101 401 19 z m 242 -283 b 500 -51 390 -283 472 -201 l 647 783 l 625 783 l 586 611 b 375 796 579 718 515 796 b 108 525 217 796 136 686 l 65 285 b 278 -14 33 110 99 -14 b 501 139 382 -14 457 40 l 469 -46 b 243 -250 444 -176 376 -250 b 49 -94 110 -250 54 -193 l 10 -94 b 242 -283 18 -212 82 -283 z m 425 888 b 614 1053 532 888 593 961 l 582 1053 b 428 918 563 976 511 919 b 324 1053 336 919 315 976 l 290 1053 b 425 888 281 961 313 888 z "},"ĝ":{"ha":685,"x_min":0,"x_max":0,"o":"m 278 19 b 99 279 136 19 69 118 l 143 524 b 372 763 168 663 239 763 b 563 482 543 763 592 646 l 522 254 b 278 19 496 101 401 19 z m 242 -283 b 500 -51 390 -283 472 -201 l 647 783 l 625 783 l 586 611 b 375 796 579 718 515 796 b 108 525 217 796 136 686 l 65 285 b 278 -14 33 110 99 -14 b 501 139 382 -14 457 40 l 469 -46 b 243 -250 444 -176 376 -250 b 49 -94 110 -250 54 -193 l 10 -94 b 242 -283 18 -212 82 -283 z m 526 892 l 564 892 l 472 1063 l 439 1063 l 286 892 l 329 892 l 453 1032 z "},"ģ":{"ha":685,"x_min":0,"x_max":0,"o":"m 278 19 b 99 279 136 19 69 118 l 143 524 b 372 763 168 663 239 763 b 563 482 543 763 592 646 l 522 254 b 278 19 496 101 401 19 z m 242 -283 b 500 -51 390 -283 472 -201 l 647 783 l 625 783 l 586 611 b 375 796 579 718 515 796 b 108 525 217 796 136 686 l 65 285 b 278 -14 33 110 99 -14 b 501 139 382 -14 457 40 l 469 -46 b 243 -250 444 -176 376 -250 b 49 -94 110 -250 54 -193 l 10 -94 b 242 -283 18 -212 82 -283 z m 418 888 b 465 935 442 888 460 906 b 440 975 471 967 457 975 b 421 967 433 975 426 972 b 503 1078 435 1017 465 1053 l 490 1097 b 389 956 439 1064 399 1015 b 418 888 379 907 392 888 z "},"ġ":{"ha":685,"x_min":0,"x_max":0,"o":"m 278 19 b 99 279 136 19 69 118 l 143 524 b 372 763 168 663 239 763 b 563 482 543 763 592 646 l 522 254 b 278 19 496 101 401 19 z m 242 -283 b 500 -51 390 -283 472 -201 l 647 783 l 625 783 l 586 611 b 375 796 579 718 515 796 b 108 525 217 796 136 686 l 65 285 b 278 -14 33 110 99 -14 b 501 139 382 -14 457 40 l 469 -46 b 243 -250 444 -176 376 -250 b 49 -94 110 -250 54 -193 l 10 -94 b 242 -283 18 -212 82 -283 z m 419 892 b 469 939 444 892 463 906 b 438 990 475 971 464 990 b 386 940 410 990 392 972 b 419 892 379 906 393 892 z "},"ß":{"ha":710,"x_min":0,"x_max":0,"o":"m 342 -6 b 618 228 493 -6 588 54 l 626 275 b 481 546 653 426 607 519 b 685 753 586 564 661 621 l 692 793 b 463 1049 719 956 626 1049 b 183 800 296 1049 213 967 l 42 0 l 76 0 l 217 794 b 458 1017 244 950 321 1017 b 658 796 608 1017 683 939 l 651 756 b 394 564 628 618 528 564 l 356 564 l 350 529 l 393 529 b 590 272 554 529 621 443 l 583 231 b 347 28 556 76 468 28 b 246 38 293 28 264 32 l 240 4 b 342 -6 257 0 289 -6 z "},"ħ":{"ha":679,"x_min":0,"x_max":0,"o":"m 163 499 b 408 765 192 668 271 765 b 571 539 542 765 596 682 l 476 0 l 511 0 l 604 532 b 413 797 633 697 565 797 b 185 635 297 797 225 733 l 232 904 l 379 904 l 385 935 l 238 935 l 257 1047 l 225 1047 l 206 935 l 135 935 l 129 904 l 200 904 l 42 0 l 75 0 z "},"ĥ":{"ha":681,"x_min":0,"x_max":0,"o":"m 163 499 b 408 765 192 668 271 765 b 571 539 542 765 596 682 l 476 0 l 511 0 l 604 532 b 413 797 633 697 565 797 b 185 635 297 797 225 733 l 257 1047 l 225 1047 l 42 0 l 75 0 z m 364 1146 l 401 1146 l 310 1317 l 276 1317 l 124 1146 l 167 1146 l 290 1286 z "},"í":{"ha":251,"x_min":0,"x_max":0,"o":"m 42 0 l 76 0 l 214 783 l 179 783 z m 194 893 l 229 893 l 411 1110 l 368 1110 z "},"ĭ":{"ha":251,"x_min":0,"x_max":0,"o":"m 42 0 l 76 0 l 214 783 l 179 783 z m 215 878 b 404 1043 322 878 383 951 l 372 1043 b 218 908 353 967 301 910 b 114 1043 126 910 106 967 l 81 1043 b 215 878 71 951 103 878 z "},"î":{"ha":251,"x_min":0,"x_max":0,"o":"m 42 0 l 76 0 l 214 783 l 179 783 z m 318 882 l 356 882 l 264 1053 l 231 1053 l 78 882 l 121 882 l 244 1022 z "},"ï":{"ha":251,"x_min":0,"x_max":0,"o":"m 42 0 l 76 0 l 214 783 l 179 783 z m 132 888 b 179 931 156 888 174 900 b 150 976 185 960 175 976 b 103 932 125 976 108 960 b 132 888 97 900 110 888 z m 292 888 b 336 931 314 888 331 900 b 308 976 342 960 333 976 b 261 932 283 976 267 960 b 292 888 256 900 267 888 z "},"ì":{"ha":251,"x_min":0,"x_max":0,"o":"m 42 0 l 76 0 l 214 783 l 179 783 z m 199 883 l 235 883 l 146 1057 l 101 1057 z "},"ī":{"ha":251,"x_min":0,"x_max":0,"o":"m 42 0 l 76 0 l 214 783 l 179 783 z m 83 910 l 357 910 l 363 943 l 89 943 z "},"į":{"ha":251,"x_min":0,"x_max":0,"o":"m 217 894 b 254 938 238 894 247 906 b 231 978 260 964 253 978 b 192 936 208 978 199 967 b 217 894 186 908 196 894 z m 172 -143 l 133 -143 b 17 -211 108 -190 71 -211 b -67 -131 -43 -211 -74 -174 b 76 0 -60 -86 -14 -49 l 214 783 l 179 783 l 44 14 b -100 -128 -37 -32 -90 -75 b 14 -243 -111 -187 -71 -243 b 172 -143 89 -243 140 -208 z "},"ĩ":{"ha":251,"x_min":0,"x_max":0,"o":"m 42 0 l 76 0 l 214 783 l 179 783 z m 36 886 l 67 886 b 133 960 75 935 97 960 b 308 885 199 960 235 885 b 407 990 363 885 396 922 l 376 990 b 308 917 368 938 344 917 b 138 990 250 917 214 990 b 36 886 83 990 49 954 z "},"ı":{"ha":251,"x_min":0,"x_max":0,"o":"m 42 0 l 76 0 l 214 783 l 179 783 z "},"ĵ":{"ha":256,"x_min":0,"x_max":0,"o":"m -111 -210 b 74 -28 11 -210 49 -171 l 217 783 l 182 783 l 39 -28 b -111 -179 18 -149 -12 -179 l -140 -179 l -146 -210 z m 322 882 l 360 882 l 268 1053 l 235 1053 l 82 882 l 125 882 l 249 1022 z "},"ȷ":{"ha":256,"x_min":0,"x_max":0,"o":"m -111 -210 b 74 -28 11 -210 49 -171 l 217 783 l 182 783 l 39 -28 b -111 -179 18 -149 -12 -179 l -140 -179 l -146 -210 z "},"ķ":{"ha":610,"x_min":0,"x_max":0,"o":"m 468 0 l 507 0 l 361 503 l 619 783 l 578 783 l 126 296 l 132 325 l 258 1047 l 225 1047 l 42 0 l 75 0 l 118 246 l 333 478 z m 179 -282 b 281 -140 229 -250 269 -200 b 250 -74 289 -93 276 -74 b 203 -119 226 -74 208 -90 b 228 -161 197 -151 211 -161 b 247 -151 235 -161 242 -157 b 165 -262 235 -201 203 -239 z "},"ĸ":{"ha":610,"x_min":0,"x_max":0,"o":"m 468 0 l 507 0 l 361 503 l 619 783 l 578 783 l 126 296 l 132 325 l 213 783 l 179 783 l 42 0 l 75 0 l 118 246 l 333 478 z "},"ĺ":{"ha":254,"x_min":0,"x_max":0,"o":"m 43 0 l 78 0 l 261 1047 l 226 1047 z m 244 1147 l 279 1147 l 461 1364 l 418 1364 z "},"ľ":{"ha":254,"x_min":0,"x_max":0,"o":"m 43 0 l 78 0 l 261 1047 l 226 1047 z m 342 918 l 372 918 l 476 1110 l 435 1110 z "},"ļ":{"ha":254,"x_min":0,"x_max":0,"o":"m 43 0 l 78 0 l 261 1047 l 226 1047 z m -10 -290 b 92 -149 40 -258 81 -208 b 61 -82 100 -101 88 -82 b 14 -128 38 -82 19 -99 b 39 -169 8 -160 22 -169 b 58 -160 46 -169 53 -165 b -24 -271 46 -210 14 -247 z "},"ŀ":{"ha":325,"x_min":0,"x_max":0,"o":"m 43 0 l 78 0 l 261 1047 l 226 1047 z m 274 322 b 324 369 299 322 317 336 b 292 421 329 401 318 421 b 240 371 264 421 246 403 b 274 322 233 336 247 322 z "},"ł":{"ha":268,"x_min":0,"x_max":0,"o":"m 86 0 l 164 447 l 281 488 l 276 515 l 169 478 l 269 1047 l 235 1047 l 133 465 l 19 426 l 24 399 l 128 435 l 51 0 z "},"ń":{"ha":681,"x_min":0,"x_max":0,"o":"m 164 499 b 408 765 193 668 271 765 b 571 539 542 765 596 682 l 476 0 l 511 0 l 604 532 b 413 797 633 697 565 797 b 182 628 294 797 221 731 l 204 783 l 179 783 l 42 0 l 76 0 z m 426 897 l 461 897 l 643 1114 l 600 1114 z "},"ň":{"ha":681,"x_min":0,"x_max":0,"o":"m 164 499 b 408 765 193 668 271 765 b 571 539 542 765 596 682 l 476 0 l 511 0 l 604 532 b 413 797 633 697 565 797 b 182 628 294 797 221 731 l 204 783 l 179 783 l 42 0 l 76 0 z m 458 894 l 615 1061 l 571 1061 l 449 926 l 379 1061 l 339 1061 l 431 894 z "},"ņ":{"ha":681,"x_min":0,"x_max":0,"o":"m 164 499 b 408 765 193 668 271 765 b 571 539 542 765 596 682 l 476 0 l 511 0 l 604 532 b 413 797 633 697 565 797 b 182 628 294 797 221 731 l 204 783 l 179 783 l 42 0 l 76 0 z m 200 -282 b 301 -140 250 -250 290 -200 b 271 -74 310 -93 297 -74 b 224 -119 247 -74 229 -90 b 249 -161 218 -151 232 -161 b 268 -151 256 -161 263 -157 b 186 -262 256 -201 224 -239 z "},"ñ":{"ha":681,"x_min":0,"x_max":0,"o":"m 164 499 b 408 765 193 668 271 765 b 571 539 542 765 596 682 l 476 0 l 511 0 l 604 532 b 413 797 633 697 565 797 b 182 628 294 797 221 731 l 204 783 l 179 783 l 42 0 l 76 0 z m 268 900 l 299 900 b 365 974 307 949 329 974 b 540 899 431 974 467 899 b 639 1004 594 899 628 936 l 608 1004 b 540 931 600 951 576 931 b 369 1004 482 931 446 1004 b 268 900 315 1004 281 968 z "},"ŋ":{"ha":681,"x_min":0,"x_max":0,"o":"m 318 -210 b 504 -39 446 -210 479 -178 l 604 532 b 413 797 633 697 565 797 b 182 628 294 797 221 731 l 204 783 l 179 783 l 42 0 l 76 0 l 164 499 b 408 765 193 668 271 765 b 571 539 542 765 596 682 l 469 -39 b 319 -179 449 -151 426 -179 l 290 -179 l 285 -210 z "},"ó":{"ha":668,"x_min":0,"x_max":0,"o":"m 286 -12 b 553 233 443 -12 525 76 l 601 508 b 376 797 633 679 551 797 b 113 556 233 797 140 710 l 67 293 b 286 -12 36 115 92 -12 z m 289 21 b 100 288 121 21 74 135 l 149 558 b 376 765 174 692 254 765 b 568 514 522 765 596 671 l 518 235 b 289 21 494 100 421 21 z m 401 896 l 436 896 l 618 1113 l 575 1113 z "},"ŏ":{"ha":668,"x_min":0,"x_max":0,"o":"m 286 -12 b 553 233 443 -12 525 76 l 601 508 b 376 797 633 679 551 797 b 113 556 233 797 140 710 l 67 293 b 286 -12 36 115 92 -12 z m 289 21 b 100 288 121 21 74 135 l 149 558 b 376 765 174 692 254 765 b 568 514 522 765 596 671 l 518 235 b 289 21 494 100 421 21 z m 422 890 b 611 1056 529 890 590 964 l 579 1056 b 425 921 560 979 508 922 b 321 1056 333 922 313 979 l 288 1056 b 422 890 278 964 310 890 z "},"ô":{"ha":668,"x_min":0,"x_max":0,"o":"m 286 -12 b 553 233 443 -12 525 76 l 601 508 b 376 797 633 679 551 797 b 113 556 233 797 140 710 l 67 293 b 286 -12 36 115 92 -12 z m 289 21 b 100 288 121 21 74 135 l 149 558 b 376 765 174 692 254 765 b 568 514 522 765 596 671 l 518 235 b 289 21 494 100 421 21 z m 525 894 l 563 894 l 471 1065 l 438 1065 l 285 894 l 328 894 l 451 1035 z "},"ö":{"ha":668,"x_min":0,"x_max":0,"o":"m 286 -12 b 553 233 443 -12 525 76 l 601 508 b 376 797 633 679 551 797 b 113 556 233 797 140 710 l 67 293 b 286 -12 36 115 92 -12 z m 289 21 b 100 288 121 21 74 135 l 149 558 b 376 765 174 692 254 765 b 568 514 522 765 596 671 l 518 235 b 289 21 494 100 421 21 z m 340 900 b 388 943 364 900 382 913 b 358 989 393 972 383 989 b 311 944 333 989 317 972 b 340 900 306 913 318 900 z m 500 900 b 544 943 522 900 539 913 b 517 989 550 972 542 989 b 469 944 492 989 475 972 b 500 900 464 913 475 900 z "},"œ":{"ha":1113,"x_min":0,"x_max":0,"o":"m 289 21 b 100 288 121 21 74 135 l 149 558 b 376 765 174 692 254 765 b 568 514 522 765 596 671 l 518 235 b 289 21 494 100 421 21 z m 610 558 b 838 765 635 692 719 765 b 1022 514 988 765 1050 671 l 1004 417 l 585 417 z m 1007 232 l 1013 264 l 976 264 l 972 236 b 750 21 949 92 885 21 b 561 288 579 21 535 135 l 579 386 l 1033 386 l 1056 508 b 838 797 1088 679 1013 797 b 600 624 721 797 639 735 b 376 797 583 731 508 797 b 113 556 233 797 140 710 l 67 293 b 286 -12 36 115 92 -12 b 529 165 418 -12 493 51 b 747 -12 540 57 604 -12 b 1007 232 904 -12 978 74 z "},"ò":{"ha":668,"x_min":0,"x_max":0,"o":"m 286 -12 b 553 233 443 -12 525 76 l 601 508 b 376 797 633 679 551 797 b 113 556 233 797 140 710 l 67 293 b 286 -12 36 115 92 -12 z m 289 21 b 100 288 121 21 74 135 l 149 558 b 376 765 174 692 254 765 b 568 514 522 765 596 671 l 518 235 b 289 21 494 100 421 21 z m 410 896 l 446 896 l 357 1069 l 313 1069 z "},"ő":{"ha":668,"x_min":0,"x_max":0,"o":"m 286 -12 b 553 233 443 -12 525 76 l 601 508 b 376 797 633 679 551 797 b 113 556 233 797 140 710 l 67 293 b 286 -12 36 115 92 -12 z m 289 21 b 100 288 121 21 74 135 l 149 558 b 376 765 174 692 254 765 b 568 514 522 765 596 671 l 518 235 b 289 21 494 100 421 21 z m 528 1069 l 482 1069 l 340 896 l 375 896 z m 665 1069 l 618 1069 l 460 896 l 496 896 z "},"ō":{"ha":668,"x_min":0,"x_max":0,"o":"m 286 -12 b 553 233 443 -12 525 76 l 601 508 b 376 797 633 679 551 797 b 113 556 233 797 140 710 l 67 293 b 286 -12 36 115 92 -12 z m 289 21 b 100 288 121 21 74 135 l 149 558 b 376 765 174 692 254 765 b 568 514 522 765 596 671 l 518 235 b 289 21 494 100 421 21 z m 290 922 l 564 922 l 569 956 l 296 956 z "},"ø":{"ha":668,"x_min":0,"x_max":0,"o":"m 100 288 l 149 558 b 376 765 174 692 254 765 b 500 733 426 765 468 754 l 158 57 b 100 288 97 101 82 186 z m 289 21 b 183 42 246 21 211 28 l 522 715 b 568 514 567 672 583 603 l 518 235 b 289 21 494 100 421 21 z m 286 -12 b 553 233 443 -12 525 76 l 601 508 b 538 747 621 613 599 697 l 539 749 l 617 903 l 585 903 l 514 764 b 376 797 478 785 432 797 b 113 556 233 797 140 710 l 67 293 b 142 24 46 172 65 74 l 65 -125 l 99 -125 l 167 10 b 286 -12 199 -4 238 -12 z "},"ǿ":{"ha":668,"x_min":0,"x_max":0,"o":"m 100 288 l 149 558 b 376 765 174 692 254 765 b 500 733 426 765 468 754 l 158 57 b 100 288 97 101 82 186 z m 289 21 b 183 42 246 21 211 28 l 522 715 b 568 514 567 672 583 603 l 518 235 b 289 21 494 100 421 21 z m 286 -12 b 553 233 443 -12 525 76 l 601 508 b 538 747 621 613 599 697 l 539 749 l 617 903 l 585 903 l 514 764 b 376 797 478 785 432 797 b 113 556 233 797 140 710 l 67 293 b 142 24 46 172 65 74 l 65 -125 l 99 -125 l 167 10 b 286 -12 199 -4 238 -12 z m 404 925 l 439 925 l 621 1142 l 578 1142 z "},"õ":{"ha":668,"x_min":0,"x_max":0,"o":"m 286 -12 b 553 233 443 -12 525 76 l 601 508 b 376 797 633 679 551 797 b 113 556 233 797 140 710 l 67 293 b 286 -12 36 115 92 -12 z m 289 21 b 100 288 121 21 74 135 l 149 558 b 376 765 174 692 254 765 b 568 514 522 765 596 671 l 518 235 b 289 21 494 100 421 21 z m 243 899 l 274 899 b 340 972 282 947 304 972 b 515 897 406 972 442 897 b 614 1003 569 897 603 935 l 583 1003 b 515 929 575 950 551 929 b 344 1003 457 929 421 1003 b 243 899 290 1003 256 967 z "},"ŕ":{"ha":422,"x_min":0,"x_max":0,"o":"m 75 0 l 158 478 b 418 750 190 667 261 750 l 451 750 l 457 783 l 425 783 b 185 636 303 783 229 735 l 204 783 l 179 783 l 42 0 z m 294 876 l 329 876 l 511 1093 l 468 1093 z "},"ř":{"ha":422,"x_min":0,"x_max":0,"o":"m 75 0 l 158 478 b 418 750 190 667 261 750 l 451 750 l 457 783 l 425 783 b 185 636 303 783 229 735 l 204 783 l 179 783 l 42 0 z m 326 874 l 483 1040 l 439 1040 l 317 906 l 247 1040 l 207 1040 l 299 874 z "},"ŗ":{"ha":422,"x_min":0,"x_max":0,"o":"m 75 0 l 158 478 b 418 750 190 667 261 750 l 451 750 l 457 783 l 425 783 b 185 636 303 783 229 735 l 204 783 l 179 783 l 42 0 z m -26 -290 b 75 -149 24 -258 64 -208 b 44 -82 83 -101 71 -82 b -3 -128 21 -82 3 -99 b 22 -169 -8 -160 6 -169 b 42 -160 29 -169 36 -165 b -40 -271 29 -210 -3 -247 z "},"ś":{"ha":618,"x_min":0,"x_max":0,"o":"m 267 -14 b 510 175 404 -14 486 49 b 332 417 535 317 432 368 b 165 621 238 463 144 506 b 358 765 181 711 249 765 b 536 593 489 765 553 696 l 528 543 l 561 543 l 568 583 b 363 797 592 718 503 797 b 132 624 233 797 151 735 b 306 390 107 488 207 440 b 475 175 401 342 497 297 b 271 21 458 85 397 21 b 75 210 132 21 54 93 l 86 271 l 51 271 l 40 211 b 267 -14 15 75 114 -14 z m 378 897 l 413 897 l 594 1114 l 551 1114 z "},"š":{"ha":618,"x_min":0,"x_max":0,"o":"m 267 -14 b 510 175 404 -14 486 49 b 332 417 535 317 432 368 b 165 621 238 463 144 506 b 358 765 181 711 249 765 b 536 593 489 765 553 696 l 528 543 l 561 543 l 568 583 b 363 797 592 718 503 797 b 132 624 233 797 151 735 b 306 390 107 488 207 440 b 475 175 401 342 497 297 b 271 21 458 85 397 21 b 75 210 132 21 54 93 l 86 271 l 51 271 l 40 211 b 267 -14 15 75 114 -14 z m 410 894 l 567 1061 l 522 1061 l 400 926 l 331 1061 l 290 1061 l 382 894 z "},"ş":{"ha":618,"x_min":0,"x_max":0,"o":"m 208 -272 b 349 -185 288 -272 339 -237 b 246 -85 360 -121 322 -87 l 258 -14 l 267 -14 b 510 175 404 -14 486 49 b 332 417 535 317 432 368 b 165 621 238 463 144 506 b 358 765 181 711 249 765 b 536 593 489 765 553 696 l 528 543 l 561 543 l 568 583 b 363 797 592 718 503 797 b 132 624 233 797 151 735 b 306 390 107 488 207 440 b 475 175 401 342 497 297 b 271 21 458 85 397 21 b 75 210 132 21 54 93 l 86 271 l 51 271 l 40 211 b 224 -11 18 88 96 4 l 207 -114 l 225 -114 b 313 -181 296 -114 322 -132 b 210 -240 306 -221 268 -240 b 121 -168 154 -240 118 -219 l 85 -168 b 208 -272 82 -236 128 -272 z "},"ŝ":{"ha":618,"x_min":0,"x_max":0,"o":"m 267 -14 b 510 175 404 -14 486 49 b 332 417 535 317 432 368 b 165 621 238 463 144 506 b 358 765 181 711 249 765 b 536 593 489 765 553 696 l 528 543 l 561 543 l 568 583 b 363 797 592 718 503 797 b 132 624 233 797 151 735 b 306 390 107 488 207 440 b 475 175 401 342 497 297 b 271 21 458 85 397 21 b 75 210 132 21 54 93 l 86 271 l 51 271 l 40 211 b 267 -14 15 75 114 -14 z m 501 896 l 539 896 l 447 1067 l 414 1067 l 261 896 l 304 896 l 428 1036 z "},"ș":{"ha":618,"x_min":0,"x_max":0,"o":"m 267 -14 b 510 175 404 -14 486 49 b 332 417 535 317 432 368 b 165 621 238 463 144 506 b 358 765 181 711 249 765 b 536 593 489 765 553 696 l 528 543 l 561 543 l 568 583 b 363 797 592 718 503 797 b 132 624 233 797 151 735 b 306 390 107 488 207 440 b 475 175 401 342 497 297 b 271 21 458 85 397 21 b 75 210 132 21 54 93 l 86 271 l 51 271 l 40 211 b 267 -14 15 75 114 -14 z m 160 -304 b 261 -162 210 -272 250 -222 b 231 -96 269 -115 257 -96 b 183 -142 207 -96 189 -112 b 208 -183 178 -174 192 -183 b 228 -174 215 -183 222 -179 b 146 -285 215 -224 183 -261 z "},"ŧ":{"ha":393,"x_min":0,"x_max":0,"o":"m 290 33 l 258 33 b 140 218 143 33 114 64 l 172 400 l 308 400 l 314 429 l 178 429 l 236 753 l 417 753 l 422 783 l 242 783 l 271 947 l 240 947 l 219 840 b 150 782 208 786 200 782 l 96 782 l 90 753 l 201 753 l 144 429 l 57 429 l 51 400 l 139 400 l 107 218 b 251 0 76 40 113 0 l 285 0 z "},"ť":{"ha":393,"x_min":0,"x_max":0,"o":"m 290 33 l 258 33 b 140 218 143 33 114 64 l 235 753 l 417 753 l 422 783 l 240 783 l 269 947 l 240 947 l 219 840 b 150 782 208 786 200 782 l 96 782 l 90 753 l 201 753 l 107 218 b 251 0 76 40 113 0 l 285 0 z m 340 908 l 371 908 l 475 1100 l 433 1100 z "},"ţ":{"ha":393,"x_min":0,"x_max":0,"o":"m 290 33 l 258 33 b 140 218 143 33 114 64 l 235 753 l 417 753 l 422 783 l 240 783 l 269 947 l 240 947 l 219 840 b 150 782 208 786 200 782 l 96 782 l 90 753 l 201 753 l 107 218 b 251 0 76 40 113 0 l 285 0 z m 96 -289 b 197 -147 146 -257 186 -207 b 167 -81 206 -100 193 -81 b 119 -126 143 -81 125 -97 b 144 -168 114 -158 128 -168 b 164 -158 151 -168 158 -164 b 82 -269 151 -208 119 -246 z "},"ú":{"ha":660,"x_min":0,"x_max":0,"o":"m 460 0 l 485 0 l 622 783 l 588 783 l 500 285 b 265 18 471 115 399 18 b 114 244 140 18 89 101 l 208 783 l 174 783 l 81 251 b 261 -14 51 86 117 -14 b 482 153 375 -14 443 51 z m 389 861 l 424 861 l 606 1078 l 563 1078 z "},"ŭ":{"ha":660,"x_min":0,"x_max":0,"o":"m 460 0 l 485 0 l 622 783 l 588 783 l 500 285 b 265 18 471 115 399 18 b 114 244 140 18 89 101 l 208 783 l 174 783 l 81 251 b 261 -14 51 86 117 -14 b 482 153 375 -14 443 51 z m 418 872 b 607 1038 525 872 586 946 l 575 1038 b 421 903 556 961 504 904 b 317 1038 329 904 308 961 l 283 1038 b 418 872 274 946 306 872 z "},"û":{"ha":660,"x_min":0,"x_max":0,"o":"m 460 0 l 485 0 l 622 783 l 588 783 l 500 285 b 265 18 471 115 399 18 b 114 244 140 18 89 101 l 208 783 l 174 783 l 81 251 b 261 -14 51 86 117 -14 b 482 153 375 -14 443 51 z m 521 876 l 558 876 l 467 1047 l 433 1047 l 281 876 l 324 876 l 447 1017 z "},"ü":{"ha":660,"x_min":0,"x_max":0,"o":"m 460 0 l 485 0 l 622 783 l 588 783 l 500 285 b 265 18 471 115 399 18 b 114 244 140 18 89 101 l 208 783 l 174 783 l 81 251 b 261 -14 51 86 117 -14 b 482 153 375 -14 443 51 z m 335 882 b 382 925 358 882 376 894 b 353 971 388 954 378 971 b 306 926 328 971 311 954 b 335 882 300 894 313 882 z m 494 882 b 539 925 517 882 533 894 b 511 971 544 954 536 971 b 464 926 486 971 469 954 b 494 882 458 894 469 882 z "},"ù":{"ha":660,"x_min":0,"x_max":0,"o":"m 460 0 l 485 0 l 622 783 l 588 783 l 500 285 b 265 18 471 115 399 18 b 114 244 140 18 89 101 l 208 783 l 174 783 l 81 251 b 261 -14 51 86 117 -14 b 482 153 375 -14 443 51 z m 403 860 l 439 860 l 350 1033 l 306 1033 z "},"ű":{"ha":660,"x_min":0,"x_max":0,"o":"m 460 0 l 485 0 l 622 783 l 588 783 l 500 285 b 265 18 471 115 399 18 b 114 244 140 18 89 101 l 208 783 l 174 783 l 81 251 b 261 -14 51 86 117 -14 b 482 153 375 -14 443 51 z m 510 1049 l 464 1049 l 322 875 l 357 875 z m 647 1049 l 600 1049 l 442 875 l 478 875 z "},"ū":{"ha":660,"x_min":0,"x_max":0,"o":"m 460 0 l 485 0 l 622 783 l 588 783 l 500 285 b 265 18 471 115 399 18 b 114 244 140 18 89 101 l 208 783 l 174 783 l 81 251 b 261 -14 51 86 117 -14 b 482 153 375 -14 443 51 z m 286 904 l 560 904 l 565 938 l 292 938 z "},"ų":{"ha":660,"x_min":0,"x_max":0,"o":"m 581 -143 l 542 -143 b 425 -211 517 -190 479 -211 b 342 -131 365 -211 335 -174 b 485 0 349 -86 394 -49 l 622 783 l 588 783 l 500 285 b 265 18 471 115 399 18 b 114 244 140 18 89 101 l 208 783 l 174 783 l 81 251 b 261 -14 51 86 117 -14 b 482 153 375 -14 443 51 l 463 21 b 308 -128 375 -28 318 -72 b 422 -243 297 -187 338 -243 b 581 -143 497 -243 549 -208 z "},"ů":{"ha":660,"x_min":0,"x_max":0,"o":"m 460 0 l 485 0 l 622 783 l 588 783 l 500 285 b 265 18 471 115 399 18 b 114 244 140 18 89 101 l 208 783 l 174 783 l 81 251 b 261 -14 51 86 117 -14 b 482 153 375 -14 443 51 z m 421 865 b 539 965 486 865 528 904 b 443 1082 550 1028 511 1082 b 322 983 382 1082 333 1044 b 421 865 311 921 353 865 z m 424 897 b 356 979 374 897 349 935 b 440 1050 364 1025 396 1050 b 507 969 490 1050 515 1011 b 424 897 497 922 471 897 z "},"ũ":{"ha":660,"x_min":0,"x_max":0,"o":"m 460 0 l 485 0 l 622 783 l 588 783 l 500 285 b 265 18 471 115 399 18 b 114 244 140 18 89 101 l 208 783 l 174 783 l 81 251 b 261 -14 51 86 117 -14 b 482 153 375 -14 443 51 z m 239 881 l 269 881 b 336 954 278 929 300 954 b 511 879 401 954 438 879 b 610 985 565 879 599 917 l 579 985 b 511 911 571 932 547 911 b 340 985 453 911 417 985 b 239 881 286 985 251 949 z "},"ẃ":{"ha":883,"x_min":0,"x_max":0,"o":"m 479 672 l 501 732 l 503 674 l 560 0 l 592 0 l 900 783 l 865 783 l 603 106 l 581 42 l 581 107 l 522 783 l 499 783 l 192 106 l 167 42 l 171 106 l 158 783 l 125 783 l 142 0 l 174 0 z m 508 883 l 543 883 l 725 1100 l 682 1100 z "},"ŵ":{"ha":883,"x_min":0,"x_max":0,"o":"m 479 672 l 501 732 l 503 674 l 560 0 l 592 0 l 900 783 l 865 783 l 603 106 l 581 42 l 581 107 l 522 783 l 499 783 l 192 106 l 167 42 l 171 106 l 158 783 l 125 783 l 142 0 l 174 0 z m 632 882 l 669 882 l 578 1053 l 544 1053 l 392 882 l 435 882 l 558 1022 z "},"ẅ":{"ha":883,"x_min":0,"x_max":0,"o":"m 479 672 l 501 732 l 503 674 l 560 0 l 592 0 l 900 783 l 865 783 l 603 106 l 581 42 l 581 107 l 522 783 l 499 783 l 192 106 l 167 42 l 171 106 l 158 783 l 125 783 l 142 0 l 174 0 z m 446 888 b 493 931 469 888 488 900 b 464 976 499 960 489 976 b 417 932 439 976 422 960 b 446 888 411 900 424 888 z m 606 888 b 650 931 628 888 644 900 b 622 976 656 960 647 976 b 575 932 597 976 581 960 b 606 888 569 900 581 888 z "},"ẁ":{"ha":883,"x_min":0,"x_max":0,"o":"m 479 672 l 501 732 l 503 674 l 560 0 l 592 0 l 900 783 l 865 783 l 603 106 l 581 42 l 581 107 l 522 783 l 499 783 l 192 106 l 167 42 l 171 106 l 158 783 l 125 783 l 142 0 l 174 0 z m 517 883 l 553 883 l 464 1057 l 419 1057 z "},"ý":{"ha":633,"x_min":0,"x_max":0,"o":"m 1 -210 b 244 -42 131 -210 175 -181 l 657 783 l 619 783 l 286 111 l 253 31 l 247 117 l 154 783 l 119 783 l 232 4 l 214 -37 b 6 -178 149 -157 114 -178 l -17 -178 l -22 -210 z m 360 867 l 394 867 l 576 1083 l 533 1083 z "},"ŷ":{"ha":633,"x_min":0,"x_max":0,"o":"m 1 -210 b 244 -42 131 -210 175 -181 l 657 783 l 619 783 l 286 111 l 253 31 l 247 117 l 154 783 l 119 783 l 232 4 l 214 -37 b 6 -178 149 -157 114 -178 l -17 -178 l -22 -210 z m 485 871 l 522 871 l 431 1042 l 397 1042 l 244 871 l 288 871 l 411 1011 z "},"ÿ":{"ha":633,"x_min":0,"x_max":0,"o":"m 1 -210 b 244 -42 131 -210 175 -181 l 657 783 l 619 783 l 286 111 l 253 31 l 247 117 l 154 783 l 119 783 l 232 4 l 214 -37 b 6 -178 149 -157 114 -178 l -17 -178 l -22 -210 z m 299 876 b 346 919 322 876 340 889 b 317 965 351 949 342 965 b 269 921 292 965 275 949 b 299 876 264 889 276 876 z m 458 876 b 503 919 481 876 497 889 b 475 965 508 949 500 965 b 428 921 450 965 433 949 b 458 876 422 889 433 876 z "},"ỳ":{"ha":633,"x_min":0,"x_max":0,"o":"m 1 -210 b 244 -42 131 -210 175 -181 l 657 783 l 619 783 l 286 111 l 253 31 l 247 117 l 154 783 l 119 783 l 232 4 l 214 -37 b 6 -178 149 -157 114 -178 l -17 -178 l -22 -210 z m 367 850 l 403 850 l 314 1024 l 269 1024 z "},"ĳ":{"ha":504,"x_min":0,"x_max":0,"o":"m 472 894 b 510 938 493 894 503 906 b 486 978 515 964 508 978 b 447 936 464 978 454 967 b 472 894 442 908 451 894 z m 217 894 b 254 938 238 894 247 906 b 231 978 260 964 253 978 b 192 936 208 978 199 967 b 217 894 186 908 196 894 z m 135 -210 b 324 -28 257 -210 299 -171 l 467 783 l 433 783 l 290 -28 b 139 -179 269 -149 239 -179 l 4 -179 l -1 -210 z m 76 0 l 214 783 l 179 783 l 42 0 z "},"ź":{"ha":556,"x_min":0,"x_max":0,"o":"m 439 0 l 444 33 l 26 33 l 574 753 l 579 783 l 143 783 l 138 751 l 533 751 l -17 28 l -21 0 z m 358 883 l 393 883 l 575 1100 l 532 1100 z "},"ž":{"ha":556,"x_min":0,"x_max":0,"o":"m 439 0 l 444 33 l 26 33 l 574 753 l 579 783 l 143 783 l 138 751 l 533 751 l -17 28 l -21 0 z m 390 881 l 547 1047 l 503 1047 l 381 913 l 311 1047 l 271 1047 l 363 881 z "},"ż":{"ha":556,"x_min":0,"x_max":0,"o":"m 439 0 l 444 33 l 26 33 l 574 753 l 579 783 l 143 783 l 138 751 l 533 751 l -17 28 l -21 0 z m 376 882 b 426 929 401 882 419 896 b 394 981 432 961 421 981 b 343 931 367 981 349 963 b 376 882 336 896 350 882 z "},"þ":{"ha":692,"x_min":0,"x_max":0,"o":"m 319 21 b 126 301 140 21 97 138 l 167 532 b 406 765 193 685 283 765 b 590 504 551 765 618 661 l 544 249 b 319 21 519 110 453 21 z m 317 -12 b 579 247 475 -12 551 86 l 624 499 b 406 797 656 669 581 797 b 188 650 304 797 232 744 l 257 1047 l 225 1047 l -8 -278 l 24 -278 l 103 168 b 317 -12 111 63 178 -12 z "},"ª":{"ha":501,"x_min":0,"x_max":0,"o":"m 231 449 b 125 567 144 449 113 496 b 194 671 133 618 161 649 b 326 725 228 693 257 703 b 458 803 396 747 440 756 l 424 643 b 231 449 397 518 326 449 z m 481 426 l 500 426 l 507 457 l 496 457 b 444 583 443 457 419 474 l 499 846 b 344 999 515 933 467 999 b 149 844 239 999 168 943 l 143 813 l 179 813 l 183 840 b 343 968 200 933 258 968 b 469 847 453 968 482 911 b 317 753 456 782 383 775 b 176 696 243 729 211 718 b 89 567 135 669 100 629 b 224 417 74 479 119 417 b 408 550 301 417 369 451 b 481 426 393 461 414 426 z "},"º":{"ha":483,"x_min":0,"x_max":0,"o":"m 265 418 b 454 594 378 418 433 482 l 489 792 b 329 1000 511 914 456 1000 b 143 825 226 1000 163 936 l 110 638 b 265 418 88 510 125 418 z m 265 450 b 143 633 156 450 125 528 l 178 828 b 333 968 196 924 250 968 b 454 796 431 968 475 904 l 419 594 b 265 450 403 503 354 450 z "},"&":{"ha":821,"x_min":0,"x_max":0,"o":"m 311 801 l 314 815 b 464 958 333 904 388 958 b 576 833 543 958 589 906 l 575 821 b 317 553 553 699 429 626 b 311 801 299 642 297 721 z m 264 21 b 61 254 118 21 36 107 b 292 503 85 382 181 432 b 344 342 304 453 322 400 b 481 89 383 239 429 151 b 264 21 418 46 346 21 z m 649 -10 b 711 8 671 -10 692 -4 l 717 46 b 651 22 694 29 678 22 b 529 89 611 22 569 46 b 782 604 664 201 749 396 l 793 669 l 760 669 l 749 604 b 508 111 717 404 636 217 b 375 356 460 169 414 254 b 324 521 353 415 335 469 b 608 817 453 608 583 683 l 610 828 b 469 990 626 924 565 990 b 282 821 376 990 306 929 l 279 807 b 285 535 261 715 264 629 b 26 256 161 456 51 394 b 258 -12 -3 83 101 -12 b 501 67 351 -12 432 17 b 649 -10 547 18 597 -10 z "},"´":{"ha":525,"x_min":0,"x_max":0,"o":"m 314 893 l 349 893 l 531 1110 l 488 1110 z "},"˘":{"ha":525,"x_min":0,"x_max":0,"o":"m 350 888 b 539 1053 457 888 518 961 l 507 1053 b 353 918 488 976 436 919 b 249 1053 261 919 240 976 l 215 1053 b 350 888 206 961 238 888 z "},"ˇ":{"ha":525,"x_min":0,"x_max":0,"o":"m 364 890 l 521 1057 l 476 1057 l 354 922 l 285 1057 l 244 1057 l 336 890 z "},"¸":{"ha":525,"x_min":0,"x_max":0,"o":"m 154 -258 b 294 -171 233 -258 285 -224 b 192 -71 306 -107 268 -74 l 206 7 l 171 7 l 153 -100 l 171 -100 b 258 -167 242 -100 268 -118 b 156 -226 251 -207 214 -226 b 67 -154 100 -226 64 -206 l 31 -154 b 154 -258 28 -222 74 -258 z "},"ˆ":{"ha":525,"x_min":0,"x_max":0,"o":"m 453 892 l 490 892 l 399 1063 l 365 1063 l 213 892 l 256 892 l 379 1032 z "},"¨":{"ha":526,"x_min":0,"x_max":0,"o":"m 265 897 b 313 940 289 897 307 910 b 283 986 318 969 308 986 b 236 942 258 986 242 969 b 265 897 231 910 243 897 z m 425 897 b 469 940 447 897 464 910 b 442 986 475 969 467 986 b 394 942 417 986 400 969 b 425 897 389 910 400 897 z "},"˙":{"ha":526,"x_min":0,"x_max":0,"o":"m 344 892 b 394 939 369 892 388 906 b 363 990 400 971 389 990 b 311 940 335 990 317 972 b 344 892 304 906 318 892 z "},"`":{"ha":525,"x_min":0,"x_max":0,"o":"m 360 892 l 396 892 l 307 1065 l 263 1065 z "},"˝":{"ha":525,"x_min":0,"x_max":0,"o":"m 442 1067 l 396 1067 l 254 893 l 289 893 z m 579 1067 l 532 1067 l 374 893 l 410 893 z "},"¯":{"ha":525,"x_min":0,"x_max":0,"o":"m 221 919 l 494 919 l 500 953 l 226 953 z "},"˛":{"ha":525,"x_min":0,"x_max":0,"o":"m 161 -243 b 319 -143 236 -243 288 -208 l 281 -143 b 164 -211 256 -190 218 -211 b 81 -131 104 -211 74 -174 b 224 0 88 -86 133 -49 l 203 21 b 47 -128 114 -28 57 -72 b 161 -243 36 -187 76 -243 z "},"˚":{"ha":525,"x_min":0,"x_max":0,"o":"m 356 890 b 474 990 421 890 463 929 b 378 1107 485 1053 446 1107 b 257 1008 317 1107 268 1069 b 356 890 246 946 288 890 z m 358 922 b 290 1004 308 922 283 960 b 375 1075 299 1050 331 1075 b 442 994 425 1075 450 1036 b 358 922 432 947 406 922 z "},"˜":{"ha":525,"x_min":0,"x_max":0,"o":"m 176 894 l 207 894 b 274 968 215 943 238 968 b 449 893 339 968 375 893 b 547 999 503 893 536 931 l 517 999 b 449 925 508 946 485 925 b 278 999 390 925 354 999 b 176 894 224 999 189 963 z "},".":{"ha":332,"x_min":0,"x_max":0,"o":"m 99 -10 b 149 36 124 -10 142 3 b 117 90 156 72 143 90 b 65 43 89 90 71 75 b 99 -10 60 8 72 -10 z "},",":{"ha":332,"x_min":0,"x_max":0,"o":"m 35 -144 b 149 15 92 -108 138 -51 b 115 90 158 68 146 90 b 64 40 89 90 69 74 b 92 -8 58 6 72 -8 b 115 6 100 -8 108 -3 b 21 -124 101 -51 64 -94 z "},":":{"ha":343,"x_min":0,"x_max":0,"o":"m 199 526 b 249 572 224 526 242 539 b 215 628 256 608 242 628 b 164 579 188 628 169 611 b 199 526 158 544 172 526 z m 121 83 b 171 129 146 83 164 96 b 138 185 178 165 164 185 b 86 136 110 185 92 168 b 121 83 81 101 94 83 z "},";":{"ha":343,"x_min":0,"x_max":0,"o":"m 199 526 b 249 572 224 526 242 539 b 215 628 256 608 242 628 b 164 579 188 628 169 611 b 199 526 158 544 172 526 z m 40 -144 b 154 15 97 -108 143 -51 b 121 90 164 68 151 90 b 69 40 94 90 75 74 b 97 -8 64 6 78 -8 b 121 6 106 -8 114 -3 b 26 -124 107 -51 69 -94 z "},"…":{"ha":765,"x_min":0,"x_max":0,"o":"m 529 -10 b 579 36 554 -10 572 3 b 547 90 586 72 574 90 b 496 43 519 90 501 75 b 529 -10 490 8 503 -10 z m 315 -10 b 365 36 340 -10 358 3 b 333 90 372 72 360 90 b 282 43 306 90 288 75 b 315 -10 276 8 289 -10 z m 100 -10 b 150 36 125 -10 143 3 b 118 90 157 72 144 90 b 67 43 90 90 72 75 b 100 -10 61 8 74 -10 z "},"!":{"ha":358,"x_min":0,"x_max":0,"o":"m 153 189 b 272 832 161 222 231 599 l 299 982 l 264 982 l 238 831 b 129 189 196 599 135 222 z m 108 -10 b 158 36 133 -10 151 3 b 126 90 165 72 153 90 b 75 43 99 90 81 75 b 108 -10 69 8 82 -10 z "},"¡":{"ha":358,"x_min":0,"x_max":0,"o":"m 235 719 b 286 767 263 719 281 735 b 253 819 292 801 279 819 b 203 774 228 819 210 807 b 235 719 196 738 208 719 z m 61 -179 l 96 -179 l 124 -22 b 229 621 164 211 225 588 b 218 619 228 619 221 619 b 206 621 214 619 207 619 b 89 -22 199 588 129 211 z "},"?":{"ha":701,"x_min":0,"x_max":0,"o":"m 326 183 l 342 274 b 492 494 364 399 428 447 b 643 714 557 543 622 590 l 653 771 b 451 990 672 879 613 990 b 188 761 296 990 213 904 l 167 639 l 201 639 l 222 761 b 446 958 244 885 311 958 b 618 776 597 958 635 868 l 608 719 b 468 518 589 610 529 565 b 308 276 401 468 332 415 l 299 225 l 292 183 z m 278 -10 b 328 40 304 -10 321 7 b 296 89 333 72 324 89 b 247 40 268 89 253 72 b 278 -10 240 6 251 -10 z "},"¿":{"ha":701,"x_min":0,"x_max":0,"o":"m 417 725 b 367 675 390 725 374 708 b 399 626 361 643 371 626 b 447 675 426 626 442 643 b 417 725 454 710 443 725 z m 243 -275 b 507 -46 399 -275 482 -189 l 528 76 l 493 76 l 472 -46 b 249 -243 450 -169 383 -243 b 76 -61 97 -243 60 -153 l 86 -4 b 226 197 106 106 165 150 b 386 439 293 247 363 300 l 396 490 l 403 532 l 368 532 l 353 442 b 203 221 331 317 267 268 b 51 1 138 172 72 125 l 42 -56 b 243 -275 22 -164 82 -275 z "},"‽":{"ha":701,"x_min":0,"x_max":0,"o":"m 328 183 l 343 274 b 488 497 364 396 425 447 b 646 729 554 550 624 600 l 653 771 b 451 990 671 879 613 990 b 188 761 296 990 213 904 l 167 639 l 201 639 l 222 761 b 432 958 243 881 307 953 l 410 831 b 304 235 372 621 324 349 b 297 183 300 208 299 190 z m 444 832 l 467 958 b 618 776 597 950 632 871 l 610 728 b 472 524 590 614 532 571 b 361 392 432 492 392 456 b 444 832 386 522 421 694 z m 278 -10 b 328 40 304 -10 321 7 b 296 89 333 72 324 89 b 247 40 268 89 253 72 b 278 -10 240 6 251 -10 z "},"⸘":{"ha":701,"x_min":0,"x_max":0,"o":"m 417 725 b 367 675 390 725 374 708 b 399 626 361 643 371 626 b 447 675 426 626 442 643 b 417 725 454 710 443 725 z m 243 -275 b 507 -46 399 -275 482 -189 l 528 76 l 493 76 l 472 -46 b 263 -243 451 -165 388 -237 l 285 -115 b 390 481 322 94 371 367 b 397 532 394 507 396 525 l 367 532 l 351 442 b 207 218 331 319 269 268 b 49 -14 140 165 71 115 l 42 -56 b 243 -275 24 -164 82 -275 z m 76 -61 l 85 -12 b 222 192 104 101 163 144 b 333 324 263 224 303 260 b 250 -117 308 193 274 21 l 228 -243 b 76 -61 97 -235 63 -156 z "},"‘":{"ha":317,"x_min":0,"x_max":0,"o":"m 225 760 b 276 811 251 760 271 778 b 250 857 283 847 269 857 b 222 839 239 857 229 850 b 313 975 232 897 269 940 l 294 994 b 192 836 246 956 203 900 b 225 760 182 781 194 760 z "},"’":{"ha":317,"x_min":0,"x_max":0,"o":"m 199 760 b 301 918 247 799 290 853 b 268 994 311 974 299 994 b 215 943 242 994 221 976 b 242 897 210 907 222 897 b 269 914 251 897 261 903 b 179 779 260 857 224 814 z "},"“":{"ha":481,"x_min":0,"x_max":0,"o":"m 389 760 b 440 811 415 760 435 778 b 414 857 447 847 433 857 b 386 839 403 857 393 850 b 476 975 396 897 433 940 l 458 994 b 356 836 410 956 367 900 b 389 760 346 781 358 760 z m 225 760 b 276 811 251 760 271 778 b 250 857 283 847 269 857 b 222 839 239 857 229 850 b 313 975 232 897 269 940 l 294 994 b 192 836 246 956 203 900 b 225 760 182 781 194 760 z "},"”":{"ha":481,"x_min":0,"x_max":0,"o":"m 199 760 b 301 918 247 799 290 854 b 268 994 311 974 299 994 b 215 943 242 994 221 976 b 242 897 210 907 222 897 b 269 914 251 897 261 903 b 179 779 260 857 224 814 z m 363 760 b 465 918 411 799 454 854 b 432 994 475 974 463 994 b 379 943 406 994 385 976 b 406 897 374 907 386 897 b 433 914 415 897 425 903 b 343 779 424 857 388 814 z "},"‚":{"ha":317,"x_min":0,"x_max":0,"o":"m 39 -144 b 142 14 88 -106 131 -51 b 108 90 151 69 139 90 b 56 39 82 90 63 72 b 83 -7 50 3 64 -7 b 110 8 93 -7 103 -1 b 21 -125 101 -47 64 -90 z "},"„":{"ha":485,"x_min":0,"x_max":0,"o":"m 207 -144 b 310 14 256 -106 299 -51 b 276 90 319 69 307 90 b 224 39 250 90 231 72 b 251 -7 218 3 232 -7 b 278 8 261 -7 271 -1 b 189 -125 269 -47 232 -90 z m 39 -144 b 142 14 88 -106 131 -51 b 108 90 151 69 139 90 b 56 39 82 90 63 72 b 83 -7 50 3 64 -7 b 110 8 93 -7 103 -1 b 21 -125 101 -47 64 -90 z "},"‛":{"ha":317,"x_min":0,"x_max":0,"o":"m 276 779 b 235 915 246 814 225 856 b 256 897 238 904 244 897 b 299 943 275 897 293 907 b 267 994 304 976 293 994 b 204 918 236 994 214 974 b 251 760 193 853 217 799 z "},"‟":{"ha":481,"x_min":0,"x_max":0,"o":"m 276 779 b 235 915 246 814 225 856 b 256 897 238 904 244 897 b 299 943 275 897 293 907 b 267 994 304 976 293 994 b 204 918 236 994 214 974 b 251 760 193 853 217 799 z m 440 779 b 399 915 410 814 389 856 b 419 897 401 904 408 897 b 463 943 439 897 457 907 b 431 994 468 976 457 994 b 368 918 400 994 378 974 b 415 760 357 853 381 799 z "},"‹":{"ha":408,"x_min":0,"x_max":0,"o":"m 276 140 l 119 407 l 369 688 l 325 688 l 85 413 l 83 404 l 236 140 z "},"›":{"ha":408,"x_min":0,"x_max":0,"o":"m 88 140 l 335 404 l 336 413 l 192 688 l 153 688 l 299 413 l 42 140 z "},"«":{"ha":653,"x_min":0,"x_max":0,"o":"m 522 140 l 363 407 l 613 688 l 568 688 l 328 414 l 326 404 l 481 140 z m 276 140 l 124 407 l 372 688 l 329 688 l 88 413 l 86 404 l 235 140 z "},"»":{"ha":653,"x_min":0,"x_max":0,"o":"m 86 140 l 335 404 l 336 414 l 193 688 l 153 688 l 300 415 l 40 140 z m 332 140 l 575 404 l 576 413 l 432 688 l 393 688 l 539 413 l 286 140 z "},"/":{"ha":382,"x_min":0,"x_max":0,"o":"m -6 0 l 31 0 l 429 981 l 393 981 z "},"\\":{"ha":382,"x_min":0,"x_max":0,"o":"m 165 981 l 219 0 l 256 0 l 201 981 z "},"|":{"ha":274,"x_min":0,"x_max":0,"o":"m 51 -201 l 288 1142 l 253 1142 l 17 -201 z "},"‖":{"ha":492,"x_min":0,"x_max":0,"o":"m 235 -201 l 269 -201 l 506 1142 l 471 1142 z m 17 -201 l 51 -201 l 288 1142 l 253 1142 z "},"¦":{"ha":274,"x_min":0,"x_max":0,"o":"m 151 567 l 186 567 l 288 1142 l 253 1142 z m 124 407 l 17 -201 l 51 -201 l 158 407 z "},"•":{"ha":357,"x_min":0,"x_max":0,"o":"m 172 343 b 240 399 210 343 233 358 b 190 461 249 442 228 461 b 122 404 154 461 131 444 b 172 343 115 364 132 343 z "},"·":{"ha":335,"x_min":0,"x_max":0,"o":"m 168 372 b 218 421 194 372 213 386 b 186 472 224 454 213 472 b 135 421 157 472 140 454 b 168 372 129 386 140 372 z "},"-":{"ha":606,"x_min":0,"x_max":0,"o":"m 92 407 l 525 407 l 531 440 l 97 440 z "},"­":{"ha":606,"x_min":0,"x_max":0,"o":"m 92 407 l 525 407 l 531 440 l 97 440 z "},"–":{"ha":613,"x_min":0,"x_max":0,"o":"m 92 407 l 529 407 l 535 440 l 97 440 z "},"—":{"ha":800,"x_min":0,"x_max":0,"o":"m 92 407 l 717 407 l 722 440 l 97 440 z "},"‒":{"ha":710,"x_min":0,"x_max":0,"o":"m 92 407 l 626 407 l 632 440 l 97 440 z "},"―":{"ha":1092,"x_min":0,"x_max":0,"o":"m 92 407 l 1008 407 l 1014 440 l 97 440 z "},"(":{"ha":435,"x_min":0,"x_max":0,"o":"m 264 -267 l 271 -232 b 113 172 132 -215 64 -101 l 189 610 b 490 1015 238 882 347 1001 l 496 1049 b 153 608 324 1036 204 901 l 76 174 b 264 -267 25 -119 107 -244 z "},")":{"ha":435,"x_min":0,"x_max":0,"o":"m -57 -265 b 286 175 115 -253 235 -118 l 363 610 b 175 1050 414 903 332 1028 l 168 1015 b 326 611 307 999 375 885 l 250 174 b -51 -232 201 -99 92 -218 z "},"[":{"ha":414,"x_min":0,"x_max":0,"o":"m 249 -229 l 56 -229 l 274 1014 l 468 1014 l 474 1047 l 244 1047 l 14 -262 l 243 -262 z "},"]":{"ha":414,"x_min":0,"x_max":0,"o":"m 172 -262 l 403 1047 l 174 1047 l 168 1013 l 364 1013 l 146 -229 l -51 -229 l -57 -262 z "},"{":{"ha":415,"x_min":0,"x_max":0,"o":"m 244 -264 l 250 -231 l 199 -231 b 78 -94 82 -231 63 -178 b 201 275 93 1 186 192 b 138 415 217 353 192 404 b 246 543 196 425 233 468 b 256 883 261 629 239 790 b 424 1017 271 969 307 1017 l 471 1017 l 476 1049 l 429 1049 b 222 883 288 1049 240 985 b 213 543 206 788 228 626 b 92 433 200 468 160 433 l 51 433 l 44 399 l 85 399 b 168 275 151 399 183 361 b 44 -85 154 190 61 10 b 193 -264 26 -186 53 -264 z "},"}":{"ha":415,"x_min":0,"x_max":0,"o":"m -1 -217 b 206 -51 140 -217 188 -153 b 215 289 222 44 200 206 b 336 399 228 364 268 399 l 376 399 l 383 433 l 343 433 b 260 557 276 433 244 471 b 383 917 274 642 367 822 b 235 1096 401 1018 375 1096 l 183 1096 l 178 1063 l 229 1063 b 350 926 346 1063 365 1010 b 226 557 335 831 242 640 b 290 417 211 479 236 428 b 182 289 232 407 194 364 b 172 -51 167 203 189 42 b 4 -185 157 -137 121 -185 l -43 -185 l -49 -217 z "},"〈":{"ha":433,"x_min":0,"x_max":0,"o":"m 256 -278 l 124 371 l 494 1035 l 457 1035 l 89 375 l 221 -278 z "},"〉":{"ha":433,"x_min":0,"x_max":0,"o":"m -19 -278 l 342 375 l 208 1035 l 172 1035 l 306 381 l -60 -278 z "},"*":{"ha":453,"x_min":0,"x_max":0,"o":"m 419 726 l 442 757 l 315 824 l 464 889 l 453 918 l 311 832 l 351 985 l 317 985 l 301 833 l 190 918 l 168 888 l 294 824 l 144 757 l 157 728 l 297 814 l 258 661 l 293 661 l 308 815 z "},"†":{"ha":582,"x_min":0,"x_max":0,"o":"m 549 657 l 554 690 l 363 690 l 414 981 l 379 981 l 328 690 l 136 690 l 131 657 l 322 657 l 207 0 l 242 0 l 357 657 z "},"‡":{"ha":582,"x_min":0,"x_max":0,"o":"m 489 318 l 494 351 l 303 351 l 357 657 l 549 657 l 554 690 l 363 690 l 414 981 l 379 981 l 328 690 l 136 690 l 131 657 l 322 657 l 268 351 l 76 351 l 71 318 l 263 318 l 207 0 l 242 0 l 297 318 z "},"§":{"ha":664,"x_min":0,"x_max":0,"o":"m 314 411 b 147 615 219 457 126 500 b 219 722 154 657 188 697 b 392 603 257 668 329 635 b 561 388 488 554 583 510 b 504 290 556 353 532 315 b 314 411 463 349 381 379 z m 283 -14 b 526 175 421 -14 503 49 b 514 272 533 214 528 246 b 596 388 547 301 586 338 b 418 629 621 529 518 581 b 231 839 324 675 210 724 b 424 983 246 929 314 983 b 601 811 554 983 618 914 l 593 761 l 626 761 l 633 801 b 428 1015 657 936 568 1015 b 197 842 299 1015 217 953 b 211 736 189 799 196 765 b 113 615 168 711 122 668 b 288 385 88 479 189 433 b 492 175 389 335 514 297 b 288 21 475 85 414 21 b 92 210 149 21 83 93 l 96 265 l 61 265 l 57 211 b 283 -14 46 75 131 -14 z "},"¶":{"ha":721,"x_min":0,"x_max":0,"o":"m 368 0 l 535 947 l 671 947 l 504 0 l 539 0 l 711 981 l 442 981 b 126 722 265 981 154 876 l 124 704 b 339 449 96 554 181 447 l 413 449 l 333 0 z m 347 482 b 158 704 207 481 133 565 l 161 722 b 436 947 185 856 285 947 l 500 947 l 418 482 z "},"^":{"ha":528,"x_min":0,"x_max":0,"o":"m 433 703 l 472 704 l 385 981 l 353 981 l 167 704 l 207 703 l 364 943 z "},"~":{"ha":528,"x_min":0,"x_max":0,"o":"m 143 758 l 176 758 b 253 854 186 814 210 854 b 422 756 315 854 340 756 b 536 879 483 756 524 804 l 503 879 b 428 786 493 819 467 786 b 258 885 365 786 338 885 b 143 758 197 885 156 833 z "},"_":{"ha":564,"x_min":0,"x_max":0,"o":"m -37 -122 l 425 -122 l 431 -89 l -32 -89 z "},"'":{"ha":189,"x_min":0,"x_max":0,"o":"m 133 661 l 154 661 b 196 864 164 697 188 818 l 217 981 l 183 981 l 163 864 b 133 661 156 819 138 697 z "},"\"":{"ha":315,"x_min":0,"x_max":0,"o":"m 258 661 l 282 661 b 325 875 292 697 317 829 l 343 981 l 310 981 l 292 875 b 258 661 283 831 263 697 z m 132 661 l 156 661 b 199 875 165 697 190 829 l 217 981 l 183 981 l 165 875 b 132 661 157 831 136 697 z "},"‴":{"ha":442,"x_min":0,"x_max":0,"o":"m 385 661 l 408 661 b 451 875 418 697 443 829 l 469 981 l 436 981 l 418 875 b 385 661 410 831 389 697 z m 258 661 l 282 661 b 325 875 292 697 317 829 l 343 981 l 310 981 l 292 875 b 258 661 283 831 263 697 z m 132 661 l 156 661 b 199 875 165 697 190 829 l 217 981 l 183 981 l 165 875 b 132 661 157 831 136 697 z "},"@":{"ha":949,"x_min":0,"x_max":0,"o":"m 406 -153 b 708 -24 533 -153 632 -112 l 678 -11 b 411 -121 613 -86 531 -121 b 101 257 185 -121 56 -3 l 157 568 b 550 940 199 811 342 940 b 860 588 781 940 896 793 l 806 279 b 675 103 785 163 746 103 b 601 210 613 103 590 143 b 697 754 606 229 697 754 l 671 754 l 649 647 b 517 760 639 718 596 760 b 333 550 410 760 358 693 l 283 271 b 414 61 258 133 300 61 b 569 167 489 61 539 99 b 668 71 572 108 606 71 b 838 274 763 71 814 139 l 892 583 b 553 972 931 804 796 972 b 124 568 326 972 169 829 l 68 257 b 406 -153 18 -24 169 -153 z m 419 93 b 315 267 333 93 294 149 l 365 544 b 515 728 386 668 432 728 b 628 539 610 728 650 665 l 581 269 b 419 93 560 154 506 93 z "},"©":{"ha":921,"x_min":0,"x_max":0,"o":"m 419 -14 b 833 350 654 -14 789 101 l 878 604 b 544 990 919 846 754 990 b 124 617 324 990 165 861 l 81 372 b 419 -14 36 118 193 -14 z m 424 19 b 113 364 214 19 72 138 l 156 611 b 543 958 194 842 336 958 b 846 611 736 958 885 829 l 801 357 b 424 19 761 132 644 19 z m 446 183 b 639 363 558 183 618 250 l 646 397 l 611 397 l 604 363 b 446 217 588 271 535 217 b 324 400 336 217 306 294 l 364 625 b 524 765 382 721 440 765 b 646 600 622 765 667 708 l 640 576 l 675 576 l 679 597 b 522 797 704 717 649 797 b 329 622 419 797 349 733 l 290 404 b 446 183 268 276 306 183 z "},"®":{"ha":618,"x_min":0,"x_max":0,"o":"m 357 536 b 613 744 488 536 588 601 b 403 994 638 889 542 994 b 150 786 267 994 174 921 b 357 536 125 647 215 536 z m 361 564 b 179 782 236 564 157 657 b 399 968 200 904 278 968 b 583 749 526 968 607 876 b 361 564 561 622 481 564 z m 404 860 b 454 821 443 860 458 850 b 382 772 449 790 429 772 l 324 772 l 339 860 z m 379 749 b 428 703 426 749 433 733 l 421 667 b 421 656 419 661 419 658 l 451 656 b 450 667 450 658 449 661 l 457 703 b 421 760 464 740 450 754 b 483 821 457 765 476 786 b 407 886 489 858 471 886 l 314 886 l 274 656 l 303 656 l 319 749 z "},"℗":{"ha":921,"x_min":0,"x_max":0,"o":"m 419 -14 b 833 350 654 -14 789 101 l 878 604 b 544 990 919 846 754 990 b 124 617 324 990 165 861 l 81 372 b 419 -14 36 118 193 -14 z m 424 19 b 113 364 214 19 72 138 l 156 611 b 543 958 194 842 336 958 b 846 611 736 958 885 829 l 801 357 b 424 19 761 132 644 19 z m 540 758 b 647 628 638 758 661 707 l 631 535 b 476 407 615 449 565 407 l 364 407 l 426 758 z m 474 375 b 663 529 583 375 644 425 l 679 622 b 544 790 697 724 658 790 l 399 790 l 293 190 l 326 190 l 358 375 z "},"™":{"ha":692,"x_min":0,"x_max":0,"o":"m 356 954 l 360 981 l 140 981 l 136 954 l 231 954 l 160 558 l 188 558 l 258 954 z m 429 847 l 440 944 l 442 933 l 503 669 l 518 669 l 672 935 l 678 946 l 654 847 l 603 558 l 631 558 l 706 981 l 674 981 l 518 714 l 457 981 l 425 981 l 350 558 l 378 558 z "},"℠":{"ha":721,"x_min":0,"x_max":0,"o":"m 458 847 l 469 944 l 471 933 l 532 669 l 547 669 l 701 935 l 707 946 l 683 847 l 632 558 l 660 558 l 735 981 l 703 981 l 547 714 l 486 981 l 454 981 l 379 558 l 407 558 z m 193 550 b 314 658 271 550 304 601 b 235 783 326 731 279 763 b 160 885 192 804 150 825 b 250 958 168 932 201 958 b 318 886 300 958 326 932 l 313 851 l 339 851 l 344 886 b 251 983 356 950 315 983 b 133 889 189 983 144 950 b 211 765 121 817 168 786 b 288 661 257 746 299 721 b 193 575 281 610 250 575 b 114 664 132 575 106 614 l 119 697 l 93 697 l 88 664 b 193 550 75 599 113 550 z "},"€":{"ha":739,"x_min":0,"x_max":0,"o":"m 653 289 l 656 310 l 619 310 l 617 290 b 364 21 585 114 521 21 b 164 318 178 21 133 140 l 172 364 l 383 364 l 401 397 l 178 397 l 213 586 l 497 586 l 515 619 l 218 619 l 228 674 b 485 958 265 879 344 958 b 688 674 653 958 719 850 l 724 674 b 490 990 758 871 665 990 b 193 682 328 990 232 897 l 182 619 l 79 619 l 74 586 l 176 586 l 142 397 l 40 397 l 35 364 l 136 364 l 128 318 b 360 -14 93 121 157 -14 b 653 289 539 -14 617 88 z "},"$":{"ha":660,"x_min":0,"x_max":0,"o":"m 188 768 l 190 785 b 403 958 210 900 294 958 l 419 958 l 344 532 b 188 768 251 586 167 643 z m 288 21 l 285 21 l 365 481 b 528 236 460 426 546 367 l 525 218 b 288 21 506 100 439 21 z m 292 -14 b 560 211 456 -14 535 75 l 563 231 b 372 517 586 392 478 456 l 450 956 b 607 743 578 939 626 851 l 597 689 l 632 689 l 642 744 b 454 986 661 868 601 968 l 485 1157 l 454 1157 l 425 989 l 404 989 b 156 788 279 989 178 919 l 153 771 b 339 497 126 619 233 557 l 254 22 b 83 264 119 33 57 115 l 94 324 l 58 324 l 47 264 b 249 -12 15 100 93 3 l 219 -178 l 250 -178 l 279 -14 z "},"¢":{"ha":643,"x_min":0,"x_max":0,"o":"m 288 -12 b 538 218 440 -12 510 65 l 544 254 l 510 254 l 503 219 b 290 21 479 89 418 21 b 100 288 118 21 74 135 l 149 558 b 376 765 174 692 254 765 b 557 529 531 765 585 679 l 553 510 l 589 510 l 592 522 b 425 794 619 681 561 776 l 460 1000 l 426 1000 l 392 797 l 376 797 b 113 556 233 797 140 710 l 67 293 b 250 -11 38 128 82 6 l 208 -243 l 242 -243 l 282 -12 z "},"£":{"ha":761,"x_min":0,"x_max":0,"o":"m 101 17 b 25 90 43 17 18 47 b 111 157 33 131 60 157 b 243 103 157 157 200 133 b 101 17 210 50 160 17 z m 476 -14 b 658 190 588 -14 631 39 l 671 261 l 636 261 l 625 197 b 481 19 601 60 568 19 b 283 111 407 19 344 67 b 311 201 296 139 306 168 b 307 426 324 278 318 353 l 489 426 l 494 458 l 301 458 b 276 811 282 572 256 694 b 469 976 296 924 363 976 b 611 796 574 976 632 917 l 604 763 l 636 763 l 643 796 b 467 1007 667 929 593 1007 b 244 813 351 1007 268 946 b 269 458 224 694 251 569 l 124 458 l 118 426 l 275 426 b 281 204 289 353 294 281 b 257 129 276 178 268 151 b 111 189 210 163 163 189 b -8 97 51 189 3 156 b 99 -15 -18 36 10 -15 b 268 85 169 -15 229 22 b 476 -14 332 38 397 -14 z "},"ƒ":{"ha":410,"x_min":0,"x_max":0,"o":"m 165 118 l 236 517 l 394 517 l 400 547 l 242 547 l 293 842 b 461 1024 321 996 351 1024 l 483 1024 l 490 1056 l 468 1056 b 261 843 336 1056 290 1015 l 208 547 l 68 547 l 63 517 l 204 517 l 133 119 b -35 -62 106 -35 75 -62 l -57 -62 l -62 -94 l -40 -94 b 165 118 92 -94 136 -54 z "},"¥":{"ha":613,"x_min":0,"x_max":0,"o":"m 476 151 l 482 182 l 282 182 l 306 322 l 506 322 l 511 353 l 314 353 l 671 981 l 631 981 l 308 406 l 297 378 l 299 406 l 189 981 l 153 981 l 278 353 l 92 353 l 86 322 l 274 322 l 250 182 l 63 182 l 57 151 l 244 151 l 218 0 l 250 0 l 276 151 z "},"₡":{"ha":719,"x_min":0,"x_max":0,"o":"m 115 318 l 179 674 b 443 958 217 879 303 958 l 458 958 l 153 82 b 115 318 107 133 97 217 z m 276 24 b 178 60 235 29 203 42 l 489 956 b 588 918 529 950 563 938 z m 210 -162 l 243 -162 l 294 -14 l 318 -14 b 618 288 497 -14 582 86 l 625 329 l 589 329 l 582 289 b 322 21 550 113 479 21 l 307 21 l 613 896 b 653 675 656 847 671 771 l 640 604 l 676 604 l 689 675 b 625 931 710 790 683 878 l 703 1143 l 672 1143 l 600 950 b 500 986 572 968 539 981 l 557 1143 l 525 1143 l 469 990 l 449 990 b 144 682 286 990 183 897 l 79 318 b 140 43 58 197 76 100 l 64 -162 l 96 -162 l 165 24 b 264 -10 192 7 225 -4 z "},"₢":{"ha":708,"x_min":0,"x_max":0,"o":"m 611 288 l 618 329 l 582 329 l 575 289 b 322 21 543 113 479 21 l 317 21 l 365 293 b 556 496 390 435 433 496 l 575 496 l 582 529 l 564 529 b 388 429 475 529 421 494 l 403 529 l 374 529 l 283 22 b 122 318 131 39 94 153 l 186 674 b 443 958 224 879 303 958 b 646 675 611 958 678 851 l 642 651 l 678 651 l 682 675 b 449 990 717 872 624 990 b 151 682 286 990 190 897 l 86 318 b 318 -14 51 121 115 -14 b 611 288 497 -14 575 86 z "},"₣":{"ha":576,"x_min":0,"x_max":0,"o":"m 461 344 l 467 376 l 151 376 l 186 574 l 501 574 l 507 606 l 192 606 l 251 947 l 629 947 l 635 981 l 222 981 l 50 0 l 85 0 l 146 344 z "},"₤":{"ha":771,"x_min":0,"x_max":0,"o":"m 101 17 b 25 90 43 17 18 47 b 111 157 33 131 60 157 b 242 103 157 157 200 133 b 101 17 210 50 160 17 z m 476 -14 b 658 190 588 -14 631 39 l 671 261 l 636 261 l 625 197 b 481 19 601 60 568 19 b 283 111 407 19 344 67 b 311 201 296 139 306 168 b 315 358 321 254 321 307 l 482 358 l 488 389 l 313 389 b 290 518 307 432 299 475 l 510 518 l 515 549 l 285 549 b 271 815 268 638 256 726 b 460 976 290 928 351 976 b 606 799 560 976 626 914 l 596 753 l 628 753 l 638 797 b 464 1007 663 921 582 1007 b 239 817 343 1007 263 950 b 251 549 222 726 235 638 l 117 549 l 111 518 l 258 518 b 281 389 267 475 275 432 l 89 389 l 83 358 l 285 358 b 281 204 290 307 290 256 b 257 129 275 178 267 153 b 111 189 210 163 163 189 b -8 97 51 189 3 156 b 99 -15 -18 36 10 -15 b 268 85 169 -15 229 22 b 476 -14 332 38 397 -14 z "},"₦":{"ha":771,"x_min":0,"x_max":0,"o":"m 240 817 l 257 933 l 264 894 l 356 604 l 203 604 z m 406 444 l 175 444 l 197 574 l 365 574 z m 618 444 l 438 444 l 396 574 l 642 574 z m 546 0 l 575 0 l 647 414 l 763 414 l 768 444 l 653 444 l 676 574 l 790 574 l 796 604 l 681 604 l 747 981 l 713 981 l 646 604 l 386 604 l 267 981 l 235 981 l 168 604 l 53 604 l 47 574 l 164 574 l 140 444 l 25 444 l 19 414 l 135 414 l 63 0 l 97 0 l 169 414 l 415 414 z m 543 113 l 447 414 l 613 414 l 572 182 l 554 53 z "},"₧":{"ha":1507,"x_min":0,"x_max":0,"o":"m 414 947 b 592 719 571 947 614 847 l 567 578 b 329 357 543 442 478 356 l 147 357 l 251 947 z m 324 324 b 600 564 497 322 575 419 l 626 714 b 632 753 629 726 631 740 l 778 753 l 696 289 b 947 0 660 82 722 0 l 1133 0 b 1400 190 1294 0 1376 60 b 1218 424 1425 332 1321 379 b 1047 621 1121 465 1026 506 b 1240 765 1063 711 1131 765 b 1418 593 1371 765 1435 696 l 1410 543 l 1443 543 l 1450 583 b 1244 797 1474 718 1385 797 b 1014 624 1115 797 1033 735 b 1188 400 990 489 1088 443 b 1365 190 1286 356 1388 315 b 1135 33 1344 83 1274 33 l 956 33 b 729 289 757 33 696 101 l 811 753 l 976 753 l 982 783 l 817 783 l 854 996 l 829 996 b 799 840 825 976 800 850 b 739 782 786 783 785 782 l 633 781 b 421 981 632 900 565 981 l 222 981 l 50 0 l 85 0 l 142 324 z "},"₨":{"ha":1274,"x_min":0,"x_max":0,"o":"m 893 -15 b 1163 190 1054 -15 1139 56 b 985 422 1188 331 1086 379 b 814 621 889 465 793 504 b 1007 765 829 711 897 765 b 1185 593 1138 765 1201 696 l 1176 543 l 1210 543 l 1217 583 b 1011 797 1240 718 1151 797 b 781 624 882 797 800 735 b 957 397 756 486 857 442 b 1128 190 1054 354 1150 313 b 899 18 1107 75 1042 18 l 874 18 b 639 208 736 18 681 65 l 614 294 b 453 463 581 410 533 450 b 643 656 561 481 622 539 l 658 733 b 458 981 686 882 625 981 l 222 981 l 50 0 l 85 0 l 164 447 l 361 447 b 582 275 475 447 544 418 l 606 190 b 867 -15 646 40 711 -15 z m 453 947 b 624 742 604 947 647 865 l 608 664 b 371 478 585 538 504 478 l 169 478 l 251 947 z "},"₩":{"ha":1007,"x_min":0,"x_max":0,"o":"m 585 899 l 596 936 l 593 899 l 610 604 l 460 604 z m 363 444 l 211 444 l 214 574 l 417 574 z m 619 444 l 392 444 l 446 574 l 613 574 z m 804 444 l 647 444 l 640 574 l 850 574 z m 201 103 l 210 414 l 349 414 l 217 106 l 194 44 z m 646 0 l 678 0 l 825 414 l 999 414 l 1004 444 l 835 444 l 881 574 l 1026 574 l 1032 604 l 892 604 l 1025 981 l 993 981 l 861 604 l 638 604 l 615 981 l 592 981 l 431 604 l 215 604 l 225 981 l 193 981 l 183 604 l 53 604 l 47 574 l 183 574 l 179 444 l 25 444 l 19 414 l 179 414 l 168 0 l 201 0 l 378 414 l 621 414 z m 668 106 l 650 414 l 793 414 l 683 101 l 667 43 z "},"₪":{"ha":868,"x_min":0,"x_max":0,"o":"m 425 947 b 586 733 579 947 613 882 l 493 211 b 536 254 522 211 531 222 l 621 733 b 426 981 649 892 601 981 l 222 981 l 50 0 l 85 0 l 250 947 z m 482 0 b 736 246 635 0 707 86 l 867 988 l 832 988 l 701 246 b 489 33 678 111 618 33 l 292 33 l 414 729 b 388 772 419 764 417 772 l 251 0 z "},"₮":{"ha":546,"x_min":0,"x_max":0,"o":"m 467 450 l 472 483 l 292 414 l 319 569 l 500 639 l 506 672 l 325 603 l 386 947 l 604 947 l 610 981 l 147 981 l 142 947 l 351 947 l 288 589 l 117 522 l 111 489 l 282 554 l 254 400 l 83 333 l 78 300 l 249 367 l 185 0 l 219 0 l 286 381 z "},"₱":{"ha":707,"x_min":0,"x_max":0,"o":"m 414 947 b 599 750 563 947 610 865 l 256 750 l 290 947 z m 567 557 l 222 557 l 250 718 l 594 718 z m 324 321 l 181 321 l 217 525 l 561 525 b 324 321 535 399 469 319 z m 318 288 b 594 525 490 286 568 382 l 708 525 l 714 557 l 600 557 l 626 714 l 628 718 l 743 718 l 749 750 l 632 750 b 421 981 643 883 579 981 l 261 981 l 221 750 l 96 750 l 90 718 l 215 718 l 186 557 l 61 557 l 56 525 l 181 525 l 89 0 l 124 0 l 174 288 z "},"฿":{"ha":708,"x_min":0,"x_max":0,"o":"m 376 525 l 176 525 l 251 947 l 451 947 z m 418 525 l 410 525 l 485 947 b 654 753 632 943 674 864 l 644 701 b 418 525 622 576 556 524 z m 90 33 l 171 493 l 371 493 l 290 33 z m 414 493 b 585 288 564 493 607 410 l 574 218 b 343 33 551 99 503 33 l 324 33 l 404 493 z m 338 0 b 608 211 521 0 582 67 l 619 281 b 503 507 642 403 608 482 b 679 694 611 524 660 582 l 689 746 b 490 981 713 882 657 976 l 514 1113 l 481 1113 l 457 981 l 222 981 l 50 0 l 285 0 l 258 -146 l 292 -146 l 318 0 z "},"#":{"ha":910,"x_min":0,"x_max":0,"o":"m 549 394 l 322 394 l 400 626 l 628 626 z m 415 0 l 449 0 l 571 363 l 794 363 l 800 394 l 582 394 l 660 626 l 882 626 l 888 658 l 671 658 l 779 981 l 747 981 l 638 658 l 411 658 l 519 981 l 488 981 l 378 658 l 161 658 l 156 626 l 368 626 l 289 394 l 72 394 l 67 363 l 278 363 l 156 0 l 190 0 l 313 363 l 538 363 z "},"⁰":{"ha":389,"x_min":0,"x_max":0,"o":"m 228 499 b 375 646 315 499 357 547 l 408 832 b 289 989 425 928 376 989 b 142 839 210 989 161 943 l 110 661 b 228 499 93 564 128 499 z m 228 529 b 140 661 150 529 126 586 l 171 835 b 289 960 189 926 226 960 b 376 832 364 960 390 906 l 343 647 b 228 529 328 565 296 529 z "},"¹":{"ha":261,"x_min":0,"x_max":0,"o":"m 249 504 l 253 535 l 176 535 l 254 982 l 226 982 b 146 908 211 932 192 908 l 140 876 b 214 922 181 878 200 894 l 146 535 l 65 535 l 61 504 z "},"²":{"ha":363,"x_min":0,"x_max":0,"o":"m 336 504 l 342 536 l 118 536 b 254 692 131 601 192 646 b 390 854 315 736 378 782 l 392 861 b 282 988 406 929 369 988 b 146 861 208 988 160 939 l 135 799 l 168 799 l 179 861 b 283 958 190 925 222 958 b 361 867 346 958 369 914 l 360 860 b 224 707 349 797 286 754 b 82 529 160 660 96 610 l 78 504 z "},"³":{"ha":372,"x_min":0,"x_max":0,"o":"m 215 497 b 360 625 311 497 346 547 l 361 633 b 308 749 371 690 356 732 b 394 861 363 763 385 804 l 396 867 b 286 988 408 936 369 988 b 149 874 204 988 161 942 l 140 826 l 174 826 l 182 874 b 283 958 192 925 222 958 b 365 868 350 958 375 919 l 364 861 b 261 765 354 804 331 765 l 215 765 l 210 735 l 257 735 b 329 633 319 735 340 690 l 328 625 b 219 528 317 560 285 528 b 129 614 150 528 119 557 l 140 672 l 107 672 l 96 614 b 215 497 83 544 129 497 z "},"⁴":{"ha":358,"x_min":0,"x_max":0,"o":"m 329 919 l 282 647 l 119 647 l 333 935 z m 365 619 l 371 647 l 311 647 l 369 982 l 338 982 l 83 646 l 79 619 l 276 619 l 257 504 l 286 504 l 306 619 z "},"⁵":{"ha":376,"x_min":0,"x_max":0,"o":"m 215 497 b 361 629 300 497 346 540 b 374 694 361 629 372 688 b 276 826 389 778 347 826 b 169 771 228 826 196 806 b 219 951 181 815 207 908 l 364 951 b 403 982 390 951 399 960 l 199 982 l 128 728 l 153 721 l 163 733 b 271 797 190 772 214 797 b 342 692 331 797 356 763 b 331 628 342 688 331 628 b 217 528 318 557 279 528 b 138 629 144 528 126 565 l 142 649 l 110 649 l 106 628 b 215 497 93 556 122 497 z "},"⁶":{"ha":382,"x_min":0,"x_max":0,"o":"m 365 621 l 372 667 b 268 799 386 746 346 799 b 153 728 213 799 175 768 l 171 828 b 286 958 186 914 213 958 b 367 875 354 958 375 925 l 363 846 l 394 846 l 399 875 b 290 988 411 940 367 988 b 140 828 194 988 158 931 l 108 650 b 218 497 92 556 128 497 b 365 621 308 497 353 546 z m 222 528 b 138 643 156 528 125 568 l 140 657 b 264 769 149 713 188 769 b 343 672 325 769 351 732 l 336 628 b 222 528 326 568 296 528 z "},"⁷":{"ha":311,"x_min":0,"x_max":0,"o":"m 149 504 b 376 957 199 663 289 832 l 381 982 l 140 982 l 135 950 l 342 950 b 115 504 260 832 167 663 z "},"⁸":{"ha":372,"x_min":0,"x_max":0,"o":"m 211 497 b 363 607 297 497 349 531 l 367 629 b 301 749 376 690 344 733 b 396 850 346 756 383 786 l 399 865 b 290 988 411 939 374 988 b 151 874 204 988 164 943 l 149 857 b 199 751 139 803 163 764 b 101 649 156 740 113 706 l 97 626 b 211 497 83 549 121 497 z m 249 764 b 181 854 194 764 172 800 l 183 871 b 285 958 192 922 219 958 b 367 865 347 958 376 921 l 364 850 b 263 764 353 793 317 764 z m 215 528 b 128 622 147 528 118 567 l 132 646 b 239 735 142 703 183 735 l 254 735 b 335 635 308 735 346 697 l 331 611 b 215 528 321 556 283 528 z "},"⁹":{"ha":381,"x_min":0,"x_max":0,"o":"m 244 714 b 165 811 183 714 157 751 l 172 856 b 281 958 183 911 210 958 b 369 833 356 958 383 913 l 364 803 b 244 714 349 756 310 714 z m 218 496 b 368 656 314 496 350 553 l 399 826 b 285 988 418 935 367 988 b 143 863 199 988 156 929 l 136 817 b 240 685 122 738 163 685 b 356 753 294 685 332 714 l 338 656 b 222 525 322 569 296 525 b 142 608 154 525 133 558 l 146 638 l 114 638 l 110 608 b 218 496 97 543 142 496 z "},"⁺":{"ha":371,"x_min":0,"x_max":0,"o":"m 367 735 l 371 764 l 264 764 l 282 865 l 253 865 l 235 764 l 129 764 l 125 735 l 231 735 l 211 628 l 240 628 l 260 735 z "},"⁻":{"ha":371,"x_min":0,"x_max":0,"o":"m 124 733 l 365 733 l 371 764 l 129 764 z "},"⁼":{"ha":371,"x_min":0,"x_max":0,"o":"m 142 789 l 369 789 l 374 819 l 146 819 z m 118 658 l 346 658 l 351 689 l 124 689 z "},"⁽":{"ha":256,"x_min":0,"x_max":0,"o":"m 236 396 l 242 426 b 146 621 157 447 124 490 l 189 861 b 353 1058 211 993 265 1053 l 358 1089 b 160 871 251 1082 185 1018 l 117 625 b 236 396 90 478 138 415 z "},"⁾":{"ha":256,"x_min":0,"x_max":0,"o":"m 22 394 b 221 613 129 401 196 465 l 264 858 b 144 1088 290 1006 243 1068 l 139 1057 b 235 863 224 1036 257 993 l 192 622 b 28 425 169 490 115 431 z "},"₀":{"ha":389,"x_min":0,"x_max":0,"o":"m 139 -7 b 286 140 226 -7 268 42 l 319 326 b 200 483 336 422 288 483 b 53 333 121 483 72 438 l 21 156 b 139 -7 4 58 39 -7 z m 139 24 b 51 156 61 24 38 81 l 82 329 b 200 454 100 421 138 454 b 288 326 275 454 301 400 l 254 142 b 139 24 239 60 207 24 z "},"₁":{"ha":261,"x_min":0,"x_max":0,"o":"m 160 0 l 164 31 l 88 31 l 165 478 l 138 478 b 57 404 122 428 103 404 l 51 372 b 125 418 92 374 111 390 l 57 31 l -24 31 l -28 0 z "},"₂":{"ha":363,"x_min":0,"x_max":0,"o":"m 247 0 l 253 32 l 29 32 b 165 188 42 97 103 142 b 301 350 226 232 289 278 l 303 357 b 193 483 317 425 281 483 b 57 357 119 483 71 435 l 46 294 l 79 294 l 90 357 b 194 454 101 421 133 454 b 272 363 257 454 281 410 l 271 356 b 135 203 260 293 197 250 b -7 25 71 156 7 106 l -11 0 z "},"₃":{"ha":372,"x_min":0,"x_max":0,"o":"m 126 -7 b 271 121 222 -7 257 43 l 272 129 b 219 244 282 186 267 228 b 306 357 274 258 296 300 l 307 363 b 197 483 319 432 281 483 b 60 369 115 483 72 438 l 51 322 l 85 322 l 93 369 b 194 454 103 421 133 454 b 276 364 261 454 286 415 l 275 357 b 172 261 265 300 242 261 l 126 261 l 121 231 l 168 231 b 240 129 231 231 251 186 l 239 121 b 131 24 228 56 196 24 b 40 110 61 24 31 53 l 51 168 l 18 168 l 7 110 b 126 -7 -6 40 40 -7 z "},"₄":{"ha":358,"x_min":0,"x_max":0,"o":"m 240 415 l 193 143 l 31 143 l 244 431 z m 276 115 l 282 143 l 222 143 l 281 478 l 249 478 l -6 142 l -10 115 l 188 115 l 168 0 l 197 0 l 217 115 z "},"₅":{"ha":376,"x_min":0,"x_max":0,"o":"m 126 -7 b 272 125 211 -7 257 36 b 285 190 272 125 283 183 b 188 322 300 274 258 322 b 81 267 139 322 107 301 b 131 447 92 311 118 404 l 275 447 b 314 478 301 447 310 456 l 110 478 l 39 224 l 64 217 l 74 229 b 182 293 101 268 125 293 b 253 188 242 293 267 258 b 242 124 253 183 242 124 b 128 24 229 53 190 24 b 49 125 56 24 38 61 l 53 144 l 21 144 l 17 124 b 126 -7 4 51 33 -7 z "},"₆":{"ha":382,"x_min":0,"x_max":0,"o":"m 276 117 l 283 163 b 179 294 297 242 257 294 b 64 224 124 294 86 264 l 82 324 b 197 454 97 410 124 454 b 278 371 265 454 286 421 l 274 342 l 306 342 l 310 371 b 201 483 322 436 278 483 b 51 324 106 483 69 426 l 19 146 b 129 -7 3 51 39 -7 b 276 117 219 -7 264 42 z m 133 24 b 49 139 67 24 36 64 l 51 153 b 175 265 60 208 99 265 b 254 168 236 265 263 228 l 247 124 b 133 24 238 64 207 24 z "},"₇":{"ha":311,"x_min":0,"x_max":0,"o":"m 60 0 b 288 453 110 158 200 328 l 292 478 l 51 478 l 46 446 l 253 446 b 26 0 171 328 78 158 z "},"₈":{"ha":371,"x_min":0,"x_max":0,"o":"m 121 -7 b 272 103 207 -7 258 26 l 276 125 b 211 244 286 186 254 229 b 306 346 256 251 293 282 l 308 361 b 200 483 321 435 283 483 b 61 369 114 483 74 439 l 58 353 b 108 247 49 299 72 260 b 11 144 65 236 22 201 l 7 122 b 121 -7 -7 44 31 -7 z m 158 260 b 90 350 104 260 82 296 l 93 367 b 194 454 101 418 129 454 b 276 361 257 454 286 417 l 274 346 b 172 260 263 289 226 260 z m 125 24 b 38 118 57 24 28 63 l 42 142 b 149 231 51 199 93 231 l 164 231 b 244 131 218 231 256 193 l 240 107 b 125 24 231 51 193 24 z "},"₉":{"ha":381,"x_min":0,"x_max":0,"o":"m 156 210 b 76 307 94 210 68 247 l 83 351 b 192 454 94 407 121 454 b 281 329 267 454 294 408 l 275 299 b 156 210 260 251 221 210 z m 129 -8 b 279 151 225 -8 261 49 l 310 322 b 196 483 329 431 278 483 b 54 358 110 483 67 425 l 47 313 b 151 181 33 233 74 181 b 267 249 206 181 243 210 l 249 151 b 133 21 233 65 207 21 b 53 104 65 21 44 54 l 57 133 l 25 133 l 21 104 b 129 -8 8 39 53 -8 z "},"₊":{"ha":371,"x_min":0,"x_max":0,"o":"m 278 229 l 282 258 l 175 258 l 193 360 l 164 360 l 146 258 l 40 258 l 36 229 l 142 229 l 122 122 l 151 122 l 171 229 z "},"₋":{"ha":371,"x_min":0,"x_max":0,"o":"m 35 228 l 276 228 l 282 258 l 40 258 z "},"₌":{"ha":371,"x_min":0,"x_max":0,"o":"m 54 292 l 282 292 l 286 322 l 58 322 z m 31 161 l 258 161 l 264 192 l 36 192 z "},"₍":{"ha":256,"x_min":0,"x_max":0,"o":"m 144 -131 l 150 -100 b 54 94 65 -79 32 -36 l 97 335 b 261 532 119 467 174 526 l 267 563 b 68 344 160 556 93 492 l 25 99 b 144 -131 -1 -49 46 -111 z "},"₎":{"ha":256,"x_min":0,"x_max":0,"o":"m -69 -132 b 129 86 38 -125 104 -61 l 172 332 b 53 561 199 479 151 542 l 47 531 b 143 336 132 510 165 467 l 100 96 b -64 -101 78 -36 24 -96 z "},"⁄":{"ha":808,"x_min":0,"x_max":0,"o":"m 481 553 l 835 981 l 803 1003 l 467 561 z m 42 -19 l 393 446 l 379 456 l 8 7 z "},"⅟":{"ha":808,"x_min":0,"x_max":0,"o":"m 481 553 l 835 981 l 803 1003 l 467 561 z m 42 -19 l 393 446 l 379 456 l 8 7 z m 311 504 l 315 535 l 239 535 l 317 982 l 289 982 b 208 908 274 932 254 908 l 203 876 b 276 922 243 878 263 894 l 208 535 l 128 535 l 124 504 z "},"½":{"ha":808,"x_min":0,"x_max":0,"o":"m 481 553 l 835 981 l 803 1003 l 467 561 z m 42 -19 l 393 446 l 379 456 l 8 7 z m 311 504 l 315 535 l 239 535 l 317 982 l 289 982 b 208 908 274 932 254 908 l 203 876 b 276 922 243 878 263 894 l 208 535 l 128 535 l 124 504 z m 674 0 l 679 32 l 456 32 b 592 188 468 97 529 142 b 728 350 653 232 715 278 l 729 357 b 619 483 743 425 707 483 b 483 357 546 483 497 435 l 472 294 l 506 294 l 517 357 b 621 454 528 421 560 454 b 699 363 683 454 707 410 l 697 356 b 561 203 686 293 624 250 b 419 25 497 156 433 106 l 415 0 z "},"⅓":{"ha":808,"x_min":0,"x_max":0,"o":"m 481 553 l 835 981 l 803 1003 l 467 561 z m 42 -19 l 393 446 l 379 456 l 8 7 z m 311 504 l 315 535 l 239 535 l 317 982 l 289 982 b 208 908 274 932 254 908 l 203 876 b 276 922 243 878 263 894 l 208 535 l 128 535 l 124 504 z m 546 -7 b 690 121 642 -7 676 43 l 692 129 b 639 244 701 186 686 228 b 725 357 693 258 715 300 l 726 363 b 617 483 739 432 700 483 b 479 369 535 483 492 438 l 471 322 l 504 322 l 513 369 b 614 454 522 421 553 454 b 696 364 681 454 706 415 l 694 357 b 592 261 685 300 661 261 l 546 261 l 540 231 l 588 231 b 660 129 650 231 671 186 l 658 121 b 550 24 647 56 615 24 b 460 110 481 24 450 53 l 471 168 l 438 168 l 426 110 b 546 -7 414 40 460 -7 z "},"⅔":{"ha":808,"x_min":0,"x_max":0,"o":"m 481 553 l 835 981 l 803 1003 l 467 561 z m 42 -19 l 393 446 l 379 456 l 8 7 z m 343 504 l 349 536 l 125 536 b 261 692 138 601 199 646 b 397 854 322 736 385 782 l 399 861 b 289 988 413 929 376 988 b 153 861 215 988 167 939 l 142 799 l 175 799 l 186 861 b 290 958 197 925 229 958 b 368 867 353 958 376 914 l 367 860 b 231 707 356 797 293 754 b 89 529 167 660 103 610 l 85 504 z m 546 -7 b 690 121 642 -7 676 43 l 692 129 b 639 244 701 186 686 228 b 725 357 693 258 715 300 l 726 363 b 617 483 739 432 700 483 b 479 369 535 483 492 438 l 471 322 l 504 322 l 513 369 b 614 454 522 421 553 454 b 696 364 681 454 706 415 l 694 357 b 592 261 685 300 661 261 l 546 261 l 540 231 l 588 231 b 660 129 650 231 671 186 l 658 121 b 550 24 647 56 615 24 b 460 110 481 24 450 53 l 471 168 l 438 168 l 426 110 b 546 -7 414 40 460 -7 z "},"¼":{"ha":808,"x_min":0,"x_max":0,"o":"m 481 553 l 835 981 l 803 1003 l 467 561 z m 42 -19 l 393 446 l 379 456 l 8 7 z m 618 415 l 571 143 l 408 143 l 622 431 z m 654 115 l 660 143 l 600 143 l 658 478 l 626 478 l 372 142 l 368 115 l 565 115 l 546 0 l 575 0 l 594 115 z m 313 504 l 317 535 l 240 535 l 318 982 l 290 982 b 210 908 275 932 256 908 l 204 876 b 278 922 244 878 264 894 l 210 535 l 129 535 l 125 504 z "},"¾":{"ha":808,"x_min":0,"x_max":0,"o":"m 481 553 l 835 981 l 803 1003 l 467 561 z m 42 -19 l 393 446 l 379 456 l 8 7 z m 618 415 l 571 143 l 408 143 l 622 431 z m 654 115 l 660 143 l 600 143 l 658 478 l 626 478 l 372 142 l 368 115 l 565 115 l 546 0 l 575 0 l 594 115 z m 226 497 b 371 625 322 497 357 547 l 372 633 b 319 749 382 690 367 732 b 406 861 374 763 396 804 l 407 867 b 297 988 419 936 381 988 b 160 874 215 988 172 942 l 151 826 l 185 826 l 193 874 b 294 958 203 925 233 958 b 376 868 361 958 386 919 l 375 861 b 272 765 365 804 342 765 l 226 765 l 221 735 l 268 735 b 340 633 331 735 351 690 l 339 625 b 231 528 328 560 296 528 b 140 614 161 528 131 557 l 151 672 l 118 672 l 107 614 b 226 497 94 544 140 497 z "},"⅕":{"ha":808,"x_min":0,"x_max":0,"o":"m 481 553 l 835 981 l 803 1003 l 467 561 z m 42 -19 l 393 446 l 379 456 l 8 7 z m 546 -7 b 692 125 631 -7 676 36 b 704 190 692 125 703 183 b 607 322 719 274 678 322 b 500 267 558 322 526 301 b 550 447 511 311 538 404 l 694 447 b 733 478 721 447 729 456 l 529 478 l 458 224 l 483 217 l 493 229 b 601 293 521 268 544 293 b 672 188 661 293 686 258 b 661 124 672 183 661 124 b 547 24 649 53 610 24 b 468 125 475 24 457 61 l 472 144 l 440 144 l 436 124 b 546 -7 424 51 453 -7 z m 313 504 l 317 535 l 240 535 l 318 982 l 290 982 b 210 908 275 932 256 908 l 204 876 b 278 922 244 878 264 894 l 210 535 l 129 535 l 125 504 z "},"⅖":{"ha":808,"x_min":0,"x_max":0,"o":"m 481 553 l 835 981 l 803 1003 l 467 561 z m 42 -19 l 393 446 l 379 456 l 8 7 z m 546 -7 b 692 125 631 -7 676 36 b 704 190 692 125 703 183 b 607 322 719 274 678 322 b 500 267 558 322 526 301 b 550 447 511 311 538 404 l 694 447 b 733 478 721 447 729 456 l 529 478 l 458 224 l 483 217 l 493 229 b 601 293 521 268 544 293 b 672 188 661 293 686 258 b 661 124 672 183 661 124 b 547 24 649 53 610 24 b 468 125 475 24 457 61 l 472 144 l 440 144 l 436 124 b 546 -7 424 51 453 -7 z m 343 504 l 349 536 l 125 536 b 261 692 138 601 199 646 b 397 854 322 736 385 782 l 399 861 b 289 988 413 929 376 988 b 153 861 215 988 167 939 l 142 799 l 175 799 l 186 861 b 290 958 197 925 229 958 b 368 867 353 958 376 914 l 367 860 b 231 707 356 797 293 754 b 89 529 167 660 103 610 l 85 504 z "},"⅗":{"ha":808,"x_min":0,"x_max":0,"o":"m 481 553 l 835 981 l 803 1003 l 467 561 z m 42 -19 l 393 446 l 379 456 l 8 7 z m 546 -7 b 692 125 631 -7 676 36 b 704 190 692 125 703 183 b 607 322 719 274 678 322 b 500 267 558 322 526 301 b 550 447 511 311 538 404 l 694 447 b 733 478 721 447 729 456 l 529 478 l 458 224 l 483 217 l 493 229 b 601 293 521 268 544 293 b 672 188 661 293 686 258 b 661 124 672 183 661 124 b 547 24 649 53 610 24 b 468 125 475 24 457 61 l 472 144 l 440 144 l 436 124 b 546 -7 424 51 453 -7 z m 226 497 b 371 625 322 497 357 547 l 372 633 b 319 749 382 690 367 732 b 406 861 374 763 396 804 l 407 867 b 297 988 419 936 381 988 b 160 874 215 988 172 942 l 151 826 l 185 826 l 193 874 b 294 958 203 925 233 958 b 376 868 361 958 386 919 l 375 861 b 272 765 365 804 342 765 l 226 765 l 221 735 l 268 735 b 340 633 331 735 351 690 l 339 625 b 231 528 328 560 296 528 b 140 614 161 528 131 557 l 151 672 l 118 672 l 107 614 b 226 497 94 544 140 497 z "},"⅘":{"ha":808,"x_min":0,"x_max":0,"o":"m 481 553 l 835 981 l 803 1003 l 467 561 z m 42 -19 l 393 446 l 379 456 l 8 7 z m 546 -7 b 692 125 631 -7 676 36 b 704 190 692 125 703 183 b 607 322 719 274 678 322 b 500 267 558 322 526 301 b 550 447 511 311 538 404 l 694 447 b 733 478 721 447 729 456 l 529 478 l 458 224 l 483 217 l 493 229 b 601 293 521 268 544 293 b 672 188 661 293 686 258 b 661 124 672 183 661 124 b 547 24 649 53 610 24 b 468 125 475 24 457 61 l 472 144 l 440 144 l 436 124 b 546 -7 424 51 453 -7 z m 342 919 l 294 647 l 132 647 l 346 935 z m 378 619 l 383 647 l 324 647 l 382 982 l 350 982 l 96 646 l 92 619 l 289 619 l 269 504 l 299 504 l 318 619 z "},"⅙":{"ha":808,"x_min":0,"x_max":0,"o":"m 481 553 l 835 981 l 803 1003 l 467 561 z m 42 -19 l 393 446 l 379 456 l 8 7 z m 313 504 l 317 535 l 240 535 l 318 982 l 290 982 b 210 908 275 932 256 908 l 204 876 b 278 922 244 878 264 894 l 210 535 l 129 535 l 125 504 z m 690 117 l 697 163 b 593 294 711 242 671 294 b 478 224 538 294 500 264 l 496 324 b 611 454 511 410 538 454 b 692 371 679 454 700 421 l 688 342 l 719 342 l 724 371 b 615 483 736 436 692 483 b 465 324 519 483 483 426 l 433 146 b 543 -7 417 51 453 -7 b 690 117 633 -7 678 42 z m 547 24 b 463 139 481 24 450 64 l 465 153 b 589 265 474 208 513 265 b 668 168 650 265 676 228 l 661 124 b 547 24 651 64 621 24 z "},"⅚":{"ha":808,"x_min":0,"x_max":0,"o":"m 481 553 l 835 981 l 803 1003 l 467 561 z m 42 -19 l 393 446 l 379 456 l 8 7 z m 229 497 b 375 629 314 497 360 540 b 388 694 375 629 386 688 b 290 826 403 778 361 826 b 183 771 242 826 210 806 b 233 951 194 815 221 908 l 378 951 b 417 982 404 951 413 960 l 213 982 l 142 728 l 167 721 l 176 733 b 285 797 204 772 228 797 b 356 692 344 797 369 763 b 344 628 356 688 344 628 b 231 528 332 557 293 528 b 151 629 158 528 140 565 l 156 649 l 124 649 l 119 628 b 229 497 107 556 136 497 z m 690 117 l 697 163 b 593 294 711 242 671 294 b 478 224 538 294 500 264 l 496 324 b 611 454 511 410 538 454 b 692 371 679 454 700 421 l 688 342 l 719 342 l 724 371 b 615 483 736 436 692 483 b 465 324 519 483 483 426 l 433 146 b 543 -7 417 51 453 -7 b 690 117 633 -7 678 42 z m 547 24 b 463 139 481 24 450 64 l 465 153 b 589 265 474 208 513 265 b 668 168 650 265 676 228 l 661 124 b 547 24 651 64 621 24 z "},"⅛":{"ha":808,"x_min":0,"x_max":0,"o":"m 481 553 l 835 981 l 803 1003 l 467 561 z m 42 -19 l 393 446 l 379 456 l 8 7 z m 313 504 l 317 535 l 240 535 l 318 982 l 290 982 b 210 908 275 932 256 908 l 204 876 b 278 922 244 878 264 894 l 210 535 l 129 535 l 125 504 z m 546 -7 b 697 103 632 -7 683 26 l 701 125 b 636 244 711 186 679 229 b 731 346 681 251 718 282 l 733 361 b 625 483 746 435 708 483 b 486 369 539 483 499 439 l 483 353 b 533 247 474 299 497 260 b 436 144 490 236 447 201 l 432 122 b 546 -7 418 44 456 -7 z m 583 260 b 515 350 529 260 507 296 l 518 367 b 619 454 526 418 554 454 b 701 361 682 454 711 417 l 699 346 b 597 260 688 289 651 260 z m 550 24 b 463 118 482 24 453 63 l 467 142 b 574 231 476 199 518 231 l 589 231 b 669 131 643 231 681 193 l 665 107 b 550 24 656 51 618 24 z "},"⅜":{"ha":808,"x_min":0,"x_max":0,"o":"m 481 553 l 835 981 l 803 1003 l 467 561 z m 42 -19 l 393 446 l 379 456 l 8 7 z m 546 -7 b 697 103 632 -7 683 26 l 701 125 b 636 244 711 186 679 229 b 731 346 681 251 718 282 l 733 361 b 625 483 746 435 708 483 b 486 369 539 483 499 439 l 483 353 b 533 247 474 299 497 260 b 436 144 490 236 447 201 l 432 122 b 546 -7 418 44 456 -7 z m 583 260 b 515 350 529 260 507 296 l 518 367 b 619 454 526 418 554 454 b 701 361 682 454 711 417 l 699 346 b 597 260 688 289 651 260 z m 550 24 b 463 118 482 24 453 63 l 467 142 b 574 231 476 199 518 231 l 589 231 b 669 131 643 231 681 193 l 665 107 b 550 24 656 51 618 24 z m 226 497 b 371 625 322 497 357 547 l 372 633 b 319 749 382 690 367 732 b 406 861 374 763 396 804 l 407 867 b 297 988 419 936 381 988 b 160 874 215 988 172 942 l 151 826 l 185 826 l 193 874 b 294 958 203 925 233 958 b 376 868 361 958 386 919 l 375 861 b 272 765 365 804 342 765 l 226 765 l 221 735 l 268 735 b 340 633 331 735 351 690 l 339 625 b 231 528 328 560 296 528 b 140 614 161 528 131 557 l 151 672 l 118 672 l 107 614 b 226 497 94 544 140 497 z "},"⅝":{"ha":808,"x_min":0,"x_max":0,"o":"m 481 553 l 835 981 l 803 1003 l 467 561 z m 42 -19 l 393 446 l 379 456 l 8 7 z m 546 -7 b 697 103 632 -7 683 26 l 701 125 b 636 244 711 186 679 229 b 731 346 681 251 718 282 l 733 361 b 625 483 746 435 708 483 b 486 369 539 483 499 439 l 483 353 b 533 247 474 299 497 260 b 436 144 490 236 447 201 l 432 122 b 546 -7 418 44 456 -7 z m 583 260 b 515 350 529 260 507 296 l 518 367 b 619 454 526 418 554 454 b 701 361 682 454 711 417 l 699 346 b 597 260 688 289 651 260 z m 550 24 b 463 118 482 24 453 63 l 467 142 b 574 231 476 199 518 231 l 589 231 b 669 131 643 231 681 193 l 665 107 b 550 24 656 51 618 24 z m 229 497 b 375 629 314 497 360 540 b 388 694 375 629 386 688 b 290 826 403 778 361 826 b 183 771 242 826 210 806 b 233 951 194 815 221 908 l 378 951 b 417 982 404 951 413 960 l 213 982 l 142 728 l 167 721 l 176 733 b 285 797 204 772 228 797 b 356 692 344 797 369 763 b 344 628 356 688 344 628 b 231 528 332 557 293 528 b 151 629 158 528 140 565 l 156 649 l 124 649 l 119 628 b 229 497 107 556 136 497 z "},"⅞":{"ha":808,"x_min":0,"x_max":0,"o":"m 481 553 l 835 981 l 803 1003 l 467 561 z m 42 -19 l 393 446 l 379 456 l 8 7 z m 546 -7 b 697 103 632 -7 683 26 l 701 125 b 636 244 711 186 679 229 b 731 346 681 251 718 282 l 733 361 b 625 483 746 435 708 483 b 486 369 539 483 499 439 l 483 353 b 533 247 474 299 497 260 b 436 144 490 236 447 201 l 432 122 b 546 -7 418 44 456 -7 z m 583 260 b 515 350 529 260 507 296 l 518 367 b 619 454 526 418 554 454 b 701 361 682 454 711 417 l 699 346 b 597 260 688 289 651 260 z m 550 24 b 463 118 482 24 453 63 l 467 142 b 574 231 476 199 518 231 l 589 231 b 669 131 643 231 681 193 l 665 107 b 550 24 656 51 618 24 z m 243 504 b 471 957 293 663 383 832 l 475 982 l 235 982 l 229 950 l 436 950 b 210 504 354 832 261 663 z "},"%":{"ha":793,"x_min":0,"x_max":0,"o":"m 267 599 b 419 740 358 599 403 650 l 433 821 b 304 990 451 919 407 990 b 154 849 221 990 169 938 l 140 775 b 267 599 122 672 153 599 z m 24 0 l 64 0 l 807 981 l 769 981 z m 267 632 b 172 772 182 632 157 690 l 188 850 b 307 957 203 928 239 957 b 400 825 378 957 417 908 l 386 740 b 267 632 372 667 339 632 z m 521 -14 b 674 128 613 -14 657 38 l 689 211 b 560 381 707 310 663 381 b 410 239 476 381 425 328 l 394 163 b 521 -14 376 60 407 -14 z m 521 19 b 426 160 436 19 411 78 l 443 240 b 563 347 458 318 494 347 b 657 215 633 347 674 299 l 642 128 b 521 19 628 54 593 19 z "},"‰":{"ha":1189,"x_min":0,"x_max":0,"o":"m 267 599 b 419 740 358 599 403 650 l 433 821 b 304 990 451 919 407 990 b 154 849 221 990 169 938 l 140 775 b 267 599 122 672 153 599 z m 24 0 l 64 0 l 807 981 l 769 981 z m 267 632 b 172 772 182 632 157 690 l 188 850 b 307 957 203 928 239 957 b 400 825 378 957 417 908 l 386 740 b 267 632 372 667 339 632 z m 917 -14 b 1069 128 1008 -14 1053 38 l 1085 211 b 956 381 1103 310 1058 381 b 806 239 872 381 821 328 l 790 163 b 917 -14 772 60 803 -14 z m 521 -14 b 674 128 613 -14 657 38 l 689 211 b 560 381 707 310 663 381 b 410 239 476 381 425 328 l 394 163 b 521 -14 376 60 407 -14 z m 917 19 b 822 160 832 19 807 78 l 839 240 b 958 347 854 318 890 347 b 1053 215 1029 347 1069 299 l 1038 128 b 917 19 1024 54 989 19 z m 521 19 b 426 160 436 19 411 78 l 443 240 b 563 347 458 318 494 347 b 657 215 633 347 674 299 l 642 128 b 521 19 628 54 593 19 z "},"№":{"ha":1163,"x_min":0,"x_max":0,"o":"m 967 418 b 1156 594 1079 418 1135 482 l 1190 792 b 1031 1000 1213 914 1157 1000 b 844 825 928 1000 864 936 l 811 638 b 967 418 789 510 826 418 z m 967 450 b 844 633 857 450 826 528 l 879 828 b 1035 968 897 924 951 968 b 1156 796 1132 968 1176 904 l 1121 594 b 967 450 1104 503 1056 450 z m 228 817 l 243 931 l 250 894 l 532 0 l 563 0 l 735 981 l 700 981 l 560 182 l 542 54 l 532 113 l 256 981 l 222 981 l 50 0 l 85 0 z m 760 254 l 1083 254 l 1089 289 l 765 289 z "},"¤":{"ha":674,"x_min":0,"x_max":0,"o":"m 322 289 b 178 474 210 289 160 372 l 185 518 b 394 703 203 621 279 703 b 543 518 515 703 561 621 l 536 475 b 322 289 518 371 442 289 z m 324 257 b 471 303 383 257 432 274 l 543 206 l 567 228 l 497 325 b 569 475 535 364 558 417 l 576 518 b 553 661 586 574 578 624 l 663 768 l 640 788 l 535 683 b 400 735 503 715 457 735 b 247 686 339 735 288 717 l 176 789 l 150 767 l 222 664 b 150 517 185 625 160 574 l 143 474 b 165 333 133 419 142 371 l 49 224 l 69 201 l 185 310 b 324 257 215 276 264 257 z "},"←":{"ha":1244,"x_min":0,"x_max":0,"o":"m 397 194 b 153 488 344 319 231 436 l 1151 488 l 1151 528 l 150 528 b 396 822 229 576 347 692 l 349 822 b 74 519 301 700 165 564 l 74 497 b 349 194 164 454 299 315 z "},"→":{"ha":1244,"x_min":0,"x_max":0,"o":"m 888 194 b 1163 497 935 317 1071 453 l 1163 519 b 888 822 1072 563 938 701 l 839 822 b 1083 529 892 696 1006 579 l 85 529 l 85 489 l 1085 489 b 840 194 1006 439 889 324 z "},"↑":{"ha":1244,"x_min":0,"x_max":0,"o":"m 639 903 b 933 658 688 824 803 707 l 933 706 b 631 981 811 753 675 889 l 608 981 b 306 706 565 890 426 756 l 306 657 b 599 901 431 710 547 822 l 599 0 l 639 0 z "},"↓":{"ha":1244,"x_min":0,"x_max":0,"o":"m 631 0 b 933 275 674 90 813 225 l 933 324 b 640 78 807 269 690 157 l 640 981 l 600 981 l 600 76 b 306 322 550 156 435 274 l 306 275 b 608 0 428 228 564 92 z "},"↖":{"ha":1244,"x_min":0,"x_max":0,"o":"m 1007 142 l 299 849 b 681 883 389 828 554 825 l 647 917 b 239 897 528 864 336 864 l 224 882 b 204 474 257 788 254 594 l 239 439 b 272 818 289 564 292 726 l 979 113 z "},"↗":{"ha":1244,"x_min":0,"x_max":0,"o":"m 953 822 b 988 440 932 731 929 565 l 1021 474 b 1001 882 968 593 968 785 l 986 897 b 578 917 892 864 699 867 l 543 882 b 922 846 668 831 831 826 l 217 140 l 246 114 z "},"↘":{"ha":1244,"x_min":0,"x_max":0,"o":"m 986 119 l 1001 135 b 1021 543 968 229 971 422 l 986 578 b 951 197 935 451 932 289 l 246 904 l 218 875 l 926 168 b 544 133 835 189 669 190 l 578 100 b 986 119 697 153 889 153 z "},"↙":{"ha":1244,"x_min":0,"x_max":0,"o":"m 647 100 l 682 135 b 301 168 556 185 393 188 l 1008 875 l 979 903 l 272 194 b 238 576 293 285 294 450 l 204 543 b 224 135 257 424 257 232 l 239 119 b 647 100 333 153 526 150 z "},"○":{"ha":1256,"x_min":0,"x_max":0,"o":"m 631 -14 b 1135 490 921 -14 1135 196 b 631 994 1135 781 925 994 b 126 490 340 994 126 785 b 631 -14 126 196 336 -14 z m 631 25 b 169 490 361 25 169 226 b 631 956 169 758 369 956 b 1092 490 896 956 1092 754 b 631 25 1092 226 892 25 z "},"●":{"ha":1256,"x_min":0,"x_max":0,"o":"m 631 -14 b 1135 490 921 -14 1135 196 b 631 994 1135 781 925 994 b 126 490 340 994 126 785 b 631 -14 126 196 336 -14 z "},"■":{"ha":1243,"x_min":0,"x_max":0,"o":"m 138 0 l 1113 0 l 1113 981 l 138 981 z "},"□":{"ha":1243,"x_min":0,"x_max":0,"o":"m 138 0 l 1113 0 l 1113 981 l 138 981 z m 179 40 l 179 940 l 1069 940 l 1069 40 z "},"⊠":{"ha":1243,"x_min":0,"x_max":0,"o":"m 138 0 l 1113 0 l 1113 981 l 138 981 z m 179 40 l 179 940 l 1069 940 l 1069 40 z m 890 196 l 919 224 l 657 494 l 913 758 l 885 788 l 629 522 l 369 789 l 340 761 l 601 493 l 333 217 l 360 188 l 628 465 z "},"▪":{"ha":1060,"x_min":0,"x_max":0,"o":"m 142 0 l 924 0 l 924 782 l 142 782 z "},"▫":{"ha":1060,"x_min":0,"x_max":0,"o":"m 142 0 l 924 0 l 924 782 l 142 782 z m 183 40 l 183 742 l 882 742 l 882 40 z "},"▲":{"ha":1204,"x_min":0,"x_max":0,"o":"m 1181 0 l 606 997 l 29 0 z "},"▼":{"ha":1204,"x_min":0,"x_max":0,"o":"m 606 -17 l 1181 981 l 29 981 z "},"◄":{"ha":1204,"x_min":0,"x_max":0,"o":"m 1074 1075 l 76 500 l 1074 -76 z "},"►":{"ha":1204,"x_min":0,"x_max":0,"o":"m 138 -76 l 1133 500 l 138 1075 z "},"◤":{"ha":1204,"x_min":0,"x_max":0,"o":"m 1154 -72 l 856 1039 l 42 225 z "},"◥":{"ha":1204,"x_min":0,"x_max":0,"o":"m 1174 219 l 361 1035 l 63 -78 z "},"◢":{"ha":1204,"x_min":0,"x_max":0,"o":"m 1175 715 l 64 1014 l 361 -99 z "},"◣":{"ha":1204,"x_min":0,"x_max":0,"o":"m 851 -99 l 1150 1014 l 38 715 z "},"◎":{"ha":1243,"x_min":0,"x_max":0,"o":"m 622 -14 b 1124 486 917 -14 1124 199 b 622 989 1124 779 913 989 b 125 486 332 989 125 775 b 622 -14 125 194 332 -14 z m 622 164 b 304 486 443 164 304 303 b 622 814 304 672 443 814 b 944 486 808 814 944 668 b 622 164 944 303 808 164 z m 624 254 b 858 485 758 254 858 354 b 624 718 858 618 757 718 b 392 485 493 718 392 618 b 624 254 392 351 489 254 z m 624 407 b 551 485 582 407 551 442 b 624 565 551 532 582 565 b 699 485 668 565 699 532 b 624 407 699 442 668 407 z "},"★":{"ha":1250,"x_min":0,"x_max":0,"o":"m 365 118 l 624 306 l 883 118 l 783 421 l 1043 607 l 724 608 l 625 911 l 525 608 l 207 610 l 465 422 z "},"☼":{"ha":1289,"x_min":0,"x_max":0,"o":"m 629 789 l 657 789 l 681 986 l 606 986 z m 779 757 l 800 743 l 921 903 l 856 942 z m 486 743 l 507 757 l 431 942 l 365 903 z m 890 654 l 904 632 l 1089 710 l 1047 774 z m 382 632 l 396 653 l 236 774 l 197 708 z m 401 494 b 643 253 401 363 511 253 b 885 494 775 253 885 363 b 643 736 885 626 775 736 b 401 494 511 736 401 626 z m 936 510 l 936 482 l 1133 458 l 1133 533 z m 350 482 l 350 510 l 153 533 l 153 458 z m 396 338 l 382 360 l 197 282 l 239 218 z m 904 360 l 890 339 l 1050 218 l 1089 283 z m 507 235 l 486 249 l 365 89 l 431 50 z m 800 249 l 779 235 l 856 50 l 921 89 z m 657 203 l 629 203 l 606 6 l 681 6 z "},"☾":{"ha":1093,"x_min":0,"x_max":0,"o":"m 744 840 b 843 824 778 840 811 832 b 596 903 772 874 686 903 b 185 492 369 903 185 718 b 596 81 185 265 369 81 b 843 160 686 81 772 110 b 744 143 811 150 778 143 b 413 492 561 143 413 300 b 744 840 413 683 561 840 z "},"♻":{"ha":1151,"x_min":0,"x_max":0,"o":"m 489 944 b 596 878 489 944 560 940 l 681 731 l 633 703 l 835 665 l 908 863 l 857 833 l 824 890 b 717 946 794 943 760 944 l 489 946 z m 249 732 l 425 631 l 561 867 b 368 908 538 913 438 950 b 328 872 349 899 333 882 z m 961 649 l 786 549 l 922 313 b 1054 460 971 313 1056 378 b 1043 511 1054 481 1049 501 z m 233 174 b 238 300 233 174 203 240 b 322 447 240 306 322 447 l 371 418 l 301 614 l 96 578 l 146 549 l 113 490 b 118 371 82 439 97 408 l 231 174 z m 1029 342 b 917 281 1029 342 986 281 l 746 281 l 746 339 l 614 179 l 746 19 l 746 78 l 814 78 b 917 143 875 78 893 107 l 1031 340 z m 539 78 l 539 281 l 267 281 b 328 93 240 238 257 135 b 381 78 346 82 367 78 z "},"♼":{"ha":1151,"x_min":0,"x_max":0,"o":"m 1049 492 b 581 964 1049 753 839 964 b 108 492 319 964 108 753 b 581 24 108 232 319 24 b 1049 492 839 24 1049 232 z m 501 850 l 678 850 b 761 807 713 850 738 847 l 788 763 l 826 785 l 771 632 l 614 661 l 651 683 l 585 797 b 501 849 558 843 501 849 z m 383 792 b 413 821 386 801 399 813 b 563 789 467 853 544 824 l 458 606 l 321 685 z m 935 514 b 946 474 940 504 946 490 b 843 357 946 410 882 357 l 736 540 l 874 619 z m 307 251 l 219 403 b 215 497 204 433 190 456 l 242 542 l 203 565 l 361 592 l 415 440 l 378 464 l 311 350 b 308 251 285 303 308 251 z m 926 379 l 838 228 b 758 178 821 200 807 178 l 707 178 l 707 132 l 603 256 l 707 378 l 707 335 l 838 335 b 925 381 893 335 925 381 z m 418 178 b 378 189 408 178 392 181 b 329 335 322 221 308 300 l 542 335 l 542 178 z "},"♽":{"ha":1151,"x_min":0,"x_max":0,"o":"m 1049 492 b 581 964 1049 753 839 964 b 108 492 319 964 108 753 b 581 24 108 232 319 24 b 1049 492 839 24 1049 232 z m 1025 492 b 581 46 1025 244 826 46 b 132 492 332 46 132 244 b 581 940 132 740 332 940 b 1025 492 826 940 1025 740 z m 501 849 b 585 797 501 849 558 843 l 651 683 l 614 661 l 771 632 l 826 785 l 788 763 l 761 807 b 678 850 738 847 713 850 l 501 850 z m 321 685 l 458 606 l 563 789 b 413 821 544 824 467 853 b 383 792 399 813 386 801 z m 874 619 l 736 540 l 843 357 b 946 474 882 357 946 410 b 935 514 946 490 940 504 z m 308 251 b 311 350 308 251 285 303 l 378 464 l 415 440 l 361 592 l 203 565 l 242 542 l 215 497 b 219 403 190 456 204 433 l 307 251 z m 925 381 b 838 335 925 381 893 335 l 707 335 l 707 378 l 603 256 l 707 132 l 707 178 l 758 178 b 838 228 807 178 821 200 l 926 379 z m 542 178 l 542 335 l 329 335 b 378 189 308 300 322 221 b 418 178 392 181 408 178 z "},"⌂":{"ha":1183,"x_min":0,"x_max":0,"o":"m 142 0 l 1047 0 l 1047 564 l 594 999 l 142 564 z "},"♠":{"ha":1239,"x_min":0,"x_max":0,"o":"m 668 394 b 915 211 704 300 782 211 b 1129 425 1033 211 1129 307 b 819 864 1129 581 1044 685 l 629 1015 l 628 1015 l 438 864 b 117 425 213 685 117 581 b 350 210 117 307 224 210 b 581 394 474 210 547 300 b 451 0 581 231 490 69 l 804 0 b 668 394 769 69 668 231 z "},"♣":{"ha":1253,"x_min":0,"x_max":0,"o":"m 901 178 b 1142 421 1035 178 1142 288 b 903 661 1142 554 1036 661 b 840 650 881 661 858 657 b 865 771 856 688 865 729 b 626 1008 865 903 758 1008 b 386 771 494 1008 386 903 b 414 653 386 731 397 689 b 357 661 396 657 378 661 b 115 421 224 661 115 554 b 357 178 115 288 224 178 b 585 342 463 178 547 247 b 458 0 568 197 493 61 l 811 0 b 679 340 781 61 697 197 b 901 178 715 246 797 178 z "},"♥":{"ha":1253,"x_min":0,"x_max":0,"o":"m 625 -24 l 817 190 b 1133 751 1044 442 1133 593 b 875 1008 1133 892 1015 1008 b 625 790 736 1008 640 914 b 374 1008 610 914 511 1008 b 124 751 233 1008 124 892 b 433 190 124 593 207 442 z "},"♦":{"ha":1253,"x_min":0,"x_max":0,"o":"m 629 -14 l 1074 506 l 629 1019 l 183 506 z "},"+":{"ha":650,"x_min":0,"x_max":0,"o":"m 540 468 l 546 501 l 364 501 l 394 678 l 360 678 l 329 501 l 149 501 l 143 468 l 322 468 l 292 292 l 326 292 l 357 468 z "},"−":{"ha":650,"x_min":0,"x_max":0,"o":"m 556 468 l 561 501 l 128 501 l 122 468 z "},"±":{"ha":650,"x_min":0,"x_max":0,"o":"m 554 589 l 560 622 l 383 622 l 413 792 l 378 792 l 349 622 l 175 622 l 169 589 l 342 589 l 313 419 l 347 419 l 376 589 z m 504 294 l 510 328 l 125 328 l 119 294 z "},"×":{"ha":650,"x_min":0,"x_max":0,"o":"m 479 306 l 503 326 l 364 504 l 557 671 l 538 696 l 344 529 l 219 689 l 197 668 l 321 508 l 113 328 l 132 303 l 340 483 z "},"÷":{"ha":650,"x_min":0,"x_max":0,"o":"m 361 621 b 403 658 382 621 399 632 b 378 701 408 686 400 701 b 335 660 354 701 340 686 b 361 621 331 632 340 621 z m 122 468 l 556 468 l 561 501 l 128 501 z m 299 265 b 339 303 319 265 333 275 b 313 344 343 331 335 344 b 269 304 289 344 274 331 b 299 265 264 275 276 265 z "},"=":{"ha":650,"x_min":0,"x_max":0,"o":"m 574 607 l 579 640 l 160 640 l 154 607 z m 528 350 l 533 383 l 114 383 l 108 350 z "},"≠":{"ha":650,"x_min":0,"x_max":0,"o":"m 528 350 l 533 383 l 306 383 l 408 607 l 574 607 l 579 640 l 424 640 l 482 767 l 451 767 l 393 640 l 160 640 l 154 607 l 378 607 l 275 383 l 114 383 l 108 350 l 260 350 l 196 213 l 226 213 l 290 350 z "},"≈":{"ha":650,"x_min":0,"x_max":0,"o":"m 221 426 b 126 381 181 426 142 401 l 118 338 b 214 392 138 364 175 392 b 429 343 278 392 349 343 b 522 386 475 343 506 365 l 529 428 b 435 376 503 396 475 376 b 221 426 371 376 300 426 z m 261 640 b 164 594 218 640 181 615 l 157 553 b 254 607 178 585 219 607 b 467 557 317 607 383 557 b 560 600 504 557 543 581 l 567 646 b 474 592 547 614 514 592 b 261 640 407 592 338 640 z "},"<":{"ha":650,"x_min":0,"x_max":0,"o":"m 493 314 l 500 351 l 190 501 l 553 647 l 560 688 l 147 518 l 142 488 z "},">":{"ha":650,"x_min":0,"x_max":0,"o":"m 136 314 l 549 488 l 554 518 l 203 688 l 196 653 l 513 504 l 143 353 z "},"≤":{"ha":650,"x_min":0,"x_max":0,"o":"m 513 397 l 519 433 l 203 569 l 567 704 l 574 743 l 163 588 l 157 557 z m 489 264 l 494 297 l 111 297 l 106 264 z "},"≥":{"ha":650,"x_min":0,"x_max":0,"o":"m 142 397 l 553 557 l 558 588 l 203 743 l 196 708 l 513 574 l 149 438 z m 118 264 l 501 264 l 507 297 l 124 297 z "},"¬":{"ha":706,"x_min":0,"x_max":0,"o":"m 597 304 l 651 607 l 107 607 l 100 574 l 610 574 l 563 304 z "},"≡":{"ha":650,"x_min":0,"x_max":0,"o":"m 582 661 l 589 694 l 169 694 l 163 661 z m 550 479 l 557 513 l 138 513 l 131 479 z m 518 299 l 525 332 l 106 332 l 99 299 z "},"′":{"ha":215,"x_min":0,"x_max":0,"o":"m 139 707 l 264 981 l 225 981 l 114 707 z "},"″":{"ha":325,"x_min":0,"x_max":0,"o":"m 249 707 l 381 981 l 342 981 l 224 707 z m 139 707 l 263 981 l 224 981 l 113 707 z "},"℅":{"ha":793,"x_min":0,"x_max":0,"o":"m 24 0 l 64 0 l 807 981 l 769 981 z m 419 740 l 386 740 b 267 632 372 667 339 632 b 172 772 182 632 157 690 l 188 850 b 307 957 203 928 239 957 b 400 825 378 957 417 908 l 399 821 l 433 821 b 304 990 451 919 407 990 b 154 849 221 990 169 938 l 140 775 b 267 599 122 672 153 599 b 419 740 358 599 403 650 z m 521 -14 b 674 128 613 -14 657 38 l 689 211 b 560 381 707 310 663 381 b 410 239 476 381 425 328 l 394 163 b 521 -14 376 60 407 -14 z m 521 19 b 426 160 436 19 411 78 l 443 240 b 563 347 458 318 494 347 b 657 215 633 347 674 299 l 642 128 b 521 19 628 54 593 19 z "},"‗":{"ha":564,"x_min":0,"x_max":0,"o":"m 453 33 l -10 33 l -15 0 l 447 0 z m 428 -107 l -35 -107 l -40 -140 l 422 -140 z "},"‼":{"ha":565,"x_min":0,"x_max":0,"o":"m 368 189 b 488 832 376 222 446 599 l 514 982 l 479 982 l 453 831 b 344 189 411 599 350 222 z m 153 189 b 272 832 161 222 231 599 l 299 982 l 264 982 l 238 831 b 129 189 196 599 135 222 z m 324 -10 b 374 36 349 -10 367 3 b 342 90 381 72 368 90 b 290 43 314 90 296 75 b 324 -10 285 8 297 -10 z m 108 -10 b 158 36 133 -10 151 3 b 126 90 165 72 153 90 b 75 43 99 90 81 75 b 108 -10 69 8 82 -10 z "},"∞":{"ha":950,"x_min":0,"x_max":0,"o":"m 231 342 b 493 472 335 342 428 418 b 715 342 544 422 613 342 b 892 486 797 342 875 394 b 751 651 907 575 850 651 b 496 518 664 651 563 574 b 274 651 443 569 379 651 b 100 507 189 651 117 596 b 231 342 83 417 136 342 z m 714 374 b 518 494 629 374 565 449 b 751 618 582 549 668 618 b 858 494 824 618 869 564 b 714 374 846 428 788 374 z m 236 374 b 135 503 164 374 122 432 b 274 618 146 575 203 618 b 472 497 363 618 426 546 b 236 374 410 447 331 374 z "},"∂":{"ha":668,"x_min":0,"x_max":0,"o":"m 286 -12 b 553 233 443 -12 525 76 l 606 531 b 406 1076 644 753 589 932 l 353 1076 b 589 636 518 951 592 810 b 376 797 572 735 503 797 b 113 556 233 797 140 710 l 67 293 b 286 -12 36 115 92 -12 z m 289 21 b 100 288 121 21 74 135 l 149 558 b 376 765 174 692 254 765 b 568 514 522 765 596 671 l 518 235 b 289 21 494 100 421 21 z "},"π":{"ha":763,"x_min":0,"x_max":0,"o":"m 485 183 b 614 0 458 42 488 0 l 644 0 l 650 33 l 621 33 b 521 183 515 33 499 63 l 656 949 l 815 949 l 821 981 l 151 981 l 146 949 l 299 949 l 132 0 l 167 0 l 333 949 l 619 949 z "},"μ":{"ha":661,"x_min":0,"x_max":0,"o":"m 264 -14 b 479 142 376 -14 442 44 l 460 0 l 486 0 l 624 783 l 589 783 l 494 250 b 271 21 461 103 386 21 b 118 242 149 21 93 101 l 214 783 l 179 783 l -8 -278 l 24 -278 l 96 133 b 264 -14 104 39 157 -14 z "},"∫":{"ha":349,"x_min":0,"x_max":0,"o":"m -128 -219 l -97 -219 b 110 -7 33 -219 81 -179 l 258 842 b 428 1024 286 996 318 1024 l 457 1024 l 464 1056 l 435 1056 b 226 843 303 1056 256 1015 l 76 -6 b -92 -189 49 -160 17 -189 l -122 -189 z "},"√":{"ha":822,"x_min":0,"x_max":0,"o":"m 313 0 l 882 981 l 846 981 l 307 56 l 225 618 l 90 618 l 85 586 l 193 586 l 279 0 z "},"∆":{"ha":799,"x_min":0,"x_max":0,"o":"m -46 0 l 713 0 l 508 997 z m 669 33 l 13 33 l 493 904 z "},"Ω":{"ha":850,"x_min":0,"x_max":0,"o":"m 279 29 b 161 560 208 163 119 326 b 510 958 210 842 343 958 b 753 550 682 958 804 832 b 447 29 711 314 565 157 l 463 0 l 750 0 l 756 33 l 497 33 b 789 550 606 146 747 317 b 515 990 843 847 696 990 b 125 560 321 990 176 854 b 240 33 83 322 168 153 l -26 33 l -32 0 l 256 0 z "},"∏":{"ha":763,"x_min":0,"x_max":0,"o":"m 456 0 l 492 0 l 658 949 l 817 949 l 822 981 l 151 981 l 146 949 l 300 949 l 133 0 l 168 0 l 335 949 l 622 949 z "},"∑":{"ha":535,"x_min":0,"x_max":0,"o":"m 421 33 l 26 33 l 358 504 l 192 947 l 572 947 l 578 981 l 164 981 l 157 943 l 321 510 l -14 35 l -19 0 l 415 0 z "},"◊":{"ha":828,"x_min":0,"x_max":0,"o":"m 364 122 l 792 485 l 489 850 l 63 488 z m 369 169 l 113 483 l 483 803 l 743 488 z "},"°":{"ha":447,"x_min":0,"x_max":0,"o":"m 288 692 b 453 831 379 692 438 746 b 319 994 468 918 414 994 b 151 857 233 994 168 942 b 288 692 136 769 193 692 z m 290 722 b 183 851 211 722 172 782 b 317 964 196 924 246 964 b 422 836 396 964 435 901 b 290 722 407 761 365 722 z "}}}
